<svg width="16" height="16" fill="none" xmlns="http://www.w3.org/2000/svg"><g clip-path="url(#clip0_584_3048)" fill="#fff"><path d="M14.208 11.324a8.468 8.468 0 00-2.82-1.865A9.007 9.007 0 008 8.8c-1.166 0-2.32.224-3.388.659a8.468 8.468 0 00-2.82 1.865.664.664 0 00-.192.457v2.742c.003.18.082.353.22.48a.769.769 0 00.519.197h11.323a.768.768 0 00.522-.2.662.662 0 00.216-.486v-2.742a.664.664 0 00-.192-.448zM8 7.2A3.2 3.2 0 108 .8a3.2 3.2 0 000 6.4z"/></g><defs><clipPath id="clip0_584_3048"><path fill="#fff" d="M0 0h16v16H0z"/></clipPath></defs></svg>