<svg width="489" height="297" fill="none" xmlns="http://www.w3.org/2000/svg"><path d="M453.949 46.862c-1.427.09-2.706.172-4.124.259.558.72.966 1.377 2.024.863.36-.177.894-.129 1.307-.033.64.154 1.207.379 1.37 1.228.38 1.963.884 3.901 1.351 5.844.36 1.502.73 3 1.096 4.486-1.486.648-2.63.044-3.759-.671-.514-.327-1.024-.686-1.586-.898-.25-.095-.625.13-.942.207l-.072.413c1.182.666 2.369 1.338 3.677 2.077-.246.993-.534 2.178-.813 3.306-.918.091-1.595-.806-2.393-.14-.063.054-.231.034-.318-.014-1.47-.834-3.129-1.449-4.08-2.95-.284-.447-.481-.658-1.005-.595-1.884.22-2.201-.01-2.552-1.81-.053-.268-.072-.541-.125-.935a728.46 728.46 0 012.793-.206c.014-.993-.198-1.895-1.341-2.36-.26-.106-.351-.596-.534-.898-.418-.686-.947-.696-1.793.11-.567-2.284-1.158-4.452-1.639-6.65-.466-2.125-1.197-4.208-1.398-6.602l2.499.816c-.168-.71-.289-1.21-.428-1.795-.413.082-.721.182-1.033.197-1.062.038-1.452-.254-1.721-1.358-.774-3.128-1.524-6.266-2.288-9.4-.077-.316-.197-.623-.327-1.031-.793.13-1.557.201-2.297.38-4.004.963-7.979 2.072-12.012 2.902-2.855.59-5.623 1.478-8.469 2.078-2.883.609-5.724 1.415-8.603 2.048-1.341.293-2.735.749-4.139-.028.159.249.313.498.539.849-1.947.47-3.807.998-5.706 1.338-.629.11-1.345-.264-2.138-.441.028-.01-.145.005-.164.067-.312.993-1.052 1.272-2.014 1.502a90022.333 90022.333 0 00-88.025 21.087c-.486.116-.976.202-1.572.327-.197-.365-.394-.74-.692-1.3-.149.56-.26.993-.423 1.607-26.171 6.27-52.415 12.561-78.778 18.88-.226-1.137-.923-1.718-2.072-1.737-.682.629-.408 1.401-.235 2.27-1.894.46-3.773.916-5.739 1.391-.51-2.092-1.149-4.073-3.182-5.086-1.466-.729-3.052-.652-4.576-.22-2.942.83-4.374 4.035-3.528 7.907-1.476.384-2.961.772-4.446 1.161-.053.014-.11.034-.163.038-.798.039-1.985-.24-2.312.168-.64.811-1.481.864-2.163.864-1.74 0-3.201.926-4.84 1.175-.274.044-.539.135-.803.212-1.173.34-2.341.748-3.557.13-.163-.087-.423.013-.653.033-.039.283-.068.518-.106.801-1.019-.365-1.99-.71-3.057-1.09-.226 1.095.899.893 1.413 1.575l-87.617 20.996c.149-.614.274-1.017.341-1.435.115-.748-.014-1.429-.606-1.986-.447-.417-.855-.873-1.278-1.32-1.543-1.602-1.817-2.634-1.341-5.124h2.028l.404-1.214c1.807.106 1.975.307 2.615-3.013 2.259-.547 4.576-1.108 6.892-1.665 15.323-3.67 30.642-7.346 45.965-11.016.86-.207 1.706-.523 2.609-.163.145.057.443.067.476-.005.846-1.588 1.764-.029 2.663-.058 1.154-2.183 3.389-1.847 5.306-2.212 1.221-.235 2.706.053 3.644-.556 1.019-.662 2.057-.912 3.124-1.281 1.029-.36 1.937-.154 2.903.268-.135.571-.255 1.1-.418 1.795 1.841.307 3.619.6 5.398.892l.115-.245c-.947-.45-1.889-.906-3.158-1.51.735-.303 1.144-.476 1.649-.682-.774-.394-1.5-.758-2.428-1.228.443-.226.683-.413.957-.48 2.865-.7 5.729-1.406 8.613-2.04.611-.134 1.293-.01 1.937.058.909.096 1.812.25 2.821.091-.432-.235-.86-.475-1.6-.883 1.37-.355 2.418-.642 3.48-.897 6.388-1.535 12.771-3.075 19.168-4.568.639-.148 1.437-.796 2.048.255.062.11 1.369-.163 1.557-.528.485-.96 1.35-.926 2.105-1.108 11.742-2.831 23.494-5.638 35.241-8.445 2.004-.48 3.994-1.032 6.018-1.401 3.321-.61 6.513-1.699 9.81-2.394 3.321-.7 6.604-1.57 9.906-2.366 1.235-.297 2.48-.561 3.711-.892 1.091-.293 1.937.029 2.662.911-.235.322-.475.648-.716.974 1.36-.35 2.077-1.43 2.865-2.355.509-.6 1.033-.95 1.754-1.123 18.024-4.314 36.044-8.637 54.068-12.95.212-.053.433-.058.745-.096.308.648.611 1.28.933 1.967 1.547-.307 1.946-1.502 2.259-2.807 34.861-8.353 69.713-16.707 104.733-25.099a35842.21 35842.21 0 008.305 34.59zM342.386 200.251l8.695 11.496c-2.317.557-4.739 1.142-7.248 1.747-.139-.725-.264-1.541-1.149-1.229-.254.092-.269.859-.466 1.565-3.951 1.223-8.382 1.885-12.689 3.061-4.292 1.17-8.652 2.111-12.977 3.147-4.384 1.051-8.772 2.083-13.156 3.133-4.33 1.037-8.656 2.092-12.987 3.134-4.383 1.05-8.772 2.096-13.155 3.142-4.331 1.037-8.661 2.068-12.992 3.109-4.384 1.051-8.762 2.121-13.151 3.167-4.306 1.032-8.618 2.049-13.275 3.157.543-.724.86-1.151 1.327-1.775-.467 0-.736-.019-1 .01-.087.009-.178.134-.231.23-1.12 1.847-2.98 2.289-4.917 2.735-5.965 1.372-11.91 2.845-17.87 4.251-.688.163-1.418.144-2.125.235a3.172 3.172 0 00-.745.221c-.5.201-.99.427-1.576.686-1.659-2.49-3.922-3.843-6.83-3.248-2.995.614-4.043 3.032-4.451 5.872-18.135 4.347-36.251 8.685-54.592 13.085.086-.73.106-1.267.221-1.785.615-2.764 1.211-5.532 1.913-8.277.341-1.329.841-2.639 1.423-3.886.182-.389.831-.667 1.317-.787 6.431-1.574 12.876-3.109 19.317-4.654 3.191-.763 6.378-1.526 9.497-2.275.967 1.353 1.885 2.639 2.841 3.973.923-.719 1.663-1.305 2.413-1.876.985-.744 2.086-1.051 3.302-.777.726.163 1.447.35 1.961-.403.505-.739.288-1.492-.053-2.217-.139-.297-.322-.58-.557-1.003.884-.244 1.711-.494 2.542-.691 17.919-4.289 35.837-8.574 53.756-12.858.673-.159 1.168-.341 1.903.268.678.557 1.884.466 3.033.691.221-.753.413-1.396.687-2.317 30.56-7.317 61.384-14.706 92.044-22.057z" fill="#00040E"/><path d="M485.835 179.447c-2.735.667-5.268 1.286-7.801 1.9-.543.129-1.095.221-1.624.379-1.149.35-2.254.537-3.37-.182-.221-.144-.668.062-1.009.105.091.293.178.586.313 1.017-2.207.543-4.446 1.109-6.696 1.646-10.939 2.62-21.874 5.235-32.814 7.84-2.432.581-4.878 1.123-7.31 1.694-.423.101-.702.249-.99-.35-.154-.327-.971-.495-1.26.331-.086.244-.408.504-.668.571-4.061 1.065-8.128 2.135-12.208 3.128-1.721.417-3.504.6-5.23 1.008-1.557.369-3.061.964-4.619 1.353-3.778.945-7.575 1.818-11.353 2.754-.913.225-1.72.355-2.384-.533-.221-.297-.596-.518-.951-.662-.851-.345-1.356-.849-1.798-1.737-.399-.801-1.437-1.334-2.273-1.852-.27-.168-.842-.005-1.197.168-.38.182-.673.552-1.062.897-.284-.254-.519-.46-.779-.691.096-.182.139-.345.245-.436 1.009-.878 1.019-1.07.039-1.876-.702-.576-1.788-.878-1.673-2.246-.255.307-.529.6-.769.917-.495.657-1.072.743-1.73.268-.587-.422-1.159-.859-1.803-1.338-.678.484-1.413.801-2.302-.058 33.078-7.926 66.021-15.824 99.114-23.76-8.618-35.861-17.198-71.544-25.772-107.227 1.168.081 2.206.048 3.186.264.644.143 1.289.455 1.635 1.233.317.714.831 1.468 1.889 1.2v-.864c1.023.546 1.317 2.403 3.023 1.31.082 1.117.154 2.1.226 3.147-.293.091-.548.173-.856.273.053.192.058.427.173.567.659.806.788 1.76.861 2.754.062.887.177 1.77.274 2.653.12 1.108.355 2.145.898 3.167.447.854.63 1.904.712 2.883.23 2.88.36 5.763.514 8.647.038.69.005 1.31-.284 2.043-.418 1.06-.485 2.356.169 3.503.177.312.307.705.307 1.065.005 4.429 1.091 8.704 1.808 13.037.615 3.728 1.201 7.461 1.836 11.184.163.974.466 1.919.697 2.864.418-.028.672-.048.884-.067.529 1.982 1.053 3.935 1.634 6.103.812-.849.841-1.703.889-2.557.087-1.492.13-2.994.293-4.481.077-.691.39-1.353.606-2.073.375.057.582.096.788.12.947.115 1.447-.178 1.207-.979-.428-1.439.216-3.128-1.048-4.376-.192-.192-.183-.633-.197-.96-.058-1.223-.202-2.456-.101-3.665.13-1.588-.192-3.028-.61-4.554-.582-2.13-.563-4.395-.159-6.607.072-.383.384-.72.582-1.08.125.01.249.015.379.025 6.494 27.027 12.992 54.055 19.519 81.193zM23.006 195.539c2.244.274 2.528-.11 1.807-2.231-.159-.46-.173-.969-.312-1.434-.13-.442-.351-.864-.515-1.296-.173-.451-.408-.897-.48-1.367-.116-.768-.231-1.564-.15-2.327.299-2.922-.889-5.667-.96-8.541-.044-1.775-.169-3.498.62-5.211.365-.791.365-1.909.134-2.778-.36-1.367.428-2.365.966-3.281 1.053-1.8.702-3.465.197-5.226-.096-.34-.168-.734-.091-1.07.346-1.564.115-3.037-.15-4.62-.45-2.735-1.263-5.489-.634-8.368 7.61 31.639 15.218 63.277 22.831 94.925l-1.144 1.368c1.187.475 2.197 1.041 1.928 2.629-.4-.062-.841-.134-1.606-.254.404.455.587.681.793.883 1.043 1.021 1.721 2.168 2.053 3.66 1.245 5.585 2.638 11.142 3.98 16.707.139.586.321 1.166.514 1.867.548-.101 1.028-.173 1.504-.283 4.922-1.166 9.834-2.356 14.76-3.493.828-.192 1.702-.168 2.433-.231.976-.369 1.855-.806 2.783-1.036 3.561-.897 7.138-1.737 10.714-2.586 1.052-.25 2.12-.442 3.369-.696a488.67 488.67 0 01-.755 2.154c.409-.038.942.048 1.034-.115.562-1.002 2.182-1.142 2.138-2.72 9.926-2.38 19.87-4.765 29.926-7.173 1.619 1.962 3.201 3.872 4.777 5.786-.125-1.161-.798-2.034-1.379-2.955-.615-.979-1.216-1.963-1.966-3.172l23.725-5.691c-.813 4.827-1.582 9.395-2.375 14.121-1.653.413-3.307.845-4.97 1.243-14.996 3.594-29.992 7.168-44.979 10.796-1.172.283-2.225.431-3.297-.749-.125.729-.183 1.07-.269 1.564-3.167.758-6.397 1.536-9.603 2.303-.976-1.233-1.894-2.327-3.581-1.324-.188.11-.61-.182-.933-.269-.697-.187-1.004-.7-1.148-1.348-.75.278-1.264-.134-1.668-.652-.462-.586-.957-1.2-1.202-1.881-.332-.921-.894-1.128-1.754-1.022-.322.038-.659-.019-1.135-.043.322 1.199-.076 2-1.312 2.298.14.662.265 1.243.4 1.9 1.278-.086 2.61-.48 3.748-.173 1.135.307 2.072 1.32 3.038 1.982-.375 1.233-1.053.556-1.653.576.254.427.485.81.85 1.429-5.82 1.512-11.52 2.812-17.245 4.165-.034-.72.072-1.022.528-1.545-.61-.331-1.206-.652-1.759-.955l-2.033.902c.11.61.245 1.329.404 2.188-.591.514-1.264.365-1.836-.355-.337-.427-.663-.887-.86-1.391-.823-2.107-.803-2.116-2.38-3.383.36-.792.74-1.631 1.226-2.692-.365.082-.534.111-.697.164-.154.048-.298.119-.567.23-.466-.729-.923-1.454-1.39-2.174-.48-.743-.975-1.477-1.465-2.216l1.235-1.401c-.437-.26-.75-.586-1.091-.619-1.149-.106-1.404-.912-1.62-1.809-.293-1.229-.663-2.385-.39-3.748.179-.878-.364-1.919-.663-2.869-.235-.748-.97-1.463.02-2.193-.308-.868.154-1.554.524-2.111-.356-.883-.625-1.66-.986-2.394-.283-.571-.716-1.065-1.024-1.626-.168-.303-.23-.672-.307-1.018-.293-1.276-.577-2.557-.86-3.833-1.375-.504-1.12-1.876-1.673-2.97 1.192-1.085 2.355-2.14 3.58-3.253-.355-.336-.812-.413-1.263.081-.572.624-1 .806-1.514-.11-.327-.581-.721-.48-1.053.139-.192.36-.365.729-.73 1.468-.41-.883-.746-1.386-.875-1.938-.49-2.02-1.875-3.388-3.442-4.534-2.23-1.637-3.59-3.825-4.23-6.415-2.485-10.091-4.888-20.205-7.31-30.31-.346-1.473-.288-2.869.745-4.05zM94.617 88.95c-.663-1.468.486-3.172-1.509-4.18.798-.268 1.197-.436 1.61-.537 13.482-3.214 26.969-6.42 40.452-9.634 1.499-.36 2.965-1.037 4.667-.336-.029-1.18.884-1.05 1.528-1.21 4.48-1.084 8.974-2.12 13.458-3.19 2.485-.595 4.961-1.247 7.45-1.823.683-.159 1.413-.125 2.12-.178.163-.01.37.058.49-.014 2.735-1.607 5.883-1.823 8.859-2.548 19.307-4.692 38.644-9.284 57.966-13.914 15.428-3.695 30.852-7.404 46.281-11.108 1.029-.245 2.048-.547 3.086-.71.73-.115 1.519-.82 2.268.115.082.101.837-.288 1.245-.504.38-.196.683-.585 1.077-.69 1.384-.39 2.793-.691 4.287-1.051l.145 1.468c2.518-2.687 5.763-2.965 8.925-3.46.327-.052.668-.033.981-.129 1.677-.523 3.345-1.075 4.974-1.603.553 1.018.399 1.828-.519 2.04-1.754.403-2.6 1.708-3.499 3.022-.149.216-.327.418-.577.734 1.298-.24 2.086-.748 2.894-1.76 1.105-1.382 2.744-2.342 4.162-3.465.169-.134.423-.144.611-.263.745-.475 1.422-1.152 2.235-1.425 1.466-.495 3.009-.749 4.686-1.147-.106.37-.168.604-.274.988.784.038 1.48.211 1.875-.782.134-.345.572-.715.937-.801 3.023-.72 6.07-1.334 9.099-2.054 2.316-.552 4.609-1.228 6.916-1.813 1.653-.418 3.321-.783 5.133-1.205-1.687 2.663-1.653 3.157.327 5.33-11.069 2.635-22.062 5.255-33.289 7.927l.586-1.262c-.461.207-.971.27-1.101.523-.726 1.416-2.143 1.392-3.379 1.699-3.451.854-6.911 1.66-10.358 2.48-.278-.498-.528-.954-.855-1.544-.351.364-.846.657-.812.887.144 1.142-.63 1.224-1.394 1.401-3.903.888-7.811 1.756-11.704 2.692-4.11.988-8.2 2.049-12.305 3.061-2.316.571-4.643 1.113-7.046 1.689-.74-1.06-1.336-2.26-2.874-2.466-.572 1.012-1.322 1.957-1.072 3.392-1.654.408-3.312.83-4.98 1.228-22.032 5.273-44.065 10.551-66.103 15.796-.807.192-1.677.096-2.764.139-.274.72-1.206.863-2.1 1.07-6.229 1.458-12.463 2.903-18.688 4.38-3.297.782-6.575 1.641-9.872 2.409-.611.144-1.327.149-1.928-.014-1.701-.461-1.687-.509-3.821.22.394.283.707.504 1.019.73-.043.09-.072.23-.13.244-.374.101-.754.221-1.139.25-1.192.091-2.393.1-3.427.84-.086.062-.211.076-.322.086-2.259.144-4.292 1.18-6.488 1.602-2.24.432-4.442 1.051-6.662 1.584-2.221.532-4.441 1.06-6.662 1.588l-6.662 1.583-6.657 1.598c-2.22.533-4.431 1.108-6.662 1.583-.643.14-1.355.72-2.023-.019-.029-.029-.23.02-.24.063-.25.983-.88.499-1.433.393-.312-.043-.644.005-1.019.005zm263.294 127.835l3.139 4.275c-.928.787-216.152 52.131-218.454 52.558-.14-1.698.442-3.282.711-4.903.115-.701.745-.739 1.283-.869 3.466-.83 6.931-1.655 10.397-2.485 4.604-1.099 9.185-2.289 13.814-3.263 2.47-.518 4.859-1.314 7.32-1.833 2.504-.527 4.984-1.175 7.474-1.77 2.437-.581 4.874-1.152 7.311-1.737 2.489-.595 4.974-1.209 7.464-1.804l122.08-29.235c11.857-2.84 23.705-5.705 35.563-8.55.596-.144 1.196-.245 1.898-.384zm-129.938-46.258c-.452.926-.755 1.497-1.014 2.092-4.965 11.362-9.935 22.719-14.857 34.1-.461 1.07-1.043 1.684-2.225 1.909-2.014.384-3.999.926-6.225 1.459-3.691-14.975-7.272-29.911-10.954-45.025 2.706-.667 5.331-1.315 8.19-2.015 2.654 10.493 5.086 20.958 7.97 31.48.25-.494.524-.979.745-1.488 4.95-11.366 9.92-22.723 14.808-34.119.572-1.329 1.313-2 2.721-2.25 1.908-.336 3.782-.873 5.869-1.377l10.939 45.04-8.224 2.005c-2.566-10.56-5.109-20.991-7.743-31.811z" fill="#00040E"/><path d="M57.593 107.61c-.452.773-.39 1.588-.216 2.418.283 1.353.596 2.697 0 4.069-.163.374-.221 1.037-.005 1.281.928 1.051.428 2.179.476 3.397-3.105.749-6.123 1.478-9.204 2.217-1.221-1.363-2.807-2.097-4.62-2.888-.288 1.429-.543 2.715-.836 4.164-1.581.389-3.249.802-4.912 1.209-.97.24-1.937.552-2.922.691-.875.12-1.812-.1-2.654.101-.884.211-1.653.888-2.537 1.118-3.067.806-6.167 1.507-9.248 2.25-.644.154-1.283.322-2.134.538 1.346 6.256 2.994 12.374 4.105 18.655-.15-.207-.322-.399-.438-.624-.283-.542-.442-1.171-.817-1.636-1.797-2.246-2.321-4.88-2.47-7.648-.044-.826-.058-1.665-.77-2.371-1.11.519-1.167 1.541-1.215 2.495-.145 2.611-.236 5.225-.332 7.836-.043 1.166-.091 2.336-.043 3.502.062 1.603.269 3.201.307 4.803.053 2.054.063 4.117-.024 6.166-.192 4.5-.456 8.996-.697 13.497-.01.144-.077.278-.264.441-4.552-18.228-8.93-36.489-13.348-54.9 17.991-4.308 35.828-8.583 53.8-12.892.158.629.22 1.118.413 1.555.105.239.427.388.653.58l-.048-.024zm357.361 51.339c-2.744.677-5.498 1.329-8.238 2.034-.875.226-1.355-.297-1.894-.772-4.167-3.69-8.334-7.379-12.497-11.069a1031.764 1031.764 0 01-3.494-3.105c-.413-.369-.783-.705-1.466-.523-2.365.629-4.749 1.181-7.128 1.766-.149.039-.279.159-.533.312 1.49 6.18 2.989 12.374 4.532 18.775l-8.195 2.01c-3.701-14.989-7.272-29.925-10.968-45.044 2.749-.677 5.364-1.315 8.219-2.015l4.585 18.746c.577-.091 1.062-.134 1.529-.245 1.946-.46 3.878-1.012 5.844-1.391 1.019-.197 1.481-.706 1.832-1.636 2.379-6.348 4.849-12.663 7.19-19.025.486-1.319 1.202-1.919 2.557-2.173 2.221-.413 4.408-1.022 6.859-1.608-.226.691-.346 1.152-.519 1.588-2.874 7.289-5.758 14.577-8.637 21.861-.121.311-.207.642-.375.926-.491.839-.193 1.405.49 2 2.312 2.006 4.576 4.069 6.854 6.108 4.23 3.786 8.455 7.576 12.689 11.357.284.255.63.447.947.667-.058.154-.12.303-.183.456zm-161.545 9.347l1.105.556c-.245-.792-.423-1.353-.596-1.905.207-.076.385-.144.596-.22-.014-.164.024-.36-.052-.475-.861-1.296-.64-2.644-.236-4.007 2.797-9.466 9.315-14.951 18.702-17.282 5.806-1.445 11.492-1.142 16.909 1.612.875.446 1.692 1.002 2.639 1.569-1.432 2.192-2.759 4.227-4.158 6.372-5.364-3.369-10.877-3.714-16.515-1.253-5.729 2.5-8.935 6.938-9.69 13.324-.259-.244-.403-.369-.533-.508-.106-.11-.192-.235-.298-.365-.082.115-.178.183-.183.259-.019.322.116.739-.043.955-.404.566-.144 1.003.226 1.31.75.629.947 1.439 1.101 2.337.418 2.485 1.182 4.851 2.648 6.947.25.36.389.797.591 1.19.245.485.409 1.013 1.11 1.104.279.033.534.369.774.6 6.749 6.429 19.592 5.028 24.97-3.225.303-.46.62-.916 1.014-1.502l6.542 3.776c-1.317 2.716-3.115 4.885-5.35 6.675-5.301 4.241-11.425 6.189-18.168 5.949-12.026-.427-20.774-8.473-22.663-20.056-.187-1.146-.274-2.308-.442-3.737zm98.802-20.632c1.168 1.027.716 2.097-.053 3.157-.779 1.07-1.505 2.184-2.336 3.21-.548.682-.947 1.373-.904 2.255.053 1.118-.327 2.02-1.076 2.86-.563.629-.938 1.425-1.399 2.145l-.298-.139c.178-.85.394-1.694.524-2.553 1.182-7.715-2.85-16.217-11.041-18.727-8.199-2.509-17.428 1.737-20.48 9.462-3.24 8.205.942 19.922 11.382 22.162 1.821.389 3.725.375 5.657.557-.183.902-.899 1.497-1.745 2.154.721.331.87.763.447 1.425-.577.902-1.36 1.684-1.298 2.946.039.754-.639.969-1.451.941-10.3-.355-18.981-7.212-21.749-17.221-3.543-12.82 3.244-25.122 16.222-29.292 6.065-1.948 12.145-2.101 18.163.25 4.893 1.914 8.705 5.143 11.31 9.692 1.624 2.835 1.49 2.288.125 4.716zm16.02-43.605c-2.625-10.8-5.191-21.366-7.801-32.118 1.99-.49 3.85-.945 5.859-1.435 1.831 7.51 3.624 14.87 5.421 22.234l.351.072c.265-.57.543-1.137.793-1.713 3.375-7.749 6.768-15.488 10.08-23.266.495-1.165 1.158-1.765 2.379-1.962 1.249-.201 2.48-.556 3.883-.883 2.606 10.724 5.187 21.337 7.801 32.119-1.99.484-3.854.935-5.859 1.425-1.836-7.524-3.638-14.889-5.436-22.254h-.332c-.274.595-.552 1.19-.817 1.79-3.383 7.744-6.777 15.483-10.122 23.247-.433.998-.947 1.645-2.105 1.813-1.308.183-2.586.576-4.095.931zm-247.418 85.708c-1.365 2.087-2.697 4.117-4.105 6.271-5.08-3.215-10.392-3.67-15.866-1.526-5.542 2.174-8.979 6.209-10.238 12.446l-3.523-4.918c-.087.039-.168.082-.255.12.12.307.197.639.37.912.793 1.276 1.582 2.557 2.437 3.786.625.897.952 1.813.947 2.936-.005 2.596.649 5.067 1.793 7.394 1.793 3.646 4.552 6.29 8.382 7.725.894.336 1.5.835 1.99 1.631 1.197 1.939 2.466 3.839 3.696 5.758.226.355.404.744.683 1.267-2.052.316-3.922.067-5.758-.264-9.897-1.785-17.087-9.002-19.02-18.871-.547-2.788-.004-5.369.986-7.917.461-1.185.961-2.37 1.605-3.459.37-.629 1.072-1.066 1.61-1.598.303-.302.669-.581.856-.95.533-1.027.99-2.097 1.514-3.224.529-.087 1.346.475 1.591-.519.024-.086.154-.206.24-.211 2.173-.139 2.077-2.159 2.826-3.454.14-.245-.148-.706-.139-1.066.01-.287.135-.796.264-.815 1.058-.154 1.192-1.056 1.529-1.776.293-.623.62-1.132 1.312-1.415 6.124-2.5 12.362-3.234 18.76-1.171 1.956.624 3.811 1.493 5.513 2.908zm12.722-10.421c8.7-2.106 17.188-4.16 25.725-6.228.403.48.778.931 1.153 1.382.077-.038.149-.077.226-.11-.096-.451-.197-.897-.293-1.344 1.725-.676 1.98-.556 2.144 1.066-.303-.048-.596-.096-.976-.159-.202.941.346 1.478.803 2.078.495.648 1.014 1.31 1.331 2.049.442 1.031.24 1.357-.884 1.645-2.264.581-4.538 1.118-6.811 1.67-3.735.902-7.465 1.799-11.199 2.701-.37.092-.726.235-1.226.403.5 2.097.971 4.136 1.466 6.171 2.004 8.262 4.004 16.524 6.032 24.782.207.839.173 1.588-.062 2.432-.462 1.651-.741 3.359-1.13 5.206-1.668.413-3.379.83-5.311 1.305-1.947-7.523-3.682-15.022-5.513-22.498-1.826-7.432-3.614-14.879-5.475-22.551zM442.548.867c.178.533.346.936.447 1.353.293 1.18.558 2.366.88 3.748-30.882 7.403-61.648 14.773-92.501 22.167-.716-1.699-2.413-2.73-2.581-4.803 31.266-7.49 62.475-14.97 93.755-22.465zm-174.672 127.49c-2.042.494-3.869.936-5.941 1.439-1.129-4.577-2.235-9.073-3.393-13.76-5.571 1.343-11.012 2.658-16.659 4.02 1.101 4.597 2.182 9.097 3.263 13.598-1.72 1.252-1.86-.715-2.922-1.372.202.744.346 1.266.505 1.833l-3.052 1.065c-.904-1.464-7.508-27.704-8.104-32.051 1.846-.461 3.715-.922 5.806-1.44 1.091 4.434 2.158 8.771 3.269 13.277l16.659-4.026c-1.062-4.433-2.101-8.771-3.182-13.272 1.99-.489 3.855-.95 5.936-1.463 2.605 10.709 5.181 21.313 7.815 32.152zm168.828 70.844c.442-1.238 1.346-1.67 2.379-1.92 2.11-.508 4.215-1.026 6.33-1.521.26-.062.543-.009.894-.009.255 1.55-1.254 1.334-1.942 2.02.865.11 1.668.216 2.447.316.509-1.089 1.086-1.952 2.225-2.259.154-.044.399-.13.423-.236.255-1.218 1.317-1.108 2.163-1.309 7.085-1.718 14.17-3.417 21.259-5.12.322-.077.654-.106 1.033-.168l1.899 4.808c-.211.067-.558.206-.918.292-4.787 1.157-9.555 2.423-14.376 3.398-1.606.326-3.153.758-4.725 1.17-4.412 1.161-8.839 2.299-13.314 3.162-4.076.787-8.007 2.102-12.059 2.961-4.023.854-8.003 1.914-12.007 2.874-4.057.974-8.118 1.933-12.179 2.902-2.38.571-4.759 1.162-7.143 1.713-.697.164-1.418.235-2.134.317-.678.072-1.504-.369-1.908.614-.039.101-.303.154-.462.149-2.749-.082-5.104 1.439-7.733 1.89-1.058.183-1.716.015-2.254-.834-.294-.471-.644-.922-.832-1.435-.485-1.3.135-2.495 1.48-2.817 6.167-1.487 12.344-2.946 18.51-4.419.755-.182 1.529-.595 2.259-.518 1.399.139 2.596-.197 3.749-.902.092-.057.212-.062.322-.086 3.922-.72 7.715-1.963 11.608-2.807 3.86-.835 7.695-1.795 11.521-2.764 1.216-.297 2.36-.619 3.485.538zm-294.31 69.255c-.317 1.986-.591 3.723-.88 5.532-3.052.739-6.018 1.459-8.988 2.174-9.522 2.284-19.048 4.553-28.57 6.851-1.783.432-3.604.653-5.364 1.234-1.788.59-3.667.906-5.508 1.348l-5.681 1.367-5.518 1.325c-1.84.441-3.672.906-5.523 1.295-.557.115-1.192.13-1.735-.01-1.062-.278-1.956-.34-2.307 1.037-.817-.61-1.509-1.128-2.244-1.68-.745.893-2.005 1.205-1.774 2.591-7.272 1.752-14.434 3.474-21.951 5.283.505-.969.85-1.626 1.34-2.562-.975.168-1.59.278-2.32.403-.222-.955-.414-1.799-.65-2.826 1.005-.254 1.899-.48 2.625-.667.783.533 1.49.897 2.047 1.42.529.494.635 1.401 1.442 1.713.673-1.315.673-1.315.322-4.006.832-.221 1.673-.523 2.533-.643.784-.111 1.591-.024 2.6-.024l.74 2.658c.457.105 1.217.288 2.005.47.11-.585.183-.959.274-1.458h3.062c-.11-.835-.193-1.474-.293-2.246.423-.091.874-.187 1.441-.312-.057-.379-.12-.782-.206-1.319.47-.125.923-.24 1.567-.408v1.766c.764.201 1.543.407 2.336.618.567-1.42-1.077-1.569-1.495-2.533 1.163-.465 2.23-.892 3.235-.201.557-.408.956-.893 1.442-1.018 4.643-1.151 9.3-2.24 13.78-3.305l1.84 1.463c.698-1.06 1.125-2.241 2.375-2.466.663-.12 1.365-.019 1.701-.019 1.077-.428 1.851-.84 2.673-1.037 13.088-3.157 26.181-6.285 39.274-9.423 3.028-.725 6.061-1.454 9.089-2.174.326-.067.653-.105 1.264-.211zm45.589-130.474c.726 3.057 1.442 6.051 2.187 9.179-2.057.494-3.927.945-5.95 1.43-2.61-10.758-5.187-21.361-7.739-31.884.231-.201.303-.316.399-.335 5.033-1.2 10.05-2.433 15.097-3.556 2.029-.451 4.105-.297 6.129.192 4.503 1.08 7.69 4.793 8.295 9.587.596 4.731-1.158 8.358-5.09 10.983-1.73 1.151-3.638 1.909-5.647 2.418-2.211.556-4.427 1.084-6.643 1.631-.307.072-.605.202-1.038.355zm-1.25-5.076c3.187-.849 6.153-1.579 9.07-2.462.928-.278 1.798-.892 2.567-1.506 1.326-1.056 1.98-2.495 1.999-4.218.044-4.179-2.547-6.861-6.724-6.765-3.422.077-6.594 1.377-10.036 2.068 1.043 4.313 2.048 8.445 3.124 12.883zm-56.35 0c.696 2.845 1.345 5.513 2.037 8.329 2.548-.609 4.908-1.2 7.287-1.737.745-.168 1.524-.182 2.283-.273.212-.024.433-.044.635-.116 1.071-.398 2.143-.81 3.124-1.185.557.562.976.989 1.394 1.411.12-.077.24-.158.36-.235-.144-.408-.283-.816-.437-1.252.538-.36.903-.26 1.072.393.326 1.291.644 2.581.99 3.973-1.139.422-2.154 1.223-3.379.216-.096.249-.192.494-.308.801-.264-.211-.509-.403-.759-.6-.553.826-1.341 1.185-2.264 1.396-2.278.523-4.547 1.09-6.816 1.651-.586.144-1.168.312-1.97.528.716 2.955 1.418 5.834 2.143 8.828 3.101-.743 6.013-1.434 8.921-2.135 1.029-.245 2.048-.542 3.086-.744.63-.124 1.288-.11 1.86-.158.49 1.449.918 2.716 1.346 3.987-.125.091-.245.183-.37.274-.25-.461-.495-.921-.745-1.382-.245 1.674-.664 2.183-2.163 2.548a7692.03 7692.03 0 01-15.41 3.742c-.37.091-.754.125-1.312.211-2.591-10.661-5.167-21.27-7.786-32.056 7.858-1.904 15.573-3.771 23.474-5.69.414 1.622.803 3.157 1.245 4.913-5.772 1.593-11.574 2.783-17.538 4.362zm169.682-34.878c.938-.216 1.74-.398 2.538-.58a5458.22 5458.22 0 018.623-1.968c.163-.038.327-.067.495-.09 6.479-.889 11.127 2.619 12.035 9.087.702 4.994-1.139 8.651-5.589 11.074-.587.316-1.183.657-1.817.834-3.903 1.09-7.816 2.136-11.824 3.22-.534-1.18-.971-2.193-1.447-3.181-.433-.902-.86-1.809-1.379-2.663a2.63 2.63 0 00-1.067-.969c-1.471-.686-2.384-1.747-2.606-3.378a2.33 2.33 0 00-.283-.773c-2.61-4.793-3.884-10.028-5.071-15.296-.341-1.511-.711-3.018-1.11-4.702 1.024-.269 1.97-.523 2.922-.763.909-.23 1.817-.446 2.894-.705.903 3.651 1.778 7.178 2.686 10.853zm4.038 16.717c2.667-.643 5.09-1.219 7.512-1.809.539-.13 1.077-.279 1.596-.475.567-.221 1.134-.466 1.654-.778 3.455-2.068 3.97-7.35.951-10.018-.524-.461-1.206-.888-1.87-1.012-1.124-.207-2.34-.375-3.446-.178-2.672.48-5.306 1.176-7.954 1.799-.414.096-.813.264-1.356.442.966 4.001 1.918 7.912 2.913 12.029zM75.478 88.835c-.39 2.025-.726 3.795-1.081 5.666a309809.02 309809.02 0 01-39.442 9.457c-.356-.791-.582-1.544-1.005-2.163-.384-.562-.976-.984-1.562-1.545-1.072 1.444-2.052 2.643-1.067 4.519-6.075 1.608-12.074 2.908-18.178 4.41-.375-1.339.303-2.62.163-4.021-.75.345-1.326.624-1.163 1.651.087.556-.158 1.175-.303 1.751-.197.768-.701 1.233-1.514 1.315-1.302.129-2.49.95-3.898.599-.307-.076-.72.446-1.12.557-1.22.336-2.456.609-3.686.907-.793-1.464-.827-2.946-.846-4.419-.005-.269.24-.72.452-.778 2.225-.609 4.47-1.156 7.022-1.799a810.17 810.17 0 00-1.091 3.042c1.178-.643 1.961-1.468 2.403-2.6.216-.552.52-.917 1.144-1.056 1.952-.427 3.893-.907 6.128-1.435l-.35 2.035c1.398-.245 1.47-1.382 1.87-2.414 18.889-4.515 37.85-9.058 57.124-13.679zm10.459 49.511c1.97-.475 3.83-.931 5.84-1.415 2.61 10.757 5.186 21.365 7.8 32.132-1.45.355-2.715.663-3.998.974-.471-1.434-.02-2.663.206-3.905.11-.595.274-1.209.236-1.8-.096-1.415-1.014-1.933-2.322-1.343-.5.226-.942.561-1.58.955-.462-1.775-.914-3.503-1.424-5.456-.639.365-1.148.648-1.653.941-3.83 2.231-7.897 3.565-12.396 3.296-1.701-.101-3.278-.561-4.744-1.43-.88-.518-1.745-1.017-1.63-2.053-.408-.048-.817.014-.908-.125-.413-.643-.827-1.31-1.062-2.03-.274-.834-.317-1.741-.548-2.591-.144-.527.005-1.266-.88-1.415-.182-.029-.331-.528-.413-.83-.221-.801-.365-1.627-.596-2.428-.178-.614-.005-1.094.168-1.698.423-1.512.5-3.119-.36-4.674.697-.499 1.322-.772 1.725.067.36-.287.726-.782 1.163-.849.28-.043.659.533 1.02.854.048-.331.11-.763.177-1.214.818.087.726.72.832 1.137.682 2.692 1.317 5.398 1.98 8.095.135.537.274 1.079.48 1.593 1.111 2.787 3.409 4.299 6.408 4.112 3.422-.216 6.47-1.507 9.286-3.421.716-.49.634-1.041.466-1.737-1-4.045-1.97-8.095-2.941-12.144-.13-.485-.207-.965-.332-1.598zm244.909-25.237c-2.62-10.786-5.191-21.385-7.801-32.133 2.014-.49 3.879-.94 5.869-1.42 2.61 10.757 5.186 21.365 7.805 32.142-2.009.48-3.869.926-5.873 1.411zM167.83 181.068c.173.394.322.802.524 1.181.49.911.908 1.885 1.533 2.696.875 1.128 1.87 2.179 2.903 3.172.726.695 1.067 1.492 1.264 2.447.149.734.514 1.43.822 2.125.264.61.625 1.181.87 1.795 2.62 6.492 5.22 12.988 7.83 19.48.081.206.13.422.259.84-2.499.638-4.97 1.271-7.661 1.962-2.903-11.957-5.773-23.779-8.642-35.606.096-.029.197-.063.298-.092z" fill="#00040E"/><path d="M109.085 233.339c-1.408-2.385-2.807-4.75-4.34-7.351 7.44.183 13.261-2.226 17.091-8.795 2.207 1.272 4.341 2.5 6.456 3.724-2.091 6.016-11.334 12.024-19.207 12.422zm-51.458-125.7c-.548-1.895-.356-2.27 1.456-2.721 1.832-.456 3.668-.907 5.508-1.324.645-.144 1.27-.557 1.933.211.36.418 2.1-.048 2.48-.456 1.105-1.18 1.105-1.18 2.87-1.343-1.072 4.472-.789 9.001-.866 13.622-3.513.825-6.95 1.631-10.579 2.48-.654-3.958-1.149-7.84-2.187-11.76-.288.561-.466.907-.644 1.257-.005.005.029.034.029.034zm310.632-46.954c1.37 2.466 2.529 3.013 5.023 2.514 2.533-.509 3.504-1.66 3.783-4.63 1.216-.298 2.48-.61 3.725-.917.995 2.438.173 5.005-2.081 6.66-1.788 1.31-3.855 1.972-6.023 2.231-1.144.134-2.336.158-3.475.005-2.571-.35-4.311-2.164-4.816-4.913a469.56 469.56 0 013.864-.95zM177.755 187.474c-.658.22-1.057.35-1.538.513-.586-1.223-1.168-2.404-1.711-3.603-.159-.346-.236-.739-.284-1.118-.149-1.166-.202-2.347-.432-3.493-.063-.303-.63-.504-.942-.734-.798-1.003-1.601-2.02-2.476-3.124.303-.384 1.067-.696.505-1.396-.308-.379-.303-.859-1.053-1.051-.951-.245-1.658-1.171-1.898-2.365 1.778-.461 3.576-.926 5.522-1.435 1.452 6.002 2.865 11.851 4.307 17.806zm-10.651-8.138c-.404-.432-.115-.969.139-1.526.481-1.051.481-1.991-.836-2.658-.115.091-.308.24-.567.442-.207-.274-.365-.619-.635-.787-.149-.092-.49.115-.778.196l-1.202-2.835c.788-.183 1.471-.341 2.225-.514 2.442 3.186 3.822 6.818 5.211 10.599-.976-.619-.957-.628-1.399-1.526-.211-.431-.447-.902-.803-1.199-.23-.192-.692-.115-1.355-.192zM87.36 111.707c.13-1.727.134-3.142.38-4.515.187-1.074.816-1.933 2.234-1.938.293 1.828.462 3.709 2.014 5.34-1.63.389-2.95.705-4.628 1.113zm396.682 74.812c1.063-.259 2-.485 3.072-.744.428 1.747.817 3.345 1.245 5.106-.995.23-1.841.422-2.692.619-.115-.965-.096-1.857-.351-2.663-.245-.768-.778-1.445-1.274-2.318zM42.934 285.436l-1.591-6.655.297-.125c.15.226.351.437.443.686a443.434 443.434 0 011.807 4.995c.26.739.096 1.195-.956 1.099zm109.77-63.085c-.606.158-.966.249-1.567.403.154-1.305.288-2.462.423-3.623.101-.009.202-.019.298-.033.269 1.031.533 2.063.846 3.253zm25.738-28.779c.241.172.625.292.702.518.471 1.382.875 2.788 1.298 4.189-.144.057-.289.115-.438.168-.225-.533-.499-1.051-.663-1.603-.322-1.089-.581-2.202-.865-3.301l-.034.029z" fill="#00040E"/><path d="M178.476 193.543c-.538-1.233-1.081-2.461-1.663-3.795 1.586.912 2.043 2.039 1.639 3.819-.01.005.024-.024.024-.024zM64.692 144.968l-.216-1.344c.144-.019.284-.034.428-.053.048.451.096.907.149 1.358-.12.01-.24.024-.36.039z" fill="#00040E"/></svg>