<svg width="20" height="20" fill="none" xmlns="http://www.w3.org/2000/svg"><g clip-path="url(#clip0_371_1420)" fill="#fff"><path d="M17.76 14.155a10.583 10.583 0 00-3.524-2.332A11.26 11.26 0 0010 11c-1.458 0-2.9.28-4.236.823a10.584 10.584 0 00-3.524 2.332.83.83 0 00-.24.571v3.428c.003.226.102.44.275.599a.96.96 0 00.648.247h14.154a.96.96 0 00.653-.251.827.827 0 00.27-.606v-3.428a.83.83 0 00-.24-.56zM10 9a4 4 0 100-8 4 4 0 000 8z"/></g><defs><clipPath id="clip0_371_1420"><path fill="#fff" d="M0 0h20v20H0z"/></clipPath></defs></svg>