<svg width="20" height="20" fill="none" xmlns="http://www.w3.org/2000/svg"><g clip-path="url(#clip0_382_1462)"><path d="M16.55 2a1.6 1.6 0 01.55.095 1.4 1.4 0 01.656.434c.163.197.244.416.244.656v13.63c0 .24-.081.459-.244.656a1.399 1.399 0 01-.656.434 1.636 1.636 0 01-.55.084c-.4 0-.746-.112-1.038-.338L10 13.167l-5.513 4.484c-.3.233-.645.35-1.037.35a1.6 1.6 0 01-.55-.096 1.399 1.399 0 01-.656-.434A1.007 1.007 0 012 16.816V3.185c0-.24.081-.459.244-.656a1.4 1.4 0 01.656-.434A1.61 1.61 0 013.45 2h13.1z" fill="#fff"/></g><defs><clipPath id="clip0_382_1462"><path fill="#fff" d="M0 0h20v20H0z"/></clipPath></defs></svg>