<svg width="20" height="20" fill="none" xmlns="http://www.w3.org/2000/svg"><g clip-path="url(#clip0_884_9728)"><g clip-path="url(#clip1_884_9728)"><path d="M16.174 2.331h-.414v1.14a.685.685 0 01-1.37 0v-1.14h-1.168v1.14a.685.685 0 01-1.369 0v-1.14h-1.169v1.14a.684.684 0 11-1.369 0v-1.14H8.146v1.14a.684.684 0 11-1.368 0v-1.14h-1.17v1.14a.684.684 0 11-1.368 0v-1.14h-.415A1.827 1.827 0 002 4.157v11.686c0 1.007.818 1.826 1.825 1.826h12.35A1.827 1.827 0 0018 15.843V4.157a1.828 1.828 0 00-1.826-1.826zM6.552 13.107a.848.848 0 110-1.695.848.848 0 010 1.695zm0-2.26a.848.848 0 110-1.694.848.848 0 010 1.695zm0-2.258a.847.847 0 110-1.695.847.847 0 010 1.695zm7.177 4.235H9.093a.565.565 0 110-1.13h4.636a.564.564 0 110 1.13zm0-2.259H9.093a.565.565 0 110-1.13h4.636a.564.564 0 110 1.13zm0-2.259H9.093a.565.565 0 110-1.13h4.636a.564.564 0 110 1.13z" fill="#fff"/></g></g><defs><clipPath id="clip0_884_9728"><path fill="#fff" d="M0 0h20v20H0z"/></clipPath><clipPath id="clip1_884_9728"><path fill="#fff" transform="translate(2 2)" d="M0 0h16v16H0z"/></clipPath></defs></svg>