<svg width="10" height="17" fill="none" xmlns="http://www.w3.org/2000/svg"><path d="M10 11.877c-.178 2.024-1.82 3.46-4.32 3.646V17H4.425v-1.477C1.694 15.306 0 13.777 0 11.516c0-1.93 1.14-3.048 3.556-3.677l.869-.227V2.996c-1.35.133-2.26.867-2.49 1.962H.166c.2-1.943 1.853-3.337 4.259-3.491V0H5.68v1.497c2.333.28 3.934 1.788 3.934 3.833 0 1.765-1.162 3.015-3.202 3.542l-.733.196v4.895c1.382-.206 2.334-.971 2.563-2.086H10zM5.92 7.219c1.255-.32 1.925-1.002 1.925-1.962 0-1.147-.847-1.993-2.165-2.22V7.28l.24-.06v-.002zM4.006 9.492c-1.548.392-2.228 1.043-2.228 2.148 0 1.332.994 2.22 2.647 2.355V9.386l-.419.105v.001z" fill="#FE8744"/></svg>