<svg width="13" height="12" fill="none" xmlns="http://www.w3.org/2000/svg"><path d="M11.42 1.015h-9.6v9.85l3.966-3.22.835-.673.834.674 3.966 3.22v-9.85zM11.534 0a1.2 1.2 0 01.413.071c.206.07.37.178.492.326a.755.755 0 01.183.491v10.224c0 .18-.061.343-.183.491a1.049 1.049 0 01-.492.326 1.227 1.227 0 01-.413.063c-.3 0-.56-.085-.778-.254L6.621 8.375l-4.135 3.363a1.234 1.234 0 01-.778.262 1.2 1.2 0 01-.412-.071 1.049 1.049 0 01-.493-.326.755.755 0 01-.182-.491V.888c0-.18.06-.343.182-.491A1.05 1.05 0 011.296.07 1.2 1.2 0 011.708 0h9.825z" fill="#EA4AAA"/></svg>