<svg width="21" height="32" fill="none" xmlns="http://www.w3.org/2000/svg"><path d="M15.033 14.222H21v-3.555h-2.94c.735-1.174 1.19-2.347 1.19-3.556C19.25 2.436 14.875 0 10.5 0 6.388 0 2.678 3.662 2.258 4.071l2.484 2.525c.84-.854 3.5-3.04 5.758-3.04 1.82 0 5.25.746 5.25 3.555 0 .889-.875 2.205-2.17 3.556H0v3.555h9.852c-.735.64-3.29 2.97-3.885 3.556H0v3.555h2.94c-.735 1.174-1.19 2.347-1.19 3.556C1.75 29.564 6.125 32 10.5 32c4.113 0 7.823-3.662 8.242-4.071l-2.485-2.525c-.822.854-3.5 3.04-5.757 3.04-1.82 0-5.25-.746-5.25-3.555 0-.889.875-2.205 2.17-3.556H21v-3.555h-9.835l3.868-3.556z" fill="#343C66"/></svg>