<svg width="27" height="41" fill="none" xmlns="http://www.w3.org/2000/svg"><path d="M19.328 18.222H27v-4.555h-3.78c.945-1.504 1.53-3.007 1.53-4.556C24.75 3.121 19.125 0 13.5 0 8.213 0 3.442 4.692 2.902 5.216l3.196 3.235c1.08-1.094 4.5-3.895 7.402-3.895 2.34 0 6.75.956 6.75 4.555 0 1.139-1.125 2.825-2.79 4.556H0v4.555h12.668c-.945.82-4.23 3.804-4.995 4.556H0v4.555h3.78c-.945 1.504-1.53 3.007-1.53 4.556C2.25 37.879 7.875 41 13.5 41c5.288 0 10.058-4.692 10.598-5.216l-3.195-3.235c-1.058 1.094-4.5 3.895-7.403 3.895-2.34 0-6.75-.956-6.75-4.555 0-1.139 1.125-2.825 2.79-4.556H27v-4.555H14.355l4.973-4.556z" fill="#00040E"/></svg>