<svg width="16" height="16" fill="none" xmlns="http://www.w3.org/2000/svg"><g clip-path="url(#clip0_173_1416)" fill="#fff"><path d="M10.822.5H4.759A4.474 4.474 0 00.291 4.969v6.062A4.474 4.474 0 004.759 15.5h6.063a4.474 4.474 0 004.469-4.469V4.97A4.474 4.474 0 0010.82.5zm2.96 10.531a2.96 2.96 0 01-2.96 2.96H4.759a2.96 2.96 0 01-2.96-2.96V4.97a2.96 2.96 0 012.96-2.96h6.063a2.96 2.96 0 012.96 2.96v6.062z"/><path d="M7.79 4.12A3.883 3.883 0 003.912 8c0 2.139 1.74 3.88 3.88 3.88A3.885 3.885 0 0011.672 8c0-2.14-1.741-3.88-3.88-3.88zm0 6.25a2.37 2.37 0 110-4.74 2.37 2.37 0 010 4.74zm3.888-5.29a.93.93 0 100-1.86.93.93 0 000 1.86z"/></g><defs><clipPath id="clip0_173_1416"><path fill="#fff" transform="translate(.29 .5)" d="M0 0h15v15H0z"/></clipPath></defs></svg>