<svg width="98" height="20" fill="none" xmlns="http://www.w3.org/2000/svg"><path d="M.58 19V.818h3.844v15.013h7.795V19H.58zm39.56-9.09c0 1.982-.376 3.669-1.128 5.06-.745 1.39-1.763 2.453-3.053 3.187-1.285.728-2.729 1.092-4.333 1.092-1.616 0-3.066-.367-4.35-1.101-1.284-.734-2.3-1.797-3.045-3.187-.746-1.391-1.119-3.075-1.119-5.052 0-1.983.373-3.67 1.119-5.06.746-1.391 1.76-2.45 3.045-3.179C28.56.937 30.01.57 31.626.57c1.604 0 3.048.367 4.332 1.1 1.29.728 2.309 1.788 3.054 3.179.752 1.39 1.128 3.077 1.128 5.06zm-3.898 0c0-1.285-.192-2.368-.576-3.25-.38-.882-.915-1.55-1.607-2.007-.693-.455-1.504-.683-2.433-.683-.93 0-1.74.228-2.433.683-.692.456-1.23 1.125-1.615 2.007-.379.882-.568 1.965-.568 3.25 0 1.283.189 2.367.568 3.248.384.882.923 1.551 1.616 2.007.692.456 1.503.683 2.432.683.93 0 1.74-.228 2.433-.683.692-.456 1.228-1.125 1.607-2.007.384-.881.577-1.965.577-3.249zM64.42 6.694a3.986 3.986 0 00-.524-1.145 3.234 3.234 0 00-.826-.852 3.541 3.541 0 00-1.1-.542 4.653 4.653 0 00-1.359-.186c-.93 0-1.746.23-2.45.692-.699.462-1.243 1.134-1.634 2.016-.39.875-.586 1.947-.586 3.213 0 1.267.193 2.344.577 3.232.385.888.93 1.565 1.634 2.033.704.461 1.536.692 2.494.692.87 0 1.613-.154 2.229-.461a3.309 3.309 0 001.42-1.323c.332-.568.498-1.24.498-2.015l.78.115h-4.687V9.27h7.608v2.29c0 1.598-.337 2.971-1.012 4.12a6.898 6.898 0 01-2.787 2.645c-1.184.616-2.54.924-4.066.924-1.705 0-3.202-.376-4.492-1.128-1.29-.758-2.297-1.832-3.019-3.223-.716-1.396-1.074-3.053-1.074-4.971 0-1.474.213-2.788.64-3.942.431-1.16 1.035-2.142 1.81-2.947A7.826 7.826 0 0157.201 1.2c1.03-.42 2.145-.63 3.347-.63 1.03 0 1.988.15 2.876.452a7.663 7.663 0 012.362 1.261 6.825 6.825 0 011.695 1.944c.438.746.72 1.569.844 2.468h-3.906zM97.464 9.91c0 1.983-.376 3.67-1.127 5.06-.746 1.391-1.764 2.454-3.054 3.188-1.285.728-2.729 1.092-4.333 1.092-1.615 0-3.066-.367-4.35-1.101-1.284-.734-2.3-1.797-3.045-3.187-.746-1.391-1.119-3.075-1.119-5.052 0-1.983.373-3.67 1.119-5.06.746-1.391 1.76-2.45 3.045-3.179 1.285-.733 2.735-1.1 4.35-1.1 1.604 0 3.048.367 4.333 1.1 1.29.728 2.308 1.788 3.054 3.179.751 1.39 1.127 3.077 1.127 5.06zm-3.897 0c0-1.284-.193-2.367-.577-3.25-.38-.881-.915-1.55-1.607-2.006-.693-.455-1.504-.683-2.433-.683-.929 0-1.74.228-2.432.683-.693.456-1.231 1.125-1.616 2.007-.379.882-.568 1.965-.568 3.25 0 1.283.19 2.367.568 3.248.385.882.923 1.551 1.616 2.007.692.456 1.503.683 2.432.683.93 0 1.74-.228 2.433-.683.692-.456 1.228-1.125 1.607-2.007.384-.881.577-1.965.577-3.249z" fill="#fff"/></svg>