<svg width="31" height="30" fill="none" xmlns="http://www.w3.org/2000/svg"><g clip-path="url(#clip0_173_1421)"><path d="M1.686 5.85c-.77 0-1.395.625-1.395 1.396v16.048c0 .77.625 1.396 1.395 1.396h27.209c.77 0 1.396-.625 1.396-1.396V7.246c0-.771-.626-1.396-1.396-1.396H1.686zm8.442 2.268a7.18 7.18 0 014.52 1.59 7.385 7.385 0 00-2.196 3.535h.599a6.929 6.929 0 011.838-2.964 6.93 6.93 0 011.839 2.964h.608a7.386 7.386 0 00-2.201-3.514 7.186 7.186 0 0111.722 5.575 7.186 7.186 0 01-11.784 5.525 7.382 7.382 0 002.312-3.748h-.586a6.922 6.922 0 01-1.91 3.208 6.922 6.922 0 01-1.909-3.208h-.557a7.381 7.381 0 002.286 3.7 7.178 7.178 0 01-4.581 1.641c-3.969 0-7.186-3.202-7.186-7.152s3.217-7.152 7.186-7.152zm9.003 5.052c-.863 0-1.703.755-1.703 2.172 0 .94.454 1.56 1.346 1.56.253 0 .655-.103.655-.103l.133-.821s-.367.185-.619.185c-.53 0-.743-.408-.743-.846 0-.89.456-1.38.964-1.38.381 0 .688.216.688.216l.121-.798s-.453-.185-.842-.185zm7.26.07l-.751.001-.162.988s-.282-.383-.723-.383c-.687 0-1.258.815-1.258 1.753 0 .605.304 1.199.928 1.199.448 0 .697-.308.697-.308l-.033.263h.73l.572-3.514zm-21.509.01l-.598 3.522h.721l.456-2.656.067 2.656h.516l.962-2.656-.427 2.656h.766l.59-3.522H6.752l-.738 2.16-.038-2.16H4.882zm7.532.228c-.016.017-.436 2.437-.436 2.731 0 .437.245.631.59.628.246-.002.437-.064.525-.09l.027-.007.093-.63c-.05 0-.125.021-.19.021-.257 0-.286-.136-.27-.238l.208-1.285h.39l.095-.697h-.368l.075-.433h-.739zm8.714.355c-.503 0-.888.166-.888.166l-.107.646s.318-.132.8-.132c.273 0 .473.032.473.26 0 .137-.024.188-.024.188s-.217-.018-.317-.018c-.634 0-1.3.278-1.3 1.114 0 .66.437.81.708.81.518 0 .741-.344.753-.345l-.024.287h.645l.29-2.07c0-.878-.749-.906-1.009-.906zm-12.117.003c-.505 0-.892.166-.892.166l-.107.647s.32-.132.802-.132c.275 0 .476.031.476.259 0 .138-.025.19-.025.19s-.216-.02-.317-.02c-.637 0-1.306.278-1.306 1.114 0 .659.439.81.711.81.52 0 .744-.344.756-.345l-.025.287h.649l.29-2.069c0-.878-.751-.907-1.012-.907zm2.291 0c-.542 0-1.093.22-1.093.967 0 .847.918.762.918 1.118 0 .239-.256.258-.454.258-.342 0-.65-.118-.65-.112l-.099.647c.018.005.208.09.823.09.165 0 1.11.043 1.11-.94 0-.92-.874-.738-.874-1.107 0-.184.142-.242.402-.242.103 0 .502.033.502.033l.091-.653s-.257-.059-.676-.059zm3.39 0c-.753 0-1.311.811-1.311 1.726 0 1.057.699 1.308 1.294 1.308.55 0 .793-.123.793-.123l.131-.72s-.418.183-.796.183c-.805 0-.664-.599-.664-.599h1.524s.098-.484.098-.681c0-.493-.246-1.094-1.069-1.094zm2.73.031c-.34 0-.592.457-.592.457l.067-.42h-.705l-.473 2.894h.779c.22-1.235.261-2.239.787-2.055.093-.478.182-.663.283-.865 0 0-.048-.01-.146-.01zm6.312 0c-.34 0-.592.457-.592.457l.068-.42h-.705l-.474 2.894h.778c.221-1.235.262-2.239.789-2.055.092-.478.181-.663.282-.865 0 0-.047-.01-.146-.01zm-9.045.622c.428 0 .35.483.35.522h-.844c0-.05.08-.522.494-.522zm10.184.056c.272 0 .412.184.412.617 0 .393-.198.918-.608.918-.273 0-.4-.225-.4-.578 0-.576.263-.957.596-.957zm-3.744.985c.111 0 .134.01.153.016l.008.001c.014.13-.078.733-.523.733-.229 0-.287-.182-.287-.29 0-.209.109-.46.65-.46zm-12.117.002c.126 0 .14.015.161.018.014.129-.078.732-.524.732-.23 0-.29-.18-.29-.288 0-.21.11-.462.653-.462z" fill="#fff"/></g><defs><clipPath id="clip0_173_1421"><path fill="#fff" transform="translate(.29)" d="M0 0h30v30H0z"/></clipPath></defs></svg>