<svg width="50" height="50" fill="none" xmlns="http://www.w3.org/2000/svg"><path d="M37.656 3.237L46.35 12.3v34.462H13.873v.113h32.588V12.414l-8.805-9.177z" fill="#909090"/><path d="M37.549 3.125H13.763v43.638H46.35V12.302l-8.803-9.177" fill="#F4F4F4"/><path d="M13.523 5.469H3.54v10.667h31.406V5.469H13.523z" fill="#7A7B7C"/><path d="M35.112 15.955H3.742V5.28h31.37v10.675z" fill="#DD2025"/><path d="M14.144 7.084h-2.042v7.5h1.606v-2.53l.354.02a3.188 3.188 0 001.011-.182 2.23 2.23 0 00.77-.455c.228-.192.407-.435.524-.709.157-.455.213-.94.164-1.419a3.492 3.492 0 00-.178-1.006 1.832 1.832 0 00-1.073-1.016 3.486 3.486 0 00-1.137-.203m-.296 3.585h-.14V8.356h.302a.89.89 0 01.718.283c.188.251.288.558.285.872 0 .384 0 .733-.346.978-.25.137-.535.2-.82.178m5.737-3.603c-.174 0-.342.012-.461.017l-.372.01h-1.219v7.5h1.435a4.183 4.183 0 001.606-.274 2.672 2.672 0 001.062-.767 3.03 3.03 0 00.583-1.17c.123-.485.183-.983.178-1.483a6.903 6.903 0 00-.136-1.761 2.777 2.777 0 00-.625-1.146 2.547 2.547 0 00-.836-.625 3.768 3.768 0 00-.857-.278 2.002 2.002 0 00-.357-.026m-.284 6.151h-.156V8.425h.02a1.66 1.66 0 01.938.167c.212.17.384.383.506.625.131.255.207.535.222.822.014.344 0 .625 0 .858a4.57 4.57 0 01-.052.801 2.744 2.744 0 01-.264.781 1.763 1.763 0 01-.567.563 1.051 1.051 0 01-.65.166m7.937-6.118h-3.797v7.5h1.607v-2.974h2.031v-1.394h-2.031V8.484h2.187V7.09" fill="#464648"/><path d="M34.033 31.649s4.98-.904 4.98.798-3.085 1.01-4.98-.798zm-3.683.13c-.792.174-1.563.43-2.302.763l.625-1.406c.625-1.406 1.274-3.323 1.274-3.323a22.211 22.211 0 002.59 3.518c-.737.11-1.467.26-2.187.45v-.003zm-1.972-10.157c0-1.483.48-1.887.853-1.887s.794.18.808 1.467a16.85 16.85 0 01-.808 3.803 6.916 6.916 0 01-.855-3.378l.002-.005zm-7.264 16.431c-1.528-.914 3.204-3.728 4.062-3.819-.004.002-2.462 4.776-4.062 3.82zm19.354-5.404c-.015-.157-.156-1.886-3.234-1.813a22.36 22.36 0 00-3.833.27 19.599 19.599 0 01-3.143-4.148c.54-1.563.868-3.193.973-4.844-.045-1.875-.494-2.95-1.931-2.934-1.438.015-1.647 1.273-1.458 3.145a14.547 14.547 0 001.039 3.653s-.664 2.067-1.542 4.124c-.878 2.056-1.478 3.134-1.478 3.134a15.033 15.033 0 00-4.258 2.188c-1.288 1.198-1.811 2.118-1.133 3.039.584.793 2.63.973 4.458-1.422a35.236 35.236 0 002.656-3.894s2.788-.764 3.655-.973c.867-.21 1.915-.375 1.915-.375s2.546 2.56 5 2.47c2.455-.09 2.336-1.467 2.32-1.617" fill="#DD2025"/><path d="M37.428 3.245v9.177h8.802l-8.802-9.177z" fill="#909090"/><path d="M37.548 3.125v9.177h8.802l-8.802-9.177z" fill="#F4F4F4"/><path d="M14.024 6.964H11.98v7.5h1.613v-2.528l.356.02a3.194 3.194 0 001.011-.182 2.23 2.23 0 00.77-.455c.226-.193.404-.436.52-.71a3.33 3.33 0 00.163-1.418 3.495 3.495 0 00-.178-1.007 1.832 1.832 0 00-1.073-1.015 3.356 3.356 0 00-1.14-.205m-.296 3.585h-.14V8.236h.304a.89.89 0 01.717.283c.188.251.288.558.286.872 0 .384 0 .732-.347.978-.25.137-.534.2-.819.178m5.735-3.603c-.174 0-.343.012-.461.017l-.367.01h-1.22v7.5h1.435a4.18 4.18 0 001.606-.274 2.671 2.671 0 001.063-.767 3.04 3.04 0 00.583-1.17c.122-.485.182-.983.178-1.483a6.899 6.899 0 00-.136-1.761 2.776 2.776 0 00-.625-1.146 2.547 2.547 0 00-.836-.625 3.771 3.771 0 00-.858-.278 2.005 2.005 0 00-.356-.026m-.284 6.151h-.157V8.305h.02a1.66 1.66 0 01.938.167 2.015 2.015 0 01.728 1.447c.014.343 0 .625 0 .858.007.268-.01.536-.051.801a2.744 2.744 0 01-.264.781 1.766 1.766 0 01-.568.563 1.05 1.05 0 01-.65.165m7.933-6.117h-3.797v7.5h1.607v-2.975h2.03v-1.393h-2.03V8.364h2.187V6.97" fill="#fff"/></svg>