<svg width="88" height="88" fill="none" xmlns="http://www.w3.org/2000/svg"><path d="M11 14.667v-11h7.333v11h11V22h-11v11H11V22H0v-7.333h11zm11 22v-11h11v-11h25.667L65.377 22H77c4.033 0 7.333 3.3 7.333 7.333v44c0 4.034-3.3 7.334-7.333 7.334H18.333c-4.033 0-7.333-3.3-7.333-7.334V36.667h11zm25.667 33C57.787 69.667 66 61.453 66 51.333S57.787 33 47.667 33s-18.334 8.213-18.334 18.333 8.214 18.334 18.334 18.334zM35.933 51.333a11.72 11.72 0 0011.734 11.734A11.72 11.72 0 0059.4 51.333 11.72 11.72 0 0047.667 39.6a11.72 11.72 0 00-11.734 11.733z" fill="#fff"/></svg>