<svg width="16" height="17" fill="none" xmlns="http://www.w3.org/2000/svg"><path d="M1.561 16.87c-.43 0-.797-.153-1.103-.459a1.5 1.5 0 01-.458-1.1V4.396c0-.429.153-.796.458-1.102a1.506 1.506 0 011.103-.457h6.966l-1.561 1.56H1.56V15.31h10.927V9.894l1.56-1.56v6.977a1.5 1.5 0 01-.457 1.101 1.505 1.505 0 01-1.103.458H1.56zm8.722-13.584l1.112 1.091-5.151 5.145v1.111h1.093l5.17-5.164L13.62 6.56 8 12.192H4.683V8.88l5.6-5.593zM13.62 6.56l-3.337-3.274 1.951-1.949A1.532 1.532 0 0113.357.87c.435 0 .802.155 1.102.467l1.092 1.111c.3.299.449.663.449 1.091 0 .43-.15.793-.449 1.092L13.62 6.56z" fill="#FE8744"/></svg>