<svg width="17" height="13" fill="none" xmlns="http://www.w3.org/2000/svg"><path d="M11.934 5.2h3.932a.25.25 0 01.192.41l-1.966 2.36a.25.25 0 01-.385 0l-1.966-2.36a.25.25 0 01.193-.41zm-11 2h3.931a.25.25 0 00.192-.41L3.091 4.43a.25.25 0 00-.384 0L.742 6.79a.25.25 0 00.192.41z" fill="#68CEFD"/><path fill-rule="evenodd" clip-rule="evenodd" d="M8.401 1.2c-1.552 0-2.94.707-3.857 1.818a.5.5 0 11-.77-.636A6.002 6.002 0 0114.317 5.2H13.3a5.002 5.002 0 00-4.9-4zm-4.9 6a5.002 5.002 0 008.757 2.182.5.5 0 11.771.636A6.001 6.001 0 012.484 7.2h1.017z" fill="#68CEFD"/></svg>