<svg width="21" height="20" fill="none" xmlns="http://www.w3.org/2000/svg"><g clip-path="url(#clip0_781_5726)"><path d="M.665 9.88a9.52 9.52 0 001.273 4.768L.585 19.589l5.057-1.326a9.534 9.534 0 004.558 1.16h.004c5.257 0 9.536-4.277 9.539-9.535a9.477 9.477 0 00-2.792-6.746A9.479 9.479 0 0010.204.345C4.946.345.667 4.623.664 9.88" fill="url(#paint0_linear_781_5726)"/><path d="M.324 9.877c0 1.741.454 3.44 1.32 4.938L.24 19.934l5.24-1.374a9.877 9.877 0 004.722 1.202h.004c5.446 0 9.879-4.432 9.881-9.878a9.818 9.818 0 00-2.891-6.988A9.82 9.82 0 0010.205 0C4.76 0 .326 4.431.325 9.877zm3.12 4.68l-.196-.31a8.188 8.188 0 01-1.256-4.37c.002-4.526 3.686-8.209 8.216-8.209a8.16 8.16 0 015.807 2.408 8.16 8.16 0 012.403 5.808c-.002 4.527-3.686 8.21-8.213 8.21h-.003a8.203 8.203 0 01-4.18-1.144l-.3-.178-3.108.815.83-3.03z" fill="url(#paint1_linear_781_5726)"/><path d="M7.736 5.748c-.185-.411-.38-.42-.556-.427-.144-.006-.308-.006-.473-.006a.907.907 0 00-.658.31c-.227.246-.864.844-.864 2.058 0 1.215.884 2.389 1.008 2.554.123.164 1.708 2.737 4.217 3.726 2.086.823 2.51.66 2.963.618.452-.041 1.46-.597 1.666-1.174.206-.576.206-1.07.144-1.173-.062-.103-.226-.165-.473-.289-.247-.123-1.46-.72-1.687-.803-.226-.082-.391-.123-.556.124-.164.247-.637.803-.781.968-.144.165-.288.185-.535.062-.247-.124-1.042-.385-1.986-1.226-.734-.654-1.229-1.462-1.373-1.71-.144-.246-.015-.38.108-.503.111-.11.247-.288.37-.432.124-.145.165-.247.247-.412.083-.165.042-.31-.02-.433s-.542-1.344-.761-1.832" fill="#fff"/></g><defs><linearGradient id="paint0_linear_781_5726" x1="10.164" y1="19.589" x2="10.164" y2=".345" gradientUnits="userSpaceOnUse"><stop stop-color="#1FAF38"/><stop offset="1" stop-color="#60D669"/></linearGradient><linearGradient id="paint1_linear_781_5726" x1="10.164" y1="19.934" x2="10.164" y2="0" gradientUnits="userSpaceOnUse"><stop stop-color="#F9F9F9"/><stop offset="1" stop-color="#fff"/></linearGradient><clipPath id="clip0_781_5726"><path fill="#fff" transform="translate(.241)" d="M0 0h19.845v20H0z"/></clipPath></defs></svg>