<svg width="20" height="20" fill="none" xmlns="http://www.w3.org/2000/svg"><path d="M9.483.003c-1.605.02-5.056.283-6.986 2.054C1.061 3.479.56 5.582.501 8.183c-.048 2.591-.107 7.457 4.584 8.782v2.018s-.03.808.504.974c.657.208 1.032-.413 1.657-1.081l1.165-1.318c3.21.267 5.668-.348 5.951-.44.651-.208 4.32-.676 4.919-5.543.615-5.026-.3-8.193-1.95-9.626h-.01c-.498-.459-2.5-1.917-6.973-1.934 0 0-.332-.022-.865-.013zm.055 1.413c.455-.003.732.016.732.016 3.786.01 5.593 1.15 6.019 1.533 1.39 1.192 2.106 4.047 1.582 8.243-.498 4.069-3.473 4.326-4.024 4.502-.234.075-2.4.608-5.127.433 0 0-2.031 2.451-2.666 3.082-.1.111-.218.143-.293.127-.108-.026-.14-.16-.134-.342l.02-3.349c-3.979-1.1-3.744-5.25-3.702-7.419.049-2.168.456-3.942 1.667-5.143 1.63-1.474 4.56-1.673 5.924-1.683h.002zm.3 2.168a.248.248 0 00-.251.247c0 .14.114.25.25.25a4.696 4.696 0 013.36 1.326c.908.882 1.35 2.067 1.368 3.616 0 .137.11.25.25.25v-.01a.25.25 0 00.25-.247 5.386 5.386 0 00-1.51-3.968c-.99-.967-2.243-1.465-3.717-1.465zm-3.295.573a.782.782 0 00-.511.1h-.013c-.357.21-.68.474-.954.785-.228.263-.352.53-.384.787-.02.153-.006.306.04.453l.015.01c.257.755.593 1.48 1.003 2.165A12.73 12.73 0 007.673 11.1l.022.032.036.027.022.026.027.022a12.92 12.92 0 002.65 1.943c1.1.6 1.767.882 2.168 1v.006c.117.036.224.052.332.052.34-.025.664-.164.918-.394a3.81 3.81 0 00.775-.957v-.006c.192-.361.127-.703-.15-.934a11.547 11.547 0 00-1.791-1.286c-.426-.231-.86-.091-1.035.143l-.374.472c-.192.234-.541.202-.541.202l-.01.006c-2.6-.664-3.294-3.297-3.294-3.297s-.033-.358.208-.541l.469-.377c.224-.183.38-.615.14-1.042a11.245 11.245 0 00-1.283-1.791.713.713 0 00-.42-.25h.001zm3.727.742c-.332 0-.332.501.003.501a3.141 3.141 0 012.207.957 2.912 2.912 0 01.75 2.143.252.252 0 00.25.248l.01.013a.253.253 0 00.251-.25c.023-.994-.286-1.827-.892-2.495-.609-.667-1.458-1.041-2.542-1.116h-.036zm.41 1.348c-.341-.01-.354.5-.015.51.823.043 1.223.46 1.276 1.316a.248.248 0 00.247.244h.01a.252.252 0 00.24-.267c-.058-1.116-.667-1.745-1.747-1.803h-.01z" fill="#9747FF"/></svg>