<svg width="21" height="20" fill="none" xmlns="http://www.w3.org/2000/svg"><g clip-path="url(#clip0_781_5721)"><path d="M10.241 0a9.999 9.999 0 00-7.07 17.071A9.999 9.999 0 1017.31 2.93 9.999 9.999 0 0010.241 0z" fill="url(#paint0_linear_781_5721)"/><path d="M4.768 9.895c2.916-1.27 4.86-2.108 5.831-2.512 2.778-1.155 3.355-1.356 3.731-1.363.083-.001.268.02.388.116a.43.43 0 01.142.271c.013.078.03.255.016.394-.15 1.581-.802 5.418-1.133 7.19-.14.749-.416 1-.683 1.025-.581.053-1.022-.384-1.584-.753-.88-.577-1.377-.936-2.232-1.499-.987-.65-.346-1.008.216-1.592.147-.153 2.706-2.48 2.755-2.692.006-.026.012-.125-.047-.177-.058-.052-.144-.034-.206-.02-.09.02-1.494.95-4.22 2.788-.398.274-.758.408-1.083.4-.357-.007-1.044-.201-1.555-.367-.625-.204-1.124-.311-1.08-.657.022-.18.27-.364.744-.552z" fill="#fff"/></g><defs><linearGradient id="paint0_linear_781_5721" x1="10.241" y1="0" x2="10.241" y2="20" gradientUnits="userSpaceOnUse"><stop stop-color="#2AABEE"/><stop offset="1" stop-color="#229ED9"/></linearGradient><clipPath id="clip0_781_5721"><path fill="#fff" transform="translate(.241)" d="M0 0h20v20H0z"/></clipPath></defs></svg>