<svg width="18" height="18" fill="none" xmlns="http://www.w3.org/2000/svg"><path d="M17.092 6.258c1.041-1.041.566-2.258 0-2.85l-2.5-2.5c-1.05-1.041-2.259-.566-2.85 0l-1.417 1.425H8.167c-1.584 0-2.5.834-2.967 1.792l-3.7 3.7v3.333l-.592.584c-1.041 1.05-.566 2.258 0 2.85l2.5 2.5c.45.45.934.616 1.392.616.592 0 1.133-.291 1.458-.616l2.25-2.259H11.5c1.417 0 2.133-.883 2.392-1.75.941-.25 1.458-.966 1.666-1.666 1.292-.334 1.775-1.559 1.775-2.417V6.5h-.491l.25-.242zM15.667 9c0 .375-.159.833-.834.833H14v.834c0 .375-.158.833-.833.833h-.834v.833c0 .375-.158.834-.833.834H7.825L5.092 15.9c-.259.242-.409.1-.5.008L2.1 13.425c-.242-.258-.1-.408-.008-.5l1.075-1.083V8.508l1.666-1.666v1.325c0 1.008.667 2.5 2.5 2.5 1.834 0 2.5-1.492 2.5-2.5h5.834V9zm.241-3.925L14.492 6.5H8.167v1.667c0 .375-.159.833-.834.833-.675 0-.833-.458-.833-.833v-2.5C6.5 5.283 6.642 4 8.167 4h2.841l1.9-1.9c.259-.242.409-.1.5-.008L15.9 4.575c.242.258.1.408.008.5z" fill="#343C66"/></svg>