<svg width="25" height="25" fill="none" xmlns="http://www.w3.org/2000/svg"><g clip-path="url(#clip0_344_2204)"><path d="M12.802.004C10.796.028 6.482.358 4.07 2.57c-1.795 1.778-2.421 4.407-2.495 7.658-.06 3.239-.134 9.322 5.73 10.978v2.522s-.038 1.01.63 1.217c.821.26 1.29-.517 2.07-1.351l1.458-1.648c4.011.334 7.084-.435 7.438-.549.814-.26 5.4-.846 6.148-6.93.77-6.282-.374-10.24-2.437-12.032h-.013C21.977 1.863 19.474.04 13.884.02c0 0-.415-.028-1.082-.016zm.069 1.766c.57-.004.915.02.915.02 4.732.013 6.99 1.437 7.524 1.917 1.737 1.489 2.632 5.058 1.977 10.303-.623 5.086-4.341 5.408-5.03 5.627-.293.094-2.999.761-6.408.542 0 0-2.54 3.064-3.333 3.853-.126.138-.273.179-.367.158-.134-.033-.175-.199-.167-.427l.024-4.187c-4.972-1.375-4.68-6.563-4.626-9.273.06-2.71.57-4.927 2.084-6.43 2.038-1.842 5.7-2.09 7.405-2.103h.002zm.374 2.71a.31.31 0 00-.313.309c0 .175.142.313.313.313a5.869 5.869 0 014.2 1.656c1.135 1.103 1.688 2.584 1.71 4.52 0 .172.137.314.312.314v-.013a.313.313 0 00.314-.309 6.73 6.73 0 00-1.889-4.96c-1.236-1.21-2.802-1.831-4.646-1.831zm-4.117.716a.978.978 0 00-.64.126h-.016a4.903 4.903 0 00-1.192.98c-.285.33-.44.663-.48.984a1.33 1.33 0 00.049.566l.02.013c.321.943.74 1.851 1.253 2.706.66 1.2 1.473 2.311 2.417 3.304l.028.04.045.033.028.033.033.028c.996.947 2.11 1.764 3.312 2.429 1.375.748 2.21 1.102 2.71 1.25v.007c.147.045.281.065.415.065a1.918 1.918 0 001.148-.492c.386-.344.713-.748.969-1.196v-.008c.24-.452.158-.88-.188-1.168a14.426 14.426 0 00-2.238-1.607c-.533-.29-1.074-.114-1.294.179l-.468.59c-.24.293-.675.252-.675.252l-.013.008c-3.25-.83-4.118-4.122-4.118-4.122s-.04-.448.26-.676l.586-.472c.28-.228.476-.769.175-1.302a14.056 14.056 0 00-1.603-2.238.89.89 0 00-.525-.314l.002.002zm4.658.928c-.415 0-.415.627.004.627a3.927 3.927 0 012.759 1.196 3.641 3.641 0 01.936 2.677.315.315 0 00.313.31l.012.016a.315.315 0 00.314-.313c.028-1.242-.358-2.283-1.115-3.118-.761-.834-1.823-1.302-3.178-1.395h-.045zm.513 1.684c-.427-.012-.443.627-.02.64 1.03.053 1.53.573 1.595 1.643a.31.31 0 00.31.306h.012a.315.315 0 00.301-.334c-.073-1.395-.834-2.181-2.185-2.254h-.013z" fill="#9747FF"/></g><defs><clipPath id="clip0_344_2204"><path fill="#fff" d="M0 0h25v25H0z"/></clipPath></defs></svg>