<svg width="31" height="30" fill="none" xmlns="http://www.w3.org/2000/svg"><g clip-path="url(#clip0_173_1423)"><path d="M1.49 5.58a1.2 1.2 0 00-1.2 1.2v16.44a1.2 1.2 0 001.2 1.2h27.6a1.2 1.2 0 001.2-1.2V6.78a1.2 1.2 0 00-1.2-1.2H1.49zm16.718 5.615c.73 0 1.315.161 1.689.311l-.255 1.604-.17-.085a3.276 3.276 0 00-1.41-.284c-.737 0-1.077.329-1.077.636-.005.347.398.576 1.056.918 1.087.528 1.589 1.169 1.582 2.011-.015 1.537-1.3 2.53-3.28 2.53-.844-.01-1.658-.189-2.098-.395l.265-1.658.242.118c.619.277 1.02.389 1.773.389.542 0 1.123-.227 1.127-.723.004-.324-.243-.555-.976-.918-.714-.354-1.661-.947-1.65-2.011.01-1.439 1.321-2.443 3.182-2.443zm-15.264.235h3.04c.41.016.74.147.854.592l.655 3.382v.002l.197 1.013 1.846-4.989h1.997l-2.968 7.303-1.995.002-1.588-5.893c.945.5 1.75 1.08 2.215 1.877a5.291 5.291 0 00-.48-.818c-.237-.326-.746-.748-.959-.928-.742-.625-1.75-1.13-2.838-1.398l.024-.145zm9.383.008h1.953l-1.222 7.292h-1.953l1.222-7.292zm11.03 0h1.48l1.548 7.292h-1.776s-.176-.837-.233-1.093l-2.45-.003c-.075.198-.404 1.096-.404 1.096h-2.009l2.842-6.686c.2-.475.544-.606 1.002-.606zm.145 1.962c-.096.271-.263.709-.252.69 0 0-.601 1.603-.759 2.02l1.58-.002-.44-2.086-.129-.622z" fill="#fff"/></g><defs><clipPath id="clip0_173_1423"><path fill="#fff" transform="translate(.29)" d="M0 0h30v30H0z"/></clipPath></defs></svg>