<svg width="25" height="25" fill="none" xmlns="http://www.w3.org/2000/svg"><g clip-path="url(#clip0_344_2234)"><path d="M.53 12.35c-.001 2.1.548 4.152 1.591 5.96L.43 24.486l6.32-1.657a11.92 11.92 0 005.698 1.45h.005c6.572 0 11.92-5.347 11.924-11.92a11.846 11.846 0 00-3.49-8.432A11.848 11.848 0 0012.453.431C5.881.431.533 5.778.53 12.351" fill="url(#paint0_linear_344_2234)"/><path d="M.104 12.347c-.001 2.176.568 4.3 1.648 6.172L0 24.917l6.548-1.716a12.346 12.346 0 005.902 1.503h.005c6.807 0 12.348-5.54 12.351-12.348a12.273 12.273 0 00-3.614-8.735A12.274 12.274 0 0012.455 0C5.647 0 .106 5.539.104 12.347zm3.899 5.85l-.245-.388a10.235 10.235 0 01-1.569-5.462C2.191 6.69 6.796 2.085 12.459 2.085a10.2 10.2 0 017.258 3.01 10.2 10.2 0 013.004 7.26c-.003 5.66-4.608 10.263-10.266 10.263h-.004a10.254 10.254 0 01-5.225-1.43l-.375-.223-3.885 1.019 1.037-3.787z" fill="url(#paint1_linear_344_2234)"/><path d="M9.368 7.185c-.231-.514-.474-.524-.694-.533-.18-.008-.386-.008-.592-.008-.206 0-.54.078-.823.387-.283.308-1.08 1.055-1.08 2.573 0 1.519 1.106 2.986 1.26 3.192.155.206 2.135 3.421 5.272 4.658 2.607 1.028 3.138.824 3.703.772.566-.051 1.826-.746 2.083-1.467.258-.72.258-1.338.18-1.467-.077-.128-.282-.206-.591-.36s-1.826-.9-2.109-1.004c-.283-.103-.489-.154-.694.155-.206.308-.797 1.003-.977 1.21-.18.206-.36.231-.669.077-.309-.155-1.303-.48-2.482-1.532-.917-.818-1.537-1.828-1.717-2.137-.18-.309-.019-.476.136-.63.139-.138.309-.36.463-.54.154-.18.205-.309.308-.515.103-.206.052-.386-.025-.54-.078-.155-.677-1.68-.952-2.291" fill="#fff"/></g><defs><linearGradient id="paint0_linear_344_2234" x1="12.403" y1="24.486" x2="12.403" y2=".431" gradientUnits="userSpaceOnUse"><stop stop-color="#1FAF38"/><stop offset="1" stop-color="#60D669"/></linearGradient><linearGradient id="paint1_linear_344_2234" x1="12.403" y1="24.917" x2="12.403" y2="0" gradientUnits="userSpaceOnUse"><stop stop-color="#F9F9F9"/><stop offset="1" stop-color="#fff"/></linearGradient><clipPath id="clip0_344_2234"><path fill="#fff" d="M0 0h24.806v25H0z"/></clipPath></defs></svg>