<svg width="50" height="50" fill="none" xmlns="http://www.w3.org/2000/svg"><path d="M45.01 4.688H15.163a1.863 1.863 0 00-1.864 1.86v8.296l17.295 5.078 16.28-5.078V6.548a1.862 1.862 0 00-1.866-1.86z" fill="#41A5EE"/><path d="M46.875 14.844H13.3V25l17.295 3.047L46.875 25V14.844z" fill="#2B7CD3"/><path d="M13.3 25v10.156l16.278 2.032 17.297-2.032V25H13.3z" fill="#185ABD"/><path d="M15.164 45.313h29.844a1.863 1.863 0 001.867-1.861v-8.296H13.3v8.296a1.862 1.862 0 001.864 1.86z" fill="#103F91"/><path opacity=".1" d="M25.678 12.813H13.3v25.39h12.378a1.875 1.875 0 001.866-1.86v-21.67a1.875 1.875 0 00-1.866-1.86z" fill="#000"/><path opacity=".2" d="M24.66 13.828H13.3v25.39h11.36a1.875 1.875 0 001.866-1.86V15.689a1.875 1.875 0 00-1.865-1.86z" fill="#000"/><path opacity=".2" d="M24.66 13.828H13.3v23.36h11.36a1.875 1.875 0 001.866-1.861V15.689a1.875 1.875 0 00-1.865-1.86z" fill="#000"/><path opacity=".2" d="M23.644 13.828H13.3v23.36h10.344a1.875 1.875 0 001.865-1.861V15.689a1.875 1.875 0 00-1.865-1.86z" fill="#000"/><path d="M4.99 13.828h18.654a1.864 1.864 0 011.865 1.861v18.622a1.864 1.864 0 01-1.865 1.86H4.99a1.861 1.861 0 01-1.866-1.86V15.689a1.862 1.862 0 011.866-1.86z" fill="url(#paint0_linear_702_5360)"/><path d="M10.781 28.106c.036.288.061.538.072.752h.044c.015-.203.05-.449.101-.735.052-.286.097-.528.14-.726l1.96-8.449h2.538l2.031 8.322c.118.515.203 1.037.253 1.563h.035c.037-.512.108-1.02.21-1.524l1.624-8.372h2.308l-2.85 12.107h-2.699l-1.932-8.01c-.057-.23-.12-.532-.191-.903-.07-.37-.115-.641-.131-.812h-.033a17.64 17.64 0 01-.131.876c-.066.39-.118.675-.157.863l-1.817 7.99H9.412l-2.865-12.1H8.89l1.767 8.466c.053.229.094.46.123.692z" fill="#fff"/><defs><linearGradient id="paint0_linear_702_5360" x1="7.022" y1="12.366" x2="21.613" y2="37.634" gradientUnits="userSpaceOnUse"><stop stop-color="#2368C4"/><stop offset=".5" stop-color="#1A5DBE"/><stop offset="1" stop-color="#1146AC"/></linearGradient></defs></svg>