<svg width="50" height="50" fill="none" xmlns="http://www.w3.org/2000/svg"><path d="M30.595 23.984L13.3 20.937v22.515a1.862 1.862 0 001.864 1.86h29.844a1.863 1.863 0 001.867-1.86v-8.296l-16.28-11.172z" fill="#185C37"/><path d="M30.595 4.688H15.164a1.863 1.863 0 00-1.864 1.86v8.296L30.595 25l9.158 3.047L46.875 25V14.844L30.595 4.688z" fill="#21A366"/><path d="M13.3 14.844h17.295V25H13.3V14.844z" fill="#107C41"/><path opacity=".1" d="M25.678 12.813H13.3v25.39h12.378a1.875 1.875 0 001.866-1.86v-21.67a1.875 1.875 0 00-1.866-1.86z" fill="#000"/><path opacity=".2" d="M24.66 13.828H13.3v25.39h11.36a1.875 1.875 0 001.866-1.86V15.689a1.875 1.875 0 00-1.865-1.86z" fill="#000"/><path opacity=".2" d="M24.66 13.828H13.3v23.36h11.36a1.875 1.875 0 001.866-1.861V15.689a1.875 1.875 0 00-1.865-1.86z" fill="#000"/><path opacity=".2" d="M23.644 13.828H13.3v23.36h10.344a1.875 1.875 0 001.865-1.861V15.689a1.875 1.875 0 00-1.865-1.86z" fill="#000"/><path d="M4.99 13.828h18.654a1.864 1.864 0 011.865 1.861v18.622a1.864 1.864 0 01-1.865 1.86H4.99a1.861 1.861 0 01-1.866-1.86V15.689a1.862 1.862 0 011.866-1.86z" fill="url(#paint0_linear_702_5405)"/><path d="M8.906 31.051l3.924-6.068-3.594-6.035h2.886l1.96 3.864c.182.366.313.638.373.82h.026c.128-.295.264-.578.406-.854l2.097-3.823h2.657l-3.686 6 3.78 6.101h-2.827l-2.266-4.236a3.678 3.678 0 01-.267-.57h-.037a2.635 2.635 0 01-.263.548l-2.333 4.253H8.906z" fill="#fff"/><path d="M45.01 4.688H30.594v10.156h16.28V6.548a1.862 1.862 0 00-1.866-1.86z" fill="#33C481"/><path d="M30.595 25h16.28v10.156h-16.28V25z" fill="#107C41"/><defs><linearGradient id="paint0_linear_702_5405" x1="7.022" y1="12.366" x2="21.613" y2="37.634" gradientUnits="userSpaceOnUse"><stop stop-color="#18884F"/><stop offset=".5" stop-color="#117E43"/><stop offset="1" stop-color="#0B6631"/></linearGradient></defs></svg>