<svg width="17" height="16" viewBox="0 0 17 16" fill="none" xmlns="http://www.w3.org/2000/svg">
<path d="M8.67001 15C6.8135 15 5.03302 14.2625 3.72027 12.9497C2.40751 11.637 1.67001 9.85652 1.67001 8C1.67001 6.14348 2.40751 4.36301 3.72027 3.05025C5.03302 1.7375 6.8135 1 8.67001 1C10.5265 1 12.307 1.7375 13.6198 3.05025C14.9325 4.36301 15.67 6.14348 15.67 8C15.67 9.85652 14.9325 11.637 13.6198 12.9497C12.307 14.2625 10.5265 15 8.67001 15ZM8.67001 16C10.7917 16 12.8266 15.1571 14.3269 13.6569C15.8272 12.1566 16.67 10.1217 16.67 8C16.67 5.87827 15.8272 3.84344 14.3269 2.34315C12.8266 0.842855 10.7917 0 8.67001 0C6.54828 0 4.51345 0.842855 3.01316 2.34315C1.51287 3.84344 0.670013 5.87827 0.670013 8C0.670013 10.1217 1.51287 12.1566 3.01316 13.6569C4.51345 15.1571 6.54828 16 8.67001 16Z" fill="#343C66"/>
<path d="M7.67203 11C7.67203 10.8687 7.69789 10.7386 7.74815 10.6173C7.7984 10.496 7.87206 10.3857 7.96492 10.2929C8.05778 10.2 8.16802 10.1264 8.28934 10.0761C8.41067 10.0259 8.54071 10 8.67203 10C8.80335 10 8.93339 10.0259 9.05471 10.0761C9.17604 10.1264 9.28628 10.2 9.37913 10.2929C9.47199 10.3857 9.54565 10.496 9.59591 10.6173C9.64616 10.7386 9.67203 10.8687 9.67203 11C9.67203 11.2652 9.56667 11.5196 9.37913 11.7071C9.1916 11.8946 8.93724 12 8.67203 12C8.40681 12 8.15246 11.8946 7.96492 11.7071C7.77738 11.5196 7.67203 11.2652 7.67203 11ZM7.77003 4.995C7.75671 4.86884 7.77007 4.74129 7.80923 4.62062C7.84839 4.49996 7.91248 4.38888 7.99735 4.29458C8.08221 4.20029 8.18595 4.12489 8.30184 4.07328C8.41773 4.02167 8.54317 3.995 8.67003 3.995C8.79689 3.995 8.92233 4.02167 9.03822 4.07328C9.1541 4.12489 9.25784 4.20029 9.34271 4.29458C9.42757 4.38888 9.49167 4.49996 9.53083 4.62062C9.56999 4.74129 9.58334 4.86884 9.57003 4.995L9.22003 8.502C9.20827 8.63977 9.14523 8.76811 9.04338 8.86163C8.94154 8.95515 8.8083 9.00705 8.67003 9.00705C8.53176 9.00705 8.39852 8.95515 8.29667 8.86163C8.19483 8.76811 8.13179 8.63977 8.12003 8.502L7.77003 4.995Z" fill="#343C66"/>
</svg>
