<svg width="30" height="30" viewBox="0 0 30 30" fill="none" xmlns="http://www.w3.org/2000/svg">
<circle cx="15" cy="15" r="14.5" fill="white" fill-opacity="0.8" stroke="#FE8744"/>
<path d="M12.2424 20.8441C12.1524 20.752 12.1021 20.6284 12.1021 20.4997C12.1021 20.3709 12.1524 20.2473 12.2424 20.1552L17.2676 15L12.2424 9.84582C12.1524 9.75373 12.1021 9.63011 12.1021 9.50138C12.1021 9.37265 12.1524 9.24903 12.2424 9.15694C12.2861 9.11204 12.3384 9.07635 12.3961 9.05198C12.4538 9.02761 12.5159 9.01505 12.5785 9.01505C12.6412 9.01505 12.7033 9.02761 12.761 9.05198C12.8187 9.07635 12.871 9.11204 12.9147 9.15694L18.2587 14.6401C18.3525 14.7364 18.4051 14.8655 18.4051 15C18.4051 15.1345 18.3525 15.2636 18.2587 15.3599L12.9147 20.8431C12.871 20.888 12.8187 20.9237 12.761 20.948C12.7033 20.9724 12.6412 20.985 12.5785 20.985C12.5159 20.985 12.4538 20.9724 12.3961 20.948C12.3384 20.9237 12.2861 20.888 12.2424 20.8431V20.8441Z" fill="#FF561E"/>
</svg>
