<svg width="16" height="16" viewBox="0 0 16 16" fill="none" xmlns="http://www.w3.org/2000/svg">
<g clip-path="url(#clip0_584_3048)">
<path d="M14.2081 11.3238C13.417 10.5281 12.4571 9.89297 11.3886 9.4586C10.3202 9.02423 9.16646 8.79999 8.0001 8.79999C6.83373 8.79999 5.68 9.02423 4.61157 9.4586C3.54314 9.89297 2.58316 10.5281 1.7921 11.3238C1.66996 11.4492 1.60164 11.6119 1.6001 11.7809V14.5235C1.60269 14.7037 1.68163 14.8758 1.81984 15.0024C1.95805 15.129 2.1444 15.2 2.33856 15.2H13.6616C13.8575 15.2 14.0453 15.1278 14.1838 14.9992C14.3223 14.8706 14.4001 14.6962 14.4001 14.5143V11.7718C14.3962 11.6059 14.328 11.4469 14.2081 11.3238V11.3238Z" fill="white"/>
<path d="M7.9998 7.19999C9.76712 7.19999 11.1998 5.7673 11.1998 3.99999C11.1998 2.23268 9.76712 0.799988 7.9998 0.799988C6.23249 0.799988 4.7998 2.23268 4.7998 3.99999C4.7998 5.7673 6.23249 7.19999 7.9998 7.19999Z" fill="white"/>
</g>
<defs>
<clipPath id="clip0_584_3048">
<rect width="16" height="16" fill="white"/>
</clipPath>
</defs>
</svg>
