<svg width="489" height="297" viewBox="0 0 489 297" fill="none" xmlns="http://www.w3.org/2000/svg">
<path d="M453.949 46.8618C452.522 46.9529 451.243 47.0345 449.825 47.1209C450.383 47.8406 450.791 48.4979 451.849 47.9845C452.209 47.807 452.743 47.855 453.156 47.9509C453.796 48.1045 454.363 48.33 454.526 49.1792C454.906 51.1417 455.41 53.0801 455.877 55.0233C456.237 56.5251 456.607 58.0221 456.973 59.5095C455.487 60.1572 454.343 59.5527 453.214 58.8378C452.7 58.5115 452.19 58.1516 451.628 57.9405C451.378 57.8446 451.003 58.0701 450.686 58.1469C450.662 58.286 450.638 58.4251 450.614 58.5595C451.796 59.2264 452.983 59.8982 454.291 60.6371C454.045 61.6303 453.757 62.8154 453.478 63.9429C452.56 64.0341 451.883 63.1368 451.085 63.8038C451.022 63.8566 450.854 63.8374 450.767 63.7894C449.297 62.9545 447.638 62.3404 446.687 60.8386C446.403 60.3924 446.206 60.1812 445.682 60.2436C443.798 60.4643 443.481 60.234 443.13 58.4347C443.077 58.166 443.058 57.8926 443.005 57.4991C443.952 57.4271 444.87 57.36 445.798 57.2928C445.812 56.2996 445.6 55.3976 444.457 54.9321C444.197 54.8266 444.106 54.3372 443.923 54.0349C443.505 53.3488 442.976 53.3392 442.13 54.1453C441.563 51.8614 440.972 49.6926 440.491 47.4951C440.025 45.3696 439.294 43.2872 439.093 40.893C440.03 41.2001 440.693 41.416 441.592 41.7086C441.424 40.9985 441.303 40.4995 441.164 39.9142C440.751 39.9957 440.443 40.0965 440.131 40.1109C439.069 40.1493 438.679 39.8566 438.41 38.753C437.636 35.6247 436.886 32.4867 436.122 29.3536C436.045 29.0369 435.925 28.7299 435.795 28.322C435.002 28.4516 434.238 28.5235 433.498 28.7011C429.494 29.6655 425.519 30.7738 421.486 31.6039C418.631 32.1941 415.863 33.0817 413.017 33.6815C410.134 34.2908 407.293 35.0969 404.414 35.7302C403.073 36.0229 401.679 36.4787 400.275 35.7015C400.434 35.951 400.588 36.2005 400.814 36.5507C398.867 37.0209 397.007 37.5487 395.108 37.8894C394.479 37.9997 393.763 37.6255 392.97 37.448C392.998 37.4384 392.825 37.4528 392.806 37.5151C392.494 38.5083 391.754 38.7866 390.792 39.0169C361.444 46.0269 332.105 53.0657 302.767 60.1045C302.281 60.2196 301.791 60.306 301.195 60.4307C300.998 60.0661 300.801 59.6918 300.503 59.1305C300.354 59.6918 300.243 60.1237 300.08 60.7378C273.909 67.0089 247.665 73.2992 221.302 79.6182C221.076 78.4811 220.379 77.9005 219.23 77.8813C218.548 78.5099 218.822 79.2824 218.995 80.1508C217.101 80.6114 215.222 81.0673 213.256 81.5423C212.746 79.4503 212.107 77.4687 210.074 76.4563C208.608 75.727 207.022 75.8038 205.498 76.2356C202.556 77.0657 201.124 80.2708 201.97 84.1428C200.494 84.5267 199.009 84.9153 197.524 85.304C197.471 85.3184 197.414 85.3375 197.361 85.3423C196.563 85.3807 195.376 85.1024 195.049 85.5103C194.409 86.3211 193.568 86.3739 192.886 86.3739C191.146 86.3739 189.685 87.3 188.046 87.5495C187.772 87.5926 187.507 87.6838 187.243 87.7606C186.07 88.1012 184.902 88.5091 183.686 87.8901C183.523 87.8038 183.263 87.9045 183.033 87.9237C182.994 88.2068 182.965 88.4419 182.927 88.725C181.908 88.3603 180.937 88.0149 179.87 87.6358C179.644 88.7298 180.769 88.5283 181.283 89.2096C152.069 96.21 122.961 103.186 93.6659 110.206C93.8149 109.592 93.9398 109.189 94.0071 108.771C94.1225 108.023 93.9927 107.342 93.4015 106.785C92.9545 106.368 92.546 105.912 92.123 105.465C90.5801 103.863 90.3061 102.831 90.782 100.341C91.4164 100.341 92.0701 100.341 92.8103 100.341C92.9449 99.9333 93.0795 99.5303 93.2141 99.1272C95.0213 99.2328 95.1895 99.4343 95.8288 96.114C98.0878 95.567 100.405 95.0057 102.721 94.4491C118.044 90.7786 133.363 87.1032 148.686 83.4327C149.546 83.2264 150.392 82.9097 151.295 83.2696C151.44 83.3271 151.738 83.3367 151.771 83.2648C152.617 81.6766 153.535 83.236 154.434 83.2072C155.588 81.0241 157.823 81.3599 159.74 80.9953C160.961 80.7602 162.446 81.0481 163.384 80.4387C164.403 79.7766 165.441 79.5271 166.508 79.1576C167.537 78.7978 168.445 79.0041 169.411 79.4263C169.276 79.9973 169.156 80.5251 168.993 81.2208C170.834 81.5279 172.612 81.8205 174.391 82.1132C174.429 82.0317 174.467 81.9501 174.506 81.8685C173.559 81.4175 172.617 80.9617 171.348 80.3571C172.083 80.0549 172.492 79.8821 172.997 79.6758C172.223 79.2824 171.497 78.9177 170.569 78.4475C171.012 78.222 171.252 78.0349 171.526 77.9677C174.391 77.2672 177.255 76.5619 180.139 75.9285C180.75 75.7942 181.432 75.9189 182.076 75.9861C182.985 76.0821 183.888 76.2356 184.897 76.0773C184.465 75.8422 184.037 75.6022 183.297 75.1944C184.667 74.8394 185.715 74.5515 186.777 74.2972C193.165 72.7618 199.548 71.2216 205.945 69.7294C206.584 69.5807 207.382 68.9329 207.993 69.9837C208.055 70.0941 209.362 69.8206 209.55 69.4559C210.035 68.4963 210.9 68.5299 211.655 68.3476C223.397 65.5167 235.149 62.7098 246.896 59.903C248.9 59.4231 250.89 58.8714 252.914 58.5019C256.235 57.8926 259.427 56.8034 262.724 56.1077C266.045 55.4072 269.328 54.5387 272.63 53.7422C273.865 53.4447 275.11 53.1808 276.341 52.8498C277.432 52.5571 278.278 52.8786 279.003 53.7614C278.768 54.0829 278.528 54.4092 278.287 54.7354C279.647 54.3852 280.364 53.3056 281.152 52.3796C281.661 51.7798 282.185 51.4296 282.906 51.2568C300.93 46.9433 318.95 42.6203 336.974 38.3068C337.186 38.254 337.407 38.2492 337.719 38.2109C338.027 38.8586 338.33 39.4919 338.652 40.1781C340.199 39.871 340.598 38.6763 340.911 37.3712C375.772 29.0177 410.624 20.6643 445.644 12.2725C448.412 23.831 451.147 35.2121 453.949 46.8618Z" fill="#00040E"/>
<path d="M342.386 200.251C345.366 204.19 348.207 207.947 351.081 211.747C348.764 212.304 346.342 212.889 343.833 213.494C343.694 212.769 343.569 211.953 342.684 212.265C342.43 212.357 342.415 213.124 342.218 213.83C338.267 215.053 333.836 215.715 329.529 216.891C325.237 218.061 320.877 219.002 316.552 220.038C312.168 221.089 307.78 222.121 303.396 223.171C299.066 224.208 294.74 225.263 290.409 226.305C286.026 227.355 281.637 228.401 277.254 229.447C272.923 230.484 268.593 231.515 264.262 232.556C259.878 233.607 255.5 234.677 251.111 235.723C246.805 236.755 242.493 237.772 237.836 238.88C238.379 238.156 238.696 237.729 239.163 237.105C238.696 237.105 238.427 237.086 238.163 237.115C238.076 237.124 237.985 237.249 237.932 237.345C236.812 239.192 234.952 239.634 233.015 240.08C227.05 241.452 221.105 242.925 215.145 244.331C214.457 244.494 213.727 244.475 213.02 244.566C212.765 244.6 212.515 244.691 212.275 244.787C211.775 244.988 211.285 245.214 210.699 245.473C209.04 242.983 206.777 241.63 203.869 242.225C200.874 242.839 199.826 245.257 199.418 248.097C181.283 252.444 163.167 256.782 144.826 261.182C144.912 260.452 144.932 259.915 145.047 259.397C145.662 256.633 146.258 253.865 146.96 251.12C147.301 249.791 147.801 248.481 148.383 247.234C148.565 246.845 149.214 246.567 149.7 246.447C156.131 244.873 162.576 243.338 169.017 241.793C172.208 241.03 175.395 240.267 178.514 239.518C179.481 240.871 180.399 242.157 181.355 243.491C182.278 242.772 183.018 242.186 183.768 241.615C184.753 240.871 185.854 240.564 187.07 240.838C187.796 241.001 188.517 241.188 189.031 240.435C189.536 239.696 189.319 238.943 188.978 238.218C188.839 237.921 188.656 237.638 188.421 237.215C189.305 236.971 190.132 236.721 190.963 236.524C208.882 232.235 226.8 227.95 244.719 223.666C245.392 223.507 245.887 223.325 246.622 223.934C247.3 224.491 248.506 224.4 249.655 224.625C249.876 223.872 250.068 223.229 250.342 222.308C280.902 214.991 311.726 207.602 342.386 200.251Z" fill="#00040E"/>
<path d="M485.835 179.447C483.1 180.114 480.567 180.733 478.034 181.347C477.491 181.476 476.939 181.568 476.41 181.726C475.261 182.076 474.156 182.263 473.04 181.544C472.819 181.4 472.372 181.606 472.031 181.649C472.122 181.942 472.209 182.235 472.344 182.666C470.137 183.209 467.898 183.775 465.648 184.312C454.709 186.932 443.774 189.547 432.834 192.152C430.402 192.733 427.956 193.275 425.524 193.846C425.101 193.947 424.822 194.095 424.534 193.496C424.38 193.169 423.563 193.001 423.274 193.827C423.188 194.071 422.866 194.331 422.606 194.398C418.545 195.463 414.478 196.533 410.398 197.526C408.677 197.943 406.894 198.126 405.168 198.534C403.611 198.903 402.107 199.498 400.549 199.887C396.771 200.832 392.974 201.705 389.196 202.641C388.283 202.866 387.476 202.996 386.812 202.108C386.591 201.811 386.216 201.59 385.861 201.446C385.01 201.101 384.505 200.597 384.063 199.709C383.664 198.908 382.626 198.375 381.79 197.857C381.52 197.689 380.948 197.852 380.593 198.025C380.213 198.207 379.92 198.577 379.531 198.922C379.247 198.668 379.012 198.462 378.752 198.231C378.848 198.049 378.891 197.886 378.997 197.795C380.006 196.917 380.016 196.725 379.036 195.919C378.334 195.343 377.248 195.041 377.363 193.673C377.108 193.98 376.834 194.273 376.594 194.59C376.099 195.247 375.522 195.333 374.864 194.858C374.277 194.436 373.705 193.999 373.061 193.52C372.383 194.004 371.648 194.321 370.759 193.462C403.837 185.536 436.78 177.638 469.873 169.702C461.255 133.841 452.675 98.1579 444.101 62.4746C445.269 62.5562 446.307 62.5226 447.287 62.7385C447.931 62.8824 448.576 63.1943 448.922 63.9716C449.239 64.6865 449.753 65.4398 450.811 65.1711C450.811 64.8688 450.811 64.6289 450.811 64.3075C451.834 64.8545 452.128 66.7113 453.834 65.6173C453.916 66.7353 453.988 67.7189 454.06 68.7649C453.767 68.856 453.512 68.9376 453.204 69.0384C453.257 69.2303 453.262 69.4654 453.377 69.6045C454.036 70.4106 454.165 71.3654 454.238 72.3586C454.3 73.2463 454.415 74.1291 454.512 75.012C454.632 76.1203 454.867 77.1567 455.41 78.1787C455.857 79.0328 456.04 80.0835 456.122 81.0623C456.352 83.9412 456.482 86.8248 456.636 89.7085C456.674 90.3994 456.641 91.0184 456.352 91.7525C455.934 92.8128 455.867 94.1083 456.521 95.2551C456.698 95.5669 456.828 95.9604 456.828 96.3202C456.833 100.749 457.919 105.024 458.636 109.357C459.251 113.085 459.837 116.818 460.472 120.541C460.635 121.515 460.938 122.46 461.169 123.405C461.587 123.377 461.841 123.357 462.053 123.338C462.582 125.32 463.106 127.273 463.687 129.441C464.499 128.592 464.528 127.738 464.576 126.884C464.663 125.392 464.706 123.89 464.869 122.403C464.946 121.712 465.259 121.05 465.475 120.33C465.85 120.387 466.057 120.426 466.263 120.45C467.21 120.565 467.71 120.272 467.47 119.471C467.042 118.032 467.686 116.343 466.422 115.095C466.23 114.903 466.239 114.462 466.225 114.135C466.167 112.912 466.023 111.679 466.124 110.47C466.254 108.882 465.932 107.442 465.514 105.916C464.932 103.786 464.951 101.521 465.355 99.3094C465.427 98.9256 465.739 98.5897 465.937 98.2299C466.062 98.2395 466.186 98.2443 466.316 98.2538C472.81 125.281 479.308 152.309 485.835 179.447Z" fill="#00040E"/>
<path d="M23.0058 195.539C25.2505 195.813 25.534 195.429 24.8131 193.308C24.6545 192.848 24.64 192.339 24.5007 191.874C24.3709 191.432 24.1498 191.01 23.9864 190.578C23.8133 190.127 23.5778 189.681 23.5057 189.211C23.3904 188.443 23.275 187.647 23.3567 186.884C23.6547 183.962 22.4675 181.217 22.3954 178.343C22.3522 176.568 22.2272 174.845 23.0155 173.132C23.3807 172.341 23.3807 171.223 23.15 170.354C22.7896 168.987 23.5778 167.989 24.1161 167.073C25.1688 165.273 24.8179 163.608 24.3132 161.847C24.2171 161.507 24.145 161.113 24.2219 160.777C24.5679 159.213 24.3372 157.74 24.0729 156.157C23.6211 153.422 22.8088 150.668 23.4384 147.789C31.0471 179.428 38.6557 211.066 46.2692 242.714C45.9087 243.146 45.5674 243.554 45.1252 244.082C46.3124 244.557 47.3218 245.123 47.0526 246.711C46.6537 246.649 46.2115 246.577 45.4473 246.457C45.851 246.912 46.0336 247.138 46.2403 247.34C47.2833 248.361 47.961 249.508 48.2927 251C49.5376 256.585 50.9314 262.142 52.2724 267.707C52.4118 268.293 52.5945 268.873 52.7867 269.574C53.3347 269.473 53.8153 269.401 54.2912 269.291C59.213 268.125 64.1252 266.935 69.0518 265.798C69.8786 265.606 70.7533 265.63 71.4839 265.567C72.4596 265.198 73.3392 264.761 74.2669 264.531C77.8284 263.634 81.4045 262.794 84.9805 261.945C86.0331 261.695 87.1001 261.503 88.3498 261.249C88.0951 261.983 87.8788 262.597 87.5952 263.403C88.0038 263.365 88.5373 263.451 88.6286 263.288C89.1909 262.286 90.8107 262.146 90.7675 260.568C100.693 258.188 110.637 255.803 120.693 253.395C122.312 255.357 123.894 257.267 125.47 259.181C125.345 258.02 124.672 257.147 124.091 256.226C123.476 255.247 122.875 254.263 122.125 253.054C130.07 251.149 137.828 249.288 145.85 247.363C145.037 252.19 144.268 256.758 143.475 261.484C141.822 261.897 140.168 262.329 138.505 262.727C123.509 266.321 108.513 269.895 93.5264 273.523C92.3536 273.806 91.301 273.954 90.2291 272.774C90.1042 273.503 90.0465 273.844 89.96 274.338C86.7925 275.096 83.5626 275.874 80.3567 276.641C79.3809 275.408 78.4629 274.314 76.7758 275.317C76.5884 275.427 76.1654 275.135 75.8434 275.048C75.1464 274.861 74.8388 274.348 74.6946 273.7C73.9448 273.978 73.4305 273.566 73.0268 273.048C72.5654 272.462 72.0703 271.848 71.8252 271.167C71.4935 270.246 70.9312 270.039 70.0708 270.145C69.7488 270.183 69.4123 270.126 68.9365 270.102C69.2585 271.301 68.8596 272.102 67.6243 272.4C67.7637 273.062 67.8887 273.643 68.0233 274.3C69.3018 274.214 70.6332 273.82 71.7723 274.127C72.9066 274.434 73.8439 275.447 74.81 276.109C74.4351 277.342 73.7574 276.665 73.1566 276.685C73.4113 277.112 73.642 277.495 74.0073 278.114C68.1867 279.626 62.4862 280.926 56.7617 282.279C56.728 281.559 56.8338 281.257 57.2904 280.734C56.68 280.403 56.084 280.082 55.5312 279.779C54.8727 280.072 54.2864 280.331 53.4981 280.681C53.6086 281.291 53.7432 282.01 53.9018 282.869C53.3106 283.383 52.6377 283.234 52.0658 282.514C51.7293 282.087 51.4025 281.627 51.2054 281.123C50.3835 279.016 50.4027 279.007 48.8262 277.74C49.1867 276.948 49.5664 276.109 50.0519 275.048C49.6866 275.13 49.5183 275.159 49.3549 275.212C49.2011 275.26 49.0569 275.331 48.7878 275.442C48.3215 274.713 47.8649 273.988 47.3987 273.268C46.918 272.525 46.423 271.791 45.9327 271.052C46.3172 270.615 46.7066 270.174 47.168 269.651C46.7306 269.391 46.4182 269.065 46.0769 269.032C44.9282 268.926 44.6734 268.12 44.4571 267.223C44.1639 265.994 43.7938 264.838 44.0678 263.475C44.2456 262.597 43.7025 261.556 43.4045 260.606C43.169 259.858 42.4336 259.143 43.4237 258.413C43.1161 257.545 43.5775 256.859 43.9476 256.302C43.592 255.419 43.3228 254.642 42.9623 253.908C42.6787 253.337 42.2461 252.843 41.9385 252.282C41.7703 251.979 41.7078 251.61 41.6309 251.264C41.3377 249.988 41.0541 248.707 40.7706 247.431C39.3959 246.927 39.6507 245.555 39.0979 244.461C40.2899 243.376 41.4531 242.321 42.6787 241.208C42.323 240.872 41.8664 240.795 41.4146 241.289C40.8427 241.913 40.4149 242.095 39.9006 241.179C39.5737 240.598 39.1796 240.699 38.848 241.318C38.6557 241.678 38.4827 242.047 38.1174 242.786C37.7088 241.903 37.3724 241.4 37.2426 240.848C36.7523 238.828 35.3681 237.46 33.8012 236.314C31.571 234.677 30.2107 232.489 29.5715 229.899C27.0865 219.808 24.6833 209.694 22.2608 199.589C21.9148 198.116 21.9725 196.72 23.0058 195.539Z" fill="#00040E"/>
<path d="M94.6174 88.9499C93.9541 87.4816 95.1028 85.7783 93.1082 84.7707C93.906 84.502 94.305 84.3341 94.7183 84.2333C108.2 81.0186 121.687 77.8135 135.17 74.5988C136.669 74.239 138.135 73.5624 139.837 74.2629C139.808 73.0826 140.721 73.2122 141.365 73.0538C145.845 71.9695 150.339 70.9331 154.823 69.8631C157.308 69.2682 159.784 68.6156 162.273 68.0398C162.956 67.8815 163.686 67.9151 164.393 67.8623C164.556 67.8527 164.763 67.9199 164.883 67.8479C167.618 66.2406 170.766 66.0247 173.742 65.3001C193.049 60.6076 212.386 56.0159 231.708 51.3857C247.136 47.6912 262.56 43.9823 277.989 40.2782C279.018 40.0335 280.037 39.7312 281.075 39.5681C281.805 39.4529 282.594 38.7476 283.343 39.6832C283.425 39.784 284.18 39.3953 284.588 39.1794C284.968 38.9827 285.271 38.5941 285.665 38.4885C287.049 38.0999 288.458 37.7976 289.952 37.4377C290 37.9223 290.039 38.311 290.097 38.9059C292.615 36.219 295.86 35.9407 299.022 35.4465C299.349 35.3937 299.69 35.4129 300.003 35.317C301.68 34.794 303.348 34.2422 304.977 33.7144C305.53 34.7316 305.376 35.5425 304.458 35.7536C302.704 36.1566 301.858 37.4617 300.959 38.7764C300.81 38.9923 300.632 39.1938 300.382 39.5105C301.68 39.2706 302.468 38.762 303.276 37.7496C304.381 36.3678 306.02 35.4081 307.438 34.2854C307.607 34.151 307.861 34.1414 308.049 34.0215C308.794 33.5465 309.471 32.87 310.284 32.5965C311.75 32.1023 313.293 31.848 314.97 31.4497C314.864 31.8192 314.802 32.0543 314.696 32.4381C315.48 32.4765 316.176 32.6492 316.571 31.656C316.705 31.3106 317.143 30.9411 317.508 30.8548C320.531 30.1351 323.578 29.5209 326.607 28.8012C328.923 28.2494 331.216 27.5729 333.523 26.9875C335.176 26.5701 336.844 26.2054 338.656 25.7832C336.969 28.4461 337.003 28.9403 338.983 31.1139C327.914 33.748 316.921 36.3678 305.694 39.0403C305.924 38.5461 306.064 38.2438 306.28 37.7784C305.819 37.9847 305.309 38.0471 305.179 38.3014C304.453 39.7168 303.036 39.6928 301.8 39.9999C298.349 40.854 294.889 41.66 291.442 42.4805C291.164 41.9815 290.914 41.5257 290.587 40.9355C290.236 41.3002 289.741 41.5929 289.775 41.8232C289.919 42.9651 289.145 43.0467 288.381 43.2242C284.478 44.1118 280.57 44.9803 276.677 45.9159C272.567 46.9043 268.477 47.9647 264.372 48.9771C262.056 49.5481 259.729 50.0902 257.326 50.666C256.586 49.6056 255.99 48.4061 254.452 48.1998C253.88 49.2122 253.13 50.1574 253.38 51.592C251.726 51.9999 250.068 52.4221 248.4 52.8204C226.368 58.0934 204.335 63.3713 182.297 68.6156C181.49 68.8075 180.62 68.7116 179.533 68.7548C179.259 69.4745 178.327 69.6184 177.433 69.8247C171.204 71.2833 164.97 72.7276 158.745 74.2054C155.448 74.9875 152.17 75.8463 148.873 76.614C148.262 76.7579 147.546 76.7627 146.945 76.5996C145.244 76.139 145.258 76.091 143.124 76.8203C143.518 77.1034 143.831 77.3241 144.143 77.5496C144.1 77.6408 144.071 77.7799 144.013 77.7943C143.639 77.8951 143.259 78.015 142.874 78.0438C141.682 78.135 140.481 78.1446 139.447 78.8835C139.361 78.9459 139.236 78.9603 139.125 78.9699C136.866 79.1138 134.833 80.1502 132.637 80.5724C130.397 81.0042 128.195 81.6232 125.975 82.1558C123.754 82.6884 121.534 83.2162 119.313 83.7439C117.092 84.2717 114.872 84.7995 112.651 85.3273C110.431 85.8599 108.21 86.3925 105.994 86.9251C103.774 87.4577 101.563 88.0334 99.3325 88.5084C98.6885 88.6476 97.9771 89.2281 97.309 88.4892C97.2802 88.4605 97.0783 88.5084 97.0687 88.5516C96.8187 89.5352 96.1891 89.0506 95.6364 88.9451C95.3239 88.9019 94.9923 88.9499 94.6174 88.9499Z" fill="#00040E"/>
<path d="M357.911 216.785C358.969 218.225 360.012 219.645 361.05 221.06C360.122 221.847 144.898 273.191 142.596 273.618C142.456 271.92 143.038 270.336 143.307 268.715C143.422 268.014 144.052 267.976 144.59 267.846C148.056 267.016 151.521 266.191 154.987 265.361C159.591 264.262 164.172 263.072 168.801 262.098C171.271 261.58 173.66 260.784 176.121 260.265C178.625 259.738 181.105 259.09 183.595 258.495C186.032 257.914 188.469 257.343 190.906 256.758C193.395 256.163 195.88 255.549 198.37 254.954C239.062 245.209 279.758 235.464 320.45 225.719C332.307 222.879 344.155 220.014 356.013 217.169C356.609 217.025 357.209 216.924 357.911 216.785Z" fill="#00040E"/>
<path d="M227.973 170.527C227.521 171.453 227.218 172.024 226.959 172.619C221.994 183.981 217.024 195.338 212.102 206.719C211.641 207.789 211.059 208.403 209.877 208.628C207.863 209.012 205.878 209.554 203.652 210.087C199.961 195.112 196.38 180.176 192.698 165.062C195.404 164.395 198.029 163.747 200.888 163.047C203.542 173.54 205.974 184.005 208.858 194.527C209.108 194.033 209.382 193.548 209.603 193.039C214.553 181.673 219.523 170.316 224.411 158.92C224.983 157.591 225.724 156.92 227.132 156.67C229.04 156.334 230.914 155.797 233.001 155.293C236.649 170.316 240.273 185.238 243.94 200.333C241.171 201.009 238.547 201.647 235.716 202.338C233.15 191.778 230.607 181.347 227.973 170.527Z" fill="#00040E"/>
<path d="M57.5932 107.61C57.1414 108.383 57.2039 109.198 57.3769 110.028C57.6605 111.381 57.9729 112.725 57.3769 114.097C57.2135 114.471 57.1558 115.134 57.3721 115.378C58.2997 116.429 57.7999 117.557 57.8479 118.775C54.743 119.524 51.7245 120.253 48.6435 120.992C47.4227 119.629 45.8366 118.895 44.0245 118.104C43.7361 119.533 43.4814 120.819 43.1882 122.268C41.6069 122.657 39.939 123.07 38.276 123.477C37.3051 123.717 36.339 124.029 35.3537 124.168C34.4789 124.288 33.5416 124.068 32.7005 124.269C31.8161 124.48 31.0471 125.157 30.1627 125.387C27.0961 126.193 23.996 126.894 20.915 127.637C20.2709 127.791 19.6317 127.959 18.7809 128.175C20.1268 134.431 21.7754 140.549 22.8857 146.83C22.7367 146.623 22.5636 146.431 22.4483 146.206C22.1647 145.664 22.0061 145.035 21.6312 144.57C19.8336 142.324 19.3097 139.69 19.1607 136.922C19.1174 136.096 19.103 135.257 18.3916 134.551C17.2813 135.07 17.2236 136.092 17.1756 137.046C17.0314 139.657 16.9401 142.271 16.8439 144.882C16.8007 146.048 16.7526 147.218 16.8007 148.384C16.8632 149.987 17.0698 151.585 17.1083 153.187C17.1612 155.241 17.1708 157.304 17.0843 159.353C16.892 163.853 16.6276 168.349 16.3873 172.85C16.3777 172.994 16.3104 173.128 16.123 173.291C11.5712 155.063 7.19254 136.802 2.77539 118.391C20.766 114.083 38.6028 109.808 56.5742 105.499C56.7328 106.128 56.7953 106.617 56.9876 107.054C57.0933 107.293 57.4154 107.442 57.6413 107.634L57.5932 107.61Z" fill="#00040E"/>
<path d="M414.954 158.949C412.21 159.626 409.456 160.278 406.716 160.983C405.841 161.209 405.361 160.686 404.822 160.211C400.655 156.521 396.488 152.832 392.325 149.142C391.157 148.11 389.994 147.074 388.831 146.037C388.418 145.668 388.048 145.332 387.365 145.514C385 146.143 382.616 146.695 380.237 147.28C380.088 147.319 379.958 147.439 379.704 147.592C381.194 153.772 382.693 159.966 384.236 166.367C381.516 167.034 378.891 167.677 376.041 168.377C372.34 153.388 368.769 138.452 365.073 123.333C367.822 122.656 370.437 122.018 373.292 121.318C374.825 127.589 376.334 133.759 377.877 140.064C378.454 139.973 378.939 139.93 379.406 139.819C381.352 139.359 383.284 138.807 385.25 138.428C386.269 138.231 386.731 137.722 387.082 136.792C389.461 130.444 391.931 124.129 394.272 117.767C394.758 116.448 395.474 115.848 396.829 115.594C399.05 115.181 401.237 114.572 403.688 113.986C403.462 114.677 403.342 115.138 403.169 115.574C400.295 122.863 397.411 130.151 394.532 137.435C394.411 137.746 394.325 138.077 394.157 138.361C393.666 139.2 393.964 139.766 394.647 140.361C396.959 142.367 399.223 144.43 401.501 146.469C405.731 150.255 409.956 154.045 414.19 157.826C414.474 158.081 414.82 158.273 415.137 158.493C415.079 158.647 415.017 158.796 414.954 158.949Z" fill="#00040E"/>
<path d="M253.409 168.296C253.846 168.516 254.029 168.607 254.514 168.852C254.269 168.06 254.091 167.499 253.918 166.947C254.125 166.871 254.303 166.803 254.514 166.727C254.5 166.563 254.538 166.367 254.462 166.252C253.601 164.956 253.822 163.608 254.226 162.245C257.023 152.779 263.541 147.294 272.928 144.963C278.734 143.518 284.42 143.821 289.837 146.575C290.712 147.021 291.529 147.577 292.476 148.144C291.044 150.336 289.717 152.371 288.318 154.516C282.954 151.147 277.441 150.802 271.803 153.263C266.074 155.763 262.868 160.201 262.113 166.587C261.854 166.343 261.71 166.218 261.58 166.079C261.474 165.969 261.388 165.844 261.282 165.714C261.2 165.829 261.104 165.897 261.099 165.973C261.08 166.295 261.215 166.712 261.056 166.928C260.652 167.494 260.912 167.931 261.282 168.238C262.032 168.867 262.229 169.677 262.383 170.575C262.801 173.06 263.565 175.426 265.031 177.522C265.281 177.882 265.42 178.319 265.622 178.712C265.867 179.197 266.031 179.725 266.732 179.816C267.011 179.849 267.266 180.185 267.506 180.416C274.255 186.845 287.098 185.444 292.476 177.191C292.779 176.731 293.096 176.275 293.49 175.689C295.677 176.951 297.821 178.189 300.032 179.465C298.715 182.181 296.917 184.35 294.682 186.14C289.381 190.381 283.257 192.329 276.514 192.089C264.488 191.662 255.74 183.616 253.851 172.033C253.664 170.887 253.577 169.725 253.409 168.296Z" fill="#00040E"/>
<path d="M352.211 147.664C353.379 148.691 352.927 149.761 352.158 150.821C351.379 151.891 350.653 153.005 349.822 154.031C349.274 154.713 348.875 155.404 348.918 156.286C348.971 157.404 348.591 158.306 347.842 159.146C347.279 159.775 346.904 160.571 346.443 161.291C346.342 161.243 346.246 161.2 346.145 161.152C346.323 160.302 346.539 159.458 346.669 158.599C347.851 150.884 343.819 142.382 335.628 139.872C327.429 137.363 318.2 141.609 315.148 149.334C311.908 157.539 316.09 169.256 326.53 171.496C328.351 171.885 330.255 171.871 332.187 172.053C332.004 172.955 331.288 173.55 330.442 174.207C331.163 174.538 331.312 174.97 330.889 175.632C330.312 176.534 329.529 177.316 329.591 178.578C329.63 179.332 328.952 179.547 328.14 179.519C317.84 179.164 309.159 172.307 306.391 162.298C302.848 149.478 309.635 137.176 322.613 133.006C328.678 131.058 334.758 130.905 340.776 133.256C345.669 135.17 349.481 138.399 352.086 142.948C353.71 145.783 353.576 145.236 352.211 147.664Z" fill="#00040E"/>
<path d="M368.231 104.059C365.606 93.2585 363.04 82.6932 360.43 71.9407C362.42 71.4513 364.28 70.9955 366.289 70.5061C368.12 78.0151 369.913 85.3753 371.71 92.7403C371.826 92.7643 371.946 92.7883 372.061 92.8123C372.326 92.2413 372.604 91.6752 372.854 91.0994C376.229 83.3505 379.622 75.6112 382.934 67.8335C383.429 66.6676 384.092 66.0679 385.313 65.8711C386.562 65.6696 387.793 65.3146 389.196 64.9883C391.802 75.712 394.383 86.3253 396.997 97.1066C395.007 97.5912 393.143 98.0422 391.138 98.5316C389.302 91.0082 387.5 83.6432 385.702 76.2781C385.592 76.2781 385.481 76.2781 385.37 76.2781C385.096 76.8731 384.818 77.4681 384.553 78.0678C381.17 85.8119 377.776 93.5512 374.431 101.315C373.998 102.313 373.484 102.96 372.326 103.128C371.018 103.311 369.74 103.704 368.231 104.059Z" fill="#00040E"/>
<path d="M120.813 189.767C119.448 191.854 118.116 193.884 116.708 196.038C111.628 192.823 106.316 192.368 100.842 194.512C95.3 196.686 91.8634 200.721 90.6041 206.958C89.3015 205.14 88.1912 203.59 87.081 202.04C86.9944 202.079 86.9127 202.122 86.8262 202.16C86.9464 202.467 87.0233 202.799 87.1963 203.072C87.9894 204.348 88.7776 205.629 89.6332 206.858C90.258 207.755 90.5849 208.671 90.5801 209.794C90.5753 212.39 91.2289 214.861 92.3729 217.188C94.1657 220.834 96.9246 223.478 100.755 224.913C101.649 225.249 102.255 225.748 102.745 226.544C103.942 228.483 105.211 230.383 106.441 232.302C106.667 232.657 106.845 233.046 107.124 233.569C105.072 233.885 103.202 233.636 101.366 233.305C91.4693 231.52 84.2788 224.303 82.3466 214.434C81.7986 211.646 82.3418 209.065 83.3319 206.517C83.7933 205.332 84.2932 204.147 84.9373 203.058C85.3074 202.429 86.0091 201.992 86.5474 201.46C86.8502 201.158 87.2155 200.879 87.403 200.51C87.9365 199.483 88.3931 198.413 88.917 197.286C89.4457 197.199 90.2628 197.761 90.508 196.767C90.532 196.681 90.6618 196.561 90.7483 196.556C92.9208 196.417 92.8247 194.397 93.5745 193.102C93.7139 192.857 93.4255 192.396 93.4351 192.036C93.4447 191.749 93.5697 191.24 93.6995 191.221C94.7569 191.067 94.8915 190.165 95.2279 189.445C95.5211 188.822 95.848 188.313 96.5401 188.03C102.664 185.53 108.902 184.796 115.3 186.859C117.256 187.483 119.111 188.352 120.813 189.767Z" fill="#00040E"/>
<path d="M133.535 179.346C142.235 177.24 150.723 175.186 159.26 173.118C159.663 173.598 160.038 174.049 160.413 174.5C160.49 174.462 160.562 174.423 160.639 174.39C160.543 173.939 160.442 173.493 160.346 173.046C162.071 172.37 162.326 172.49 162.49 174.112C162.187 174.064 161.894 174.016 161.514 173.953C161.312 174.894 161.86 175.431 162.317 176.031C162.812 176.679 163.331 177.341 163.648 178.08C164.09 179.111 163.888 179.437 162.764 179.725C160.5 180.306 158.226 180.843 155.953 181.395C152.218 182.297 148.488 183.194 144.754 184.096C144.384 184.188 144.028 184.331 143.528 184.499C144.028 186.596 144.499 188.635 144.994 190.67C146.998 198.932 148.998 207.194 151.026 215.452C151.233 216.291 151.199 217.04 150.964 217.884C150.502 219.535 150.223 221.243 149.834 223.09C148.166 223.503 146.455 223.92 144.523 224.395C142.576 216.872 140.841 209.373 139.01 201.897C137.184 194.465 135.396 187.018 133.535 179.346Z" fill="#00040E"/>
<path d="M442.548 0.867188C442.726 1.39977 442.894 1.80281 442.995 2.22024C443.288 3.40057 443.553 4.5857 443.875 5.96754C412.993 13.371 382.227 20.7408 351.374 28.1346C350.658 26.4361 348.961 25.4045 348.793 23.3318C380.059 15.842 411.268 8.36178 442.548 0.867188Z" fill="#00040E"/>
<path d="M267.876 128.357C265.834 128.851 264.007 129.293 261.935 129.796C260.806 125.219 259.7 120.723 258.542 116.036C252.971 117.379 247.53 118.694 241.883 120.056C242.984 124.653 244.065 129.153 245.146 133.654C243.426 134.906 243.286 132.939 242.224 132.282C242.426 133.026 242.57 133.548 242.729 134.115C241.695 134.475 240.667 134.834 239.677 135.18C238.773 133.716 232.169 107.476 231.573 103.129C233.419 102.668 235.288 102.207 237.379 101.689C238.47 106.123 239.537 110.46 240.648 114.966C246.189 113.627 251.63 112.312 257.307 110.94C256.245 106.507 255.206 102.169 254.125 97.6685C256.115 97.1791 257.98 96.7185 260.061 96.2051C262.666 106.914 265.242 117.518 267.876 128.357Z" fill="#00040E"/>
<path d="M436.704 199.201C437.146 197.963 438.05 197.531 439.083 197.281C441.193 196.773 443.298 196.255 445.413 195.76C445.673 195.698 445.956 195.751 446.307 195.751C446.562 197.301 445.053 197.085 444.365 197.771C445.23 197.881 446.033 197.987 446.812 198.087C447.321 196.998 447.898 196.135 449.037 195.828C449.191 195.784 449.436 195.698 449.46 195.592C449.715 194.374 450.777 194.484 451.623 194.283C458.708 192.565 465.793 190.866 472.882 189.163C473.204 189.086 473.536 189.057 473.915 188.995C474.54 190.578 475.156 192.138 475.814 193.803C475.603 193.87 475.256 194.009 474.896 194.095C470.109 195.252 465.341 196.518 460.52 197.493C458.914 197.819 457.367 198.251 455.795 198.663C451.383 199.824 446.956 200.962 442.481 201.825C438.405 202.612 434.474 203.927 430.422 204.786C426.399 205.64 422.419 206.7 418.415 207.66C414.358 208.634 410.297 209.593 406.236 210.562C403.856 211.133 401.477 211.724 399.093 212.275C398.396 212.439 397.675 212.51 396.959 212.592C396.281 212.664 395.455 212.223 395.051 213.206C395.012 213.307 394.748 213.36 394.589 213.355C391.84 213.273 389.485 214.794 386.856 215.245C385.798 215.428 385.14 215.26 384.602 214.411C384.308 213.94 383.958 213.489 383.77 212.976C383.285 211.676 383.905 210.481 385.25 210.159C391.417 208.672 397.594 207.213 403.76 205.74C404.515 205.558 405.289 205.145 406.019 205.222C407.418 205.361 408.615 205.025 409.768 204.32C409.86 204.263 409.98 204.258 410.09 204.234C414.012 203.514 417.805 202.271 421.698 201.427C425.558 200.592 429.393 199.632 433.219 198.663C434.435 198.366 435.579 198.044 436.704 199.201Z" fill="#00040E"/>
<path d="M142.394 268.456C142.077 270.442 141.803 272.179 141.514 273.988C138.462 274.727 135.496 275.447 132.526 276.162C123.004 278.446 113.478 280.715 103.956 283.013C102.173 283.445 100.352 283.666 98.5924 284.247C96.8044 284.837 94.925 285.153 93.0841 285.595C91.1904 286.051 89.2966 286.506 87.4029 286.962C85.562 287.404 83.7259 287.845 81.8851 288.287C80.0442 288.728 78.2129 289.193 76.3624 289.582C75.8049 289.697 75.1704 289.712 74.6273 289.572C73.5651 289.294 72.6711 289.232 72.3202 290.609C71.5031 289.999 70.811 289.481 70.0756 288.929C69.3306 289.822 68.0713 290.134 68.302 291.52C61.0298 293.272 53.8681 294.994 46.3508 296.803C46.8555 295.834 47.2016 295.177 47.6918 294.241C46.7161 294.409 46.1009 294.519 45.3703 294.644C45.1492 293.689 44.957 292.845 44.7214 291.818C45.726 291.564 46.62 291.338 47.3458 291.151C48.1292 291.684 48.8358 292.048 49.3933 292.571C49.922 293.065 50.0278 293.972 50.8353 294.284C51.5082 292.969 51.5082 292.969 51.1573 290.278C51.9888 290.057 52.83 289.755 53.6903 289.635C54.4738 289.524 55.2813 289.611 56.2906 289.611C56.5069 290.393 56.728 291.185 57.0308 292.269C57.4874 292.374 58.2468 292.557 59.0351 292.739C59.1457 292.154 59.2178 291.78 59.3091 291.281C60.2656 291.281 61.2461 291.281 62.3708 291.281C62.2602 290.446 62.1785 289.807 62.0776 289.035C62.5006 288.944 62.9524 288.848 63.5195 288.723C63.4619 288.344 63.3994 287.941 63.3129 287.404C63.7839 287.279 64.2357 287.164 64.8798 286.996C64.8798 287.672 64.8798 288.186 64.8798 288.762C65.644 288.963 66.4227 289.169 67.2157 289.38C67.7829 287.96 66.1391 287.811 65.7209 286.847C66.8841 286.382 67.9511 285.955 68.9557 286.646C69.5132 286.238 69.9122 285.753 70.3976 285.628C75.0407 284.477 79.6981 283.388 84.1778 282.323C84.8411 282.85 85.3794 283.277 86.0186 283.786C86.7156 282.726 87.1433 281.545 88.393 281.32C89.0563 281.2 89.7581 281.301 90.0945 281.301C91.1712 280.873 91.945 280.461 92.7669 280.264C105.855 277.107 118.948 273.979 132.041 270.841C135.069 270.116 138.102 269.387 141.13 268.667C141.456 268.6 141.783 268.562 142.394 268.456Z" fill="#00040E"/>
<path d="M187.983 137.982C188.709 141.039 189.425 144.033 190.17 147.161C188.113 147.655 186.243 148.106 184.22 148.591C181.61 137.833 179.033 127.23 176.481 116.707C176.712 116.506 176.784 116.391 176.88 116.372C181.913 115.172 186.93 113.939 191.977 112.816C194.006 112.365 196.082 112.519 198.106 113.008C202.609 114.088 205.796 117.801 206.401 122.595C206.997 127.326 205.243 130.953 201.311 133.578C199.581 134.729 197.673 135.487 195.664 135.996C193.453 136.552 191.237 137.08 189.021 137.627C188.714 137.699 188.416 137.829 187.983 137.982ZM186.733 132.906C189.92 132.057 192.886 131.327 195.803 130.444C196.731 130.166 197.601 129.552 198.37 128.938C199.696 127.882 200.35 126.443 200.369 124.72C200.413 120.541 197.822 117.859 193.645 117.955C190.223 118.032 187.051 119.332 183.609 120.023C184.652 124.336 185.657 128.468 186.733 132.906Z" fill="#00040E"/>
<path d="M130.383 132.906C131.079 135.751 131.728 138.419 132.42 141.235C134.968 140.626 137.328 140.035 139.707 139.498C140.452 139.33 141.231 139.316 141.99 139.225C142.202 139.201 142.423 139.181 142.625 139.109C143.696 138.711 144.768 138.299 145.749 137.924C146.306 138.486 146.725 138.913 147.143 139.335C147.263 139.258 147.383 139.177 147.503 139.1C147.359 138.692 147.22 138.284 147.066 137.848C147.604 137.488 147.969 137.588 148.138 138.241C148.464 139.532 148.782 140.822 149.128 142.214C147.989 142.636 146.974 143.437 145.749 142.43C145.653 142.679 145.557 142.924 145.441 143.231C145.177 143.02 144.932 142.828 144.682 142.631C144.129 143.457 143.341 143.816 142.418 144.027C140.14 144.55 137.871 145.117 135.602 145.678C135.016 145.822 134.434 145.99 133.632 146.206C134.348 149.161 135.05 152.04 135.775 155.034C138.876 154.291 141.788 153.6 144.696 152.899C145.725 152.654 146.744 152.357 147.782 152.155C148.412 152.031 149.07 152.045 149.642 151.997C150.132 153.446 150.56 154.713 150.988 155.984C150.863 156.075 150.743 156.167 150.618 156.258C150.368 155.797 150.123 155.337 149.873 154.876C149.628 156.55 149.209 157.059 147.71 157.424C142.577 158.676 137.438 159.924 132.3 161.166C131.93 161.257 131.546 161.291 130.988 161.377C128.397 150.716 125.821 140.107 123.202 129.321C131.06 127.417 138.775 125.55 146.676 123.631C147.09 125.253 147.479 126.788 147.921 128.544C142.149 130.137 136.347 131.327 130.383 132.906Z" fill="#00040E"/>
<path d="M300.065 98.028C301.003 97.8121 301.805 97.6298 302.603 97.4475C305.477 96.7901 308.352 96.1328 311.226 95.4803C311.389 95.4419 311.553 95.4131 311.721 95.3891C318.2 94.5015 322.848 98.0089 323.756 104.477C324.458 109.471 322.617 113.128 318.167 115.551C317.58 115.867 316.984 116.208 316.35 116.385C312.447 117.475 308.534 118.521 304.526 119.605C303.992 118.425 303.555 117.412 303.079 116.424C302.646 115.522 302.219 114.615 301.7 113.761C301.459 113.363 301.051 112.988 300.633 112.792C299.162 112.106 298.249 111.045 298.027 109.414C297.989 109.145 297.874 108.877 297.744 108.641C295.134 103.848 293.86 98.6134 292.673 93.3451C292.332 91.8337 291.962 90.3271 291.563 88.643C292.587 88.3743 293.533 88.12 294.485 87.8801C295.394 87.6498 296.302 87.4339 297.379 87.1748C298.282 90.8261 299.157 94.3527 300.065 98.028ZM304.103 114.745C306.77 114.102 309.193 113.526 311.615 112.936C312.154 112.806 312.692 112.657 313.211 112.461C313.778 112.24 314.345 111.995 314.865 111.683C318.32 109.615 318.835 104.333 315.816 101.665C315.292 101.204 314.61 100.777 313.946 100.653C312.822 100.446 311.606 100.278 310.5 100.475C307.828 100.955 305.194 101.651 302.546 102.274C302.132 102.37 301.733 102.538 301.19 102.716C302.156 106.717 303.108 110.628 304.103 114.745Z" fill="#00040E"/>
<path d="M75.4781 88.835C75.0888 90.8597 74.7523 92.6302 74.3967 94.5015C61.2125 97.6634 48.1053 100.806 34.9548 103.958C34.5991 103.167 34.3732 102.414 33.9502 101.795C33.5657 101.233 32.9745 100.811 32.3881 100.25C31.3163 101.694 30.3358 102.893 31.3211 104.769C25.2457 106.377 19.2472 107.677 13.143 109.179C12.7681 107.84 13.4458 106.559 13.3064 105.158C12.5566 105.503 11.9798 105.782 12.1433 106.809C12.2298 107.365 11.9846 107.984 11.8404 108.56C11.6434 109.328 11.1387 109.793 10.3264 109.875C9.02385 110.004 7.83665 110.825 6.42836 110.474C6.12074 110.398 5.70739 110.92 5.30845 111.031C4.08761 111.367 2.85234 111.64 1.62189 111.938C0.82882 110.474 0.795174 108.992 0.775948 107.519C0.771142 107.25 1.01627 106.799 1.22776 106.741C3.45315 106.132 5.69778 105.585 8.25001 104.942C7.81743 106.142 7.51462 106.986 7.15894 107.984C8.33653 107.341 9.11998 106.516 9.56218 105.384C9.77847 104.832 10.0813 104.467 10.7061 104.328C12.6575 103.901 14.5994 103.421 16.8344 102.893C16.7046 103.647 16.6037 104.227 16.4835 104.928C17.8822 104.683 17.9543 103.546 18.3532 102.514C37.2426 97.9993 56.2042 93.4555 75.4781 88.835Z" fill="#00040E"/>
<path d="M85.9369 138.346C87.9076 137.871 89.7677 137.415 91.7768 136.931C94.3867 147.688 96.963 158.296 99.5777 169.063C98.1261 169.418 96.862 169.726 95.5787 170.037C95.1077 168.603 95.5595 167.374 95.7854 166.132C95.8959 165.537 96.0594 164.923 96.0209 164.332C95.9248 162.917 95.0067 162.399 93.6994 162.989C93.1995 163.215 92.7573 163.55 92.1181 163.944C91.6566 162.169 91.2048 160.441 90.6953 158.488C90.0561 158.853 89.5466 159.136 89.0419 159.429C85.2112 161.66 81.1449 162.994 76.646 162.725C74.9445 162.624 73.368 162.164 71.902 161.295C71.0224 160.777 70.1573 160.278 70.2726 159.242C69.8641 159.194 69.4555 159.256 69.3642 159.117C68.9509 158.474 68.5375 157.807 68.302 157.087C68.028 156.253 67.9848 155.346 67.7541 154.496C67.6099 153.969 67.7589 153.23 66.8745 153.081C66.6918 153.052 66.5428 152.553 66.4611 152.251C66.24 151.45 66.0958 150.624 65.8651 149.823C65.6873 149.209 65.8603 148.729 66.0333 148.125C66.4563 146.613 66.5332 145.006 65.6729 143.451C66.3698 142.952 66.9946 142.679 67.3984 143.518C67.7589 143.231 68.1241 142.736 68.5615 142.669C68.8403 142.626 69.22 143.202 69.5805 143.523C69.6286 143.192 69.6911 142.76 69.7584 142.309C70.5755 142.396 70.4841 143.029 70.5899 143.446C71.2724 146.138 71.9068 148.844 72.5701 151.541C72.7047 152.078 72.8441 152.62 73.0508 153.134C74.1611 155.921 76.4586 157.433 79.4578 157.246C82.88 157.03 85.9273 155.739 88.7439 153.825C89.4601 153.335 89.3784 152.784 89.2101 152.088C88.2104 148.043 87.2395 143.993 86.2686 139.944C86.1388 139.459 86.0619 138.979 85.9369 138.346Z" fill="#00040E"/>
<path d="M330.846 113.109C328.226 102.323 325.655 91.7236 323.045 80.9759C325.059 80.4865 326.924 80.0355 328.914 79.5557C331.524 90.3129 334.1 100.921 336.719 111.698C334.71 112.178 332.85 112.624 330.846 113.109Z" fill="#00040E"/>
<path d="M167.83 181.068C168.003 181.462 168.152 181.87 168.354 182.249C168.844 183.16 169.262 184.134 169.887 184.945C170.762 186.073 171.757 187.124 172.79 188.117C173.516 188.812 173.857 189.609 174.054 190.564C174.203 191.298 174.568 191.994 174.876 192.689C175.14 193.299 175.501 193.87 175.746 194.484C178.366 200.976 180.966 207.472 183.576 213.964C183.657 214.17 183.706 214.386 183.835 214.804C181.336 215.442 178.865 216.075 176.174 216.766C173.271 204.809 170.401 192.987 167.532 181.16C167.628 181.131 167.729 181.097 167.83 181.068Z" fill="#00040E"/>
<path d="M109.085 233.339C107.677 230.954 106.278 228.589 104.745 225.988C112.185 226.171 118.006 223.762 121.836 217.193C124.043 218.465 126.177 219.693 128.292 220.917C126.201 226.933 116.958 232.941 109.085 233.339Z" fill="#00040E"/>
<path d="M57.6269 107.639C57.079 105.744 57.2712 105.369 59.0833 104.918C60.9146 104.462 62.7506 104.011 64.5915 103.594C65.2356 103.45 65.8604 103.037 66.5237 103.805C66.8842 104.223 68.6241 103.757 69.0038 103.349C70.1093 102.169 70.1093 102.169 71.8733 102.006C70.8015 106.478 71.085 111.007 71.0081 115.628C67.4946 116.453 64.058 117.259 60.4291 118.108C59.7754 114.15 59.2804 110.268 58.2422 106.348C57.9538 106.909 57.7759 107.255 57.5981 107.605C57.5933 107.61 57.6269 107.639 57.6269 107.639Z" fill="#00040E"/>
<path d="M368.259 60.6847C369.629 63.1509 370.788 63.6979 373.282 63.1989C375.815 62.6903 376.786 61.5388 377.065 58.5688C378.281 58.2713 379.545 57.9594 380.79 57.6523C381.785 60.0898 380.963 62.6567 378.709 64.3121C376.921 65.6219 374.854 66.2841 372.686 66.5432C371.542 66.6775 370.35 66.7015 369.211 66.548C366.64 66.1977 364.9 64.384 364.395 61.6347C365.654 61.3181 366.933 61.0062 368.259 60.6847Z" fill="#00040E"/>
<path d="M177.755 187.474C177.097 187.694 176.698 187.824 176.217 187.987C175.631 186.764 175.049 185.583 174.506 184.384C174.347 184.038 174.27 183.645 174.222 183.266C174.073 182.1 174.02 180.919 173.79 179.773C173.727 179.47 173.16 179.269 172.848 179.039C172.05 178.036 171.247 177.019 170.372 175.915C170.675 175.531 171.439 175.219 170.877 174.519C170.569 174.14 170.574 173.66 169.824 173.468C168.873 173.223 168.166 172.297 167.926 171.103C169.704 170.642 171.502 170.177 173.448 169.668C174.9 175.67 176.313 181.519 177.755 187.474Z" fill="#00040E"/>
<path d="M167.104 179.336C166.7 178.904 166.989 178.367 167.243 177.81C167.724 176.759 167.724 175.819 166.407 175.152C166.292 175.243 166.099 175.392 165.84 175.594C165.633 175.32 165.475 174.975 165.205 174.807C165.056 174.715 164.715 174.922 164.427 175.003C164.042 174.097 163.662 173.199 163.225 172.168C164.013 171.985 164.696 171.827 165.45 171.654C167.892 174.84 169.272 178.472 170.661 182.253C169.685 181.634 169.704 181.625 169.262 180.727C169.051 180.296 168.815 179.825 168.459 179.528C168.229 179.336 167.767 179.413 167.104 179.336Z" fill="#00040E"/>
<path d="M87.3596 111.707C87.4894 109.98 87.4942 108.565 87.7393 107.192C87.9268 106.118 88.5564 105.259 89.9743 105.254C90.2675 107.082 90.4358 108.963 91.9883 110.594C90.3589 110.983 89.0371 111.299 87.3596 111.707Z" fill="#00040E"/>
<path d="M484.042 186.519C485.105 186.26 486.042 186.034 487.114 185.775C487.542 187.522 487.931 189.12 488.359 190.881C487.364 191.111 486.518 191.303 485.667 191.5C485.552 190.535 485.571 189.643 485.316 188.837C485.071 188.069 484.538 187.392 484.042 186.519Z" fill="#00040E"/>
<path d="M42.9335 285.436C42.4096 283.243 41.876 281.012 41.3425 278.781C41.4435 278.738 41.5396 278.699 41.6405 278.656C41.7895 278.882 41.9914 279.093 42.0827 279.342C42.698 281.003 43.294 282.667 43.89 284.337C44.1495 285.076 43.9861 285.532 42.9335 285.436Z" fill="#00040E"/>
<path d="M152.704 222.351C152.098 222.509 151.738 222.6 151.137 222.754C151.291 221.449 151.425 220.292 151.56 219.131C151.661 219.122 151.762 219.112 151.858 219.098C152.127 220.129 152.391 221.161 152.704 222.351Z" fill="#00040E"/>
<path d="M178.442 193.572C178.683 193.744 179.067 193.864 179.144 194.09C179.615 195.472 180.019 196.878 180.442 198.279C180.298 198.336 180.153 198.394 180.004 198.447C179.779 197.914 179.505 197.396 179.341 196.844C179.019 195.755 178.76 194.642 178.476 193.543L178.442 193.572Z" fill="#00040E"/>
<path d="M178.476 193.543C177.938 192.31 177.395 191.082 176.813 189.748C178.399 190.66 178.856 191.787 178.452 193.567C178.442 193.572 178.476 193.543 178.476 193.543Z" fill="#00040E"/>
<path d="M64.6924 144.968C64.6203 144.521 64.5482 144.07 64.4761 143.624C64.6203 143.605 64.7597 143.59 64.9038 143.571C64.9519 144.022 65 144.478 65.0528 144.929C64.9327 144.939 64.8125 144.953 64.6924 144.968Z" fill="#00040E"/>
</svg>
