<svg width="20" height="20" viewBox="0 0 20 20" fill="none" xmlns="http://www.w3.org/2000/svg">
<g clip-path="url(#clip0_382_1438)">
<path d="M17 9.00006V7.00006H9V3.00006H7V7.00006H3V9.00006H7V17.0001H9V9.00006H17ZM17 1.00006C17.5 1.00006 18 1.20006 18.39 1.61006C18.8 2.00006 19 2.50006 19 3.00006V17.0001C19 17.5001 18.8 18.0001 18.39 18.3901C18 18.8001 17.5 19.0001 17 19.0001H3C2.5 19.0001 2 18.8001 1.61 18.3901C1.2 18.0001 1 17.5001 1 17.0001V3.00006C1 2.50006 1.2 2.00006 1.61 1.61006C2 1.20006 2.5 1.00006 3 1.00006H17Z" fill="white"/>
</g>
<defs>
<clipPath id="clip0_382_1438">
<rect width="20" height="20" fill="white"/>
</clipPath>
</defs>
</svg>
