<svg width="20" height="20" viewBox="0 0 20 20" fill="none" xmlns="http://www.w3.org/2000/svg">
<g clip-path="url(#clip0_373_1478)">
<path d="M3.8125 4.00003C3.06658 4.00003 2.35121 4.29635 1.82376 4.82379C1.29632 5.35124 1 6.06661 1 6.81253V7.37503H18.997V6.81253C18.997 6.06661 18.7007 5.35124 18.1732 4.82379C17.6458 4.29635 16.9304 4.00003 16.1845 4.00003H3.81325H3.8125ZM1 14.6875V8.50003H18.997V14.6875C18.997 15.4335 18.7007 16.1488 18.1732 16.6763C17.6458 17.2037 16.9304 17.5 16.1845 17.5H3.81325C3.06733 17.5 2.35196 17.2037 1.82451 16.6763C1.29707 16.1488 1.00075 15.4335 1.00075 14.6875H1ZM13.1845 12.625C13.0353 12.625 12.8922 12.6843 12.7868 12.7898C12.6813 12.8953 12.622 13.0383 12.622 13.1875C12.622 13.3367 12.6813 13.4798 12.7868 13.5853C12.8922 13.6908 13.0353 13.75 13.1845 13.75H15.8095C15.9587 13.75 16.1018 13.6908 16.2072 13.5853C16.3127 13.4798 16.372 13.3367 16.372 13.1875C16.372 13.0383 16.3127 12.8953 16.2072 12.7898C16.1018 12.6843 15.9587 12.625 15.8095 12.625H13.1845Z" fill="white"/>
</g>
<defs>
<clipPath id="clip0_373_1478">
<rect width="20" height="20" fill="white"/>
</clipPath>
</defs>
</svg>
