<svg width="20" height="20" viewBox="0 0 20 20" fill="none" xmlns="http://www.w3.org/2000/svg">
<g clip-path="url(#clip0_382_1462)">
<path d="M16.55 2.00012C16.7417 2.00012 16.925 2.03185 17.1 2.0953C17.375 2.18695 17.5938 2.33147 17.7563 2.52887C17.9188 2.72627 18 2.94482 18 3.18452V16.8157C18 17.0554 17.9188 17.274 17.7563 17.4714C17.5938 17.6688 17.375 17.8133 17.1 17.9049C16.9417 17.9613 16.7583 17.9895 16.55 17.9895C16.15 17.9895 15.8042 17.8767 15.5125 17.6511L10 13.1673L4.4875 17.6511C4.1875 17.8838 3.84167 18.0001 3.45 18.0001C3.25833 18.0001 3.075 17.9684 2.9 17.9049C2.625 17.8133 2.40625 17.6688 2.24375 17.4714C2.08125 17.274 2 17.0554 2 16.8157V3.18452C2 2.94482 2.08125 2.72627 2.24375 2.52887C2.40625 2.33147 2.625 2.18695 2.9 2.0953C3.075 2.03185 3.25833 2.00012 3.45 2.00012H16.55Z" fill="white"/>
</g>
<defs>
<clipPath id="clip0_382_1462">
<rect width="20" height="20" fill="white"/>
</clipPath>
</defs>
</svg>
