<svg width="20" height="20" viewBox="0 0 20 20" fill="none" xmlns="http://www.w3.org/2000/svg">
<g clip-path="url(#clip0_884_9728)">
<g clip-path="url(#clip1_884_9728)">
<path d="M16.1742 2.33109H15.7596V3.47189C15.7596 3.85027 15.4518 4.15637 15.0746 4.15637C14.6973 4.15637 14.3907 3.85027 14.3907 3.47189V2.33109H13.2216V3.47189C13.2216 3.85027 12.9144 4.15637 12.5372 4.15637C12.1593 4.15637 11.8532 3.85027 11.8532 3.47189V2.33109H10.6842V3.47189C10.6842 3.85027 10.3775 4.15637 9.99972 4.15637C9.6219 4.15637 9.31524 3.85027 9.31524 3.47189V2.33109H8.1462V3.47189C8.1462 3.85027 7.8401 4.15637 7.46229 4.15637C7.08503 4.15637 6.77781 3.85027 6.77781 3.47189V2.33109H5.60877V3.47189C5.60877 3.85027 5.30267 4.15637 4.92485 4.15637C4.5476 4.15637 4.24037 3.85027 4.24037 3.47189V2.33109H3.82528C2.81833 2.33109 2 3.14998 2 4.15749V15.8428C2 16.8503 2.81833 17.6692 3.82528 17.6692H16.1753C17.1817 17.6692 18 16.8503 18 15.8428V4.15749C17.9994 3.14998 17.1811 2.33109 16.1742 2.33109ZM6.5519 13.1066C6.08429 13.1066 5.70478 12.727 5.70478 12.2594C5.70478 11.7918 6.08429 11.4123 6.5519 11.4123C7.01952 11.4123 7.39903 11.7918 7.39903 12.2594C7.39903 12.727 7.01952 13.1066 6.5519 13.1066ZM6.5519 10.8476C6.08429 10.8476 5.70478 10.468 5.70478 10.0004C5.70478 9.53281 6.08429 9.15329 6.5519 9.15329C7.01952 9.15329 7.39903 9.53281 7.39903 10.0004C7.39903 10.468 7.01952 10.8476 6.5519 10.8476ZM6.5519 8.58854C6.08429 8.58854 5.70478 8.20903 5.70478 7.74141C5.70478 7.2738 6.08429 6.89428 6.5519 6.89428C7.01952 6.89428 7.39903 7.2738 7.39903 7.74141C7.39903 8.20903 7.01952 8.58854 6.5519 8.58854ZM13.7288 12.8242H9.09329C8.78155 12.8242 8.52854 12.5717 8.52854 12.2594C8.52854 11.9471 8.78155 11.6947 9.09329 11.6947H13.7288C14.0411 11.6947 14.2935 11.9471 14.2935 12.2594C14.2935 12.5717 14.0405 12.8242 13.7288 12.8242ZM13.7288 10.5652H9.09329C8.78155 10.5652 8.52854 10.3127 8.52854 10.0004C8.52854 9.68811 8.78155 9.43567 9.09329 9.43567H13.7288C14.0411 9.43567 14.2935 9.68811 14.2935 10.0004C14.2935 10.3127 14.0405 10.5652 13.7288 10.5652ZM13.7288 8.30617H9.09329C8.78155 8.30617 8.52854 8.05372 8.52854 7.74141C8.52854 7.42911 8.78155 7.17666 9.09329 7.17666H13.7288C14.0411 7.17666 14.2935 7.42911 14.2935 7.74141C14.2935 8.05372 14.0405 8.30617 13.7288 8.30617Z" fill="white"/>
</g>
</g>
<defs>
<clipPath id="clip0_884_9728">
<rect width="20" height="20" fill="white"/>
</clipPath>
<clipPath id="clip1_884_9728">
<rect width="16" height="16" fill="white" transform="translate(2 2.00015)"/>
</clipPath>
</defs>
</svg>
