<svg width="20" height="20" viewBox="0 0 20 20" fill="none" xmlns="http://www.w3.org/2000/svg">
<path d="M10 1.25012C8.1773 1.25227 6.42987 1.97729 5.14102 3.26614C3.85218 4.55498 3.12716 6.30242 3.12501 8.12512C3.12282 9.61464 3.60937 11.0637 4.51001 12.2501C4.51001 12.2501 4.69751 12.497 4.72813 12.5326L10 18.7501L15.2744 12.5295C15.3019 12.4964 15.49 12.2501 15.49 12.2501L15.4906 12.2482C16.3908 11.0624 16.8771 9.61395 16.875 8.12512C16.8729 6.30242 16.1478 4.55498 14.859 3.26614C13.5701 1.97729 11.8227 1.25227 10 1.25012ZM10.625 11.2501H9.37501V10.0001H10.625V11.2501ZM10.625 8.75012H9.37501V7.50012H10.625V8.75012ZM13.125 11.2501H11.875V6.25012H8.12501V11.2501H6.87501V6.25012C6.87534 5.9187 7.00714 5.60095 7.24149 5.3666C7.47584 5.13226 7.79359 5.00045 8.12501 5.00012H11.875C12.2064 5.00045 12.5242 5.13226 12.7585 5.3666C12.9929 5.60095 13.1247 5.9187 13.125 6.25012V11.2501Z" fill="white"/>
</svg>
