<svg width="10" height="17" viewBox="0 0 10 17" fill="none" xmlns="http://www.w3.org/2000/svg">
<path d="M10 11.8769C9.82194 13.9011 8.17974 15.3376 5.67974 15.5234V17H4.42493V15.5234C1.69394 15.3061 0 13.7773 0 11.5163C0 9.58557 1.13932 8.46843 3.5563 7.83943L4.42493 7.61236V2.99564C3.07507 3.12921 2.16434 3.86264 1.93455 4.95793H0.166026C0.365737 3.01507 2.01877 1.62107 4.42493 1.46686V0H5.67974V1.49721C8.01251 1.7765 9.61381 3.28464 9.61381 5.3295C9.61381 7.09507 8.45164 8.34457 6.41242 8.87157L5.67854 9.06829V13.9631C7.06088 13.7566 8.01251 12.9916 8.2423 11.8769H10ZM5.92036 7.21893C7.17517 6.89957 7.84528 6.21714 7.84528 5.25664C7.84528 4.11036 6.99832 3.264 5.67974 3.03693V7.28086L5.92036 7.22014V7.21893ZM4.00626 9.49207C2.45789 9.88429 1.77815 10.5351 1.77815 11.6401C1.77815 12.9722 2.7719 13.8599 4.42493 13.9946V9.38643L4.00626 9.49086V9.49207Z" fill="#FE8744"/>
</svg>
