<svg width="12" height="12" viewBox="0 0 12 12" fill="none" xmlns="http://www.w3.org/2000/svg">
<path d="M10.9125 0C11.0563 0 11.1938 0.0237938 11.325 0.0713814C11.5313 0.140119 11.6953 0.248513 11.8172 0.396563C11.9391 0.544613 12 0.708526 12 0.888301V11.1117C12 11.2915 11.9391 11.4554 11.8172 11.6034C11.6953 11.7515 11.5313 11.8599 11.325 11.9286C11.2063 11.9709 11.0688 11.9921 10.9125 11.9921C10.6125 11.9921 10.3531 11.9075 10.1344 11.7383L6 8.37541L1.86563 11.7383C1.64062 11.9128 1.38125 12 1.0875 12C0.94375 12 0.80625 11.9762 0.675 11.9286C0.46875 11.8599 0.304688 11.7515 0.182813 11.6034C0.0609375 11.4554 0 11.2915 0 11.1117V0.888301C0 0.708526 0.0609375 0.544613 0.182813 0.396563C0.304688 0.248513 0.46875 0.140119 0.675 0.0713814C0.80625 0.0237938 0.94375 0 1.0875 0H10.9125Z" fill="#EA4AAA"/>
</svg>
