<svg width="13" height="12" viewBox="0 0 13 12" fill="none" xmlns="http://www.w3.org/2000/svg">
<path d="M11.4206 1.0152H1.82061V10.8658L5.78623 7.64574L6.62061 6.97158L7.45498 7.64574L11.4206 10.8658V1.0152ZM11.5331 0C11.6769 0 11.8144 0.0237938 11.9456 0.0713814C12.1519 0.140119 12.3159 0.248513 12.4378 0.396563C12.5597 0.544613 12.6206 0.708526 12.6206 0.888301V11.1117C12.6206 11.2915 12.5597 11.4554 12.4378 11.6034C12.3159 11.7515 12.1519 11.8599 11.9456 11.9286C11.8269 11.9709 11.6894 11.9921 11.5331 11.9921C11.2331 11.9921 10.9737 11.9075 10.755 11.7383L6.62061 8.37541L2.48623 11.7383C2.26123 11.9128 2.00186 12 1.70811 12C1.56436 12 1.42686 11.9762 1.29561 11.9286C1.08936 11.8599 0.925293 11.7515 0.803418 11.6034C0.681543 11.4554 0.620605 11.2915 0.620605 11.1117V0.888301C0.620605 0.708526 0.681543 0.544613 0.803418 0.396563C0.925293 0.248513 1.08936 0.140119 1.29561 0.0713814C1.42686 0.0237938 1.56436 0 1.70811 0H11.5331Z" fill="#EA4AAA"/>
</svg>
