<svg width="21" height="32" viewBox="0 0 21 32" fill="none" xmlns="http://www.w3.org/2000/svg">
<path d="M15.0325 14.2222H21V10.6667H18.06C18.795 9.49333 19.25 8.32 19.25 7.11111C19.25 2.43556 14.875 0 10.5 0C6.3875 0 2.6775 3.66222 2.2575 4.07111L4.7425 6.59556C5.5825 5.74222 8.2425 3.55556 10.5 3.55556C12.32 3.55556 15.75 4.30222 15.75 7.11111C15.75 8 14.875 9.31556 13.58 10.6667H0V14.2222H9.8525C9.1175 14.8622 6.5625 17.1911 5.9675 17.7778H0V21.3333H2.94C2.205 22.5067 1.75 23.68 1.75 24.8889C1.75 29.5644 6.125 32 10.5 32C14.6125 32 18.3225 28.3378 18.7425 27.9289L16.2575 25.4044C15.435 26.2578 12.7575 28.4444 10.5 28.4444C8.68 28.4444 5.25 27.6978 5.25 24.8889C5.25 24 6.125 22.6844 7.42 21.3333H21V17.7778H11.165L15.0325 14.2222Z" fill="#343C66"/>
</svg>
