<svg width="27" height="41" viewBox="0 0 27 41" fill="none" xmlns="http://www.w3.org/2000/svg">
<path d="M19.3275 18.2222H27V13.6667H23.22C24.165 12.1633 24.75 10.66 24.75 9.11111C24.75 3.12056 19.125 0 13.5 0C8.2125 0 3.4425 4.69222 2.9025 5.21611L6.0975 8.45056C7.1775 7.35722 10.5975 4.55556 13.5 4.55556C15.84 4.55556 20.25 5.51222 20.25 9.11111C20.25 10.25 19.125 11.9356 17.46 13.6667H0V18.2222H12.6675C11.7225 19.0422 8.4375 22.0261 7.6725 22.7778H0V27.3333H3.78C2.835 28.8367 2.25 30.34 2.25 31.8889C2.25 37.8794 7.875 41 13.5 41C18.7875 41 23.5575 36.3078 24.0975 35.7839L20.9025 32.5494C19.845 33.6428 16.4025 36.4444 13.5 36.4444C11.16 36.4444 6.75 35.4878 6.75 31.8889C6.75 30.75 7.875 29.0644 9.54 27.3333H27V22.7778H14.355L19.3275 18.2222Z" fill="#00040E"/>
</svg>
