<svg width="16" height="16" viewBox="0 0 16 16" fill="none" xmlns="http://www.w3.org/2000/svg">
<g clip-path="url(#clip0_173_1416)">
<path d="M10.8219 0.5H4.75911C2.29512 0.5 0.290527 2.5046 0.290527 4.96858V11.0314C0.290527 13.4954 2.29512 15.5 4.75911 15.5H10.8219C13.2859 15.5 15.2905 13.4954 15.2905 11.0314V4.96858C15.2905 2.5046 13.2859 0.5 10.8219 0.5ZM13.7815 11.0314C13.7815 12.6659 12.4565 13.991 10.8219 13.991H4.75911C3.12459 13.991 1.79953 12.6659 1.79953 11.0314V4.96858C1.79953 3.33404 3.12459 2.009 4.75911 2.009H10.8219C12.4565 2.009 13.7815 3.33404 13.7815 4.96858V11.0314Z" fill="white"/>
<path d="M7.79067 4.12036C5.65149 4.12036 3.91113 5.86072 3.91113 7.99987C3.91113 10.139 5.65149 11.8794 7.79067 11.8794C9.92984 11.8794 11.6702 10.139 11.6702 7.99987C11.6702 5.86069 9.92984 4.12036 7.79067 4.12036ZM7.79067 10.3704C6.48145 10.3704 5.42013 9.30912 5.42013 7.9999C5.42013 6.69067 6.48147 5.62936 7.79067 5.62936C9.09989 5.62936 10.1612 6.69067 10.1612 7.9999C10.1612 9.30909 9.09986 10.3704 7.79067 10.3704Z" fill="white"/>
<path d="M11.6776 5.07915C12.191 5.07915 12.6072 4.66296 12.6072 4.14956C12.6072 3.63616 12.191 3.21997 11.6776 3.21997C11.1642 3.21997 10.748 3.63616 10.748 4.14956C10.748 4.66296 11.1642 5.07915 11.6776 5.07915Z" fill="white"/>
</g>
<defs>
<clipPath id="clip0_173_1416">
<rect width="15" height="15" fill="white" transform="translate(0.290527 0.5)"/>
</clipPath>
</defs>
</svg>
