<svg width="98" height="20" viewBox="0 0 98 20" fill="none" xmlns="http://www.w3.org/2000/svg">
<path d="M0.580256 19V0.818181H4.42436V15.8306H12.2191V19H0.580256ZM40.1399 9.90909C40.1399 11.8918 39.7641 13.5786 39.0124 14.9695C38.2667 16.3603 37.2487 17.4227 35.9585 18.1566C34.6741 18.8846 33.23 19.2486 31.6261 19.2486C30.0103 19.2486 28.5603 18.8816 27.2759 18.1477C25.9916 17.4138 24.9766 16.3514 24.2308 14.9606C23.4851 13.5697 23.1122 11.8859 23.1122 9.90909C23.1122 7.92637 23.4851 6.23958 24.2308 4.84872C24.9766 3.45786 25.9916 2.39844 27.2759 1.67045C28.5603 0.936553 30.0103 0.569602 31.6261 0.569602C33.23 0.569602 34.6741 0.936553 35.9585 1.67045C37.2487 2.39844 38.2667 3.45786 39.0124 4.84872C39.7641 6.23958 40.1399 7.92637 40.1399 9.90909ZM36.2425 9.90909C36.2425 8.62476 36.0502 7.54167 35.6655 6.6598C35.2867 5.77794 34.7511 5.10914 34.0586 4.65341C33.3661 4.19768 32.5553 3.96982 31.6261 3.96982C30.6969 3.96982 29.886 4.19768 29.1935 4.65341C28.5011 5.10914 27.9625 5.77794 27.5778 6.6598C27.199 7.54167 27.0096 8.62476 27.0096 9.90909C27.0096 11.1934 27.199 12.2765 27.5778 13.1584C27.9625 14.0402 28.5011 14.709 29.1935 15.1648C29.886 15.6205 30.6969 15.8484 31.6261 15.8484C32.5553 15.8484 33.3661 15.6205 34.0586 15.1648C34.7511 14.709 35.2867 14.0402 35.6655 13.1584C36.0502 12.2765 36.2425 11.1934 36.2425 9.90909ZM64.4186 6.69531C64.2943 6.26326 64.1197 5.88151 63.8948 5.55007C63.6699 5.21271 63.3947 4.92862 63.0692 4.6978C62.7496 4.46106 62.3826 4.28054 61.9683 4.15625C61.5599 4.03196 61.1072 3.96982 60.61 3.96982C59.6808 3.96982 58.864 4.20064 58.1597 4.66229C57.4613 5.12393 56.9168 5.79569 56.5262 6.67756C56.1356 7.5535 55.9403 8.62476 55.9403 9.89134C55.9403 11.1579 56.1326 12.2351 56.5173 13.1229C56.902 14.0107 57.4465 14.6883 58.1508 15.1559C58.8551 15.6175 59.6867 15.8484 60.6455 15.8484C61.5155 15.8484 62.2583 15.6945 62.8738 15.3867C63.4953 15.073 63.9688 14.6321 64.2943 14.0639C64.6257 13.4957 64.7915 12.824 64.7915 12.0487L65.5727 12.1641H60.8852V9.26989H68.4935V11.5604C68.4935 13.1584 68.1562 14.5315 67.4814 15.6797C66.8067 16.822 65.8775 17.7038 64.6938 18.3253C63.5101 18.9408 62.1547 19.2486 60.6278 19.2486C58.9232 19.2486 57.4258 18.8728 56.1356 18.1211C54.8453 17.3635 53.8392 16.2893 53.1171 14.8984C52.401 13.5017 52.0429 11.8445 52.0429 9.92685C52.0429 8.45312 52.2559 7.1392 52.6821 5.98508C53.1141 4.82505 53.7178 3.84257 54.4932 3.03764C55.2685 2.23272 56.1711 1.62015 57.2009 1.19993C58.2307 0.77971 59.3464 0.569602 60.5479 0.569602C61.5777 0.569602 62.5365 0.720525 63.4243 1.02237C64.3121 1.3183 65.0992 1.73852 65.7858 2.28303C66.4782 2.82753 67.0435 3.47561 67.4814 4.22727C67.9194 4.97301 68.2006 5.79569 68.3248 6.69531H64.4186ZM97.4641 9.90909C97.4641 11.8918 97.0883 13.5786 96.3366 14.9695C95.5909 16.3603 94.5729 17.4227 93.2827 18.1566C91.9983 18.8846 90.5542 19.2486 88.9503 19.2486C87.3345 19.2486 85.8845 18.8816 84.6001 18.1477C83.3158 17.4138 82.3008 16.3514 81.555 14.9606C80.8093 13.5697 80.4364 11.8859 80.4364 9.90909C80.4364 7.92637 80.8093 6.23958 81.555 4.84872C82.3008 3.45786 83.3158 2.39844 84.6001 1.67045C85.8845 0.936553 87.3345 0.569602 88.9503 0.569602C90.5542 0.569602 91.9983 0.936553 93.2827 1.67045C94.5729 2.39844 95.5909 3.45786 96.3366 4.84872C97.0883 6.23958 97.4641 7.92637 97.4641 9.90909ZM93.5668 9.90909C93.5668 8.62476 93.3744 7.54167 92.9897 6.6598C92.6109 5.77794 92.0753 5.10914 91.3828 4.65341C90.6903 4.19768 89.8795 3.96982 88.9503 3.96982C88.0211 3.96982 87.2102 4.19768 86.5178 4.65341C85.8253 5.10914 85.2867 5.77794 84.902 6.6598C84.5232 7.54167 84.3338 8.62476 84.3338 9.90909C84.3338 11.1934 84.5232 12.2765 84.902 13.1584C85.2867 14.0402 85.8253 14.709 86.5178 15.1648C87.2102 15.6205 88.0211 15.8484 88.9503 15.8484C89.8795 15.8484 90.6903 15.6205 91.3828 15.1648C92.0753 14.709 92.6109 14.0402 92.9897 13.1584C93.3744 12.2765 93.5668 11.1934 93.5668 9.90909Z" fill="white"/>
</svg>
