<svg width="31" height="30" viewBox="0 0 31 30" fill="none" xmlns="http://www.w3.org/2000/svg">
<g clip-path="url(#clip0_173_1421)">
<path d="M1.68646 5.84988C0.915757 5.84988 0.290527 6.47478 0.290527 7.24581V23.294C0.290527 24.0649 0.915847 24.6899 1.68646 24.6899H28.8946C29.6653 24.6899 30.2906 24.065 30.2906 23.294V7.24578C30.2906 6.47487 29.6652 5.84985 28.8946 5.84985H1.68643L1.68646 5.84988ZM10.1277 8.1177C11.8401 8.1177 13.4129 8.71347 14.6474 9.70863C13.6087 10.638 12.834 11.859 12.4518 13.243H13.0508C13.4036 12.1013 14.0445 11.0848 14.8893 10.2786C15.734 11.0848 16.3749 12.1013 16.7277 13.243H17.3362C16.9486 11.8663 16.1728 10.6526 15.1349 9.72927C16.3718 8.72148 17.9507 8.11767 19.6705 8.11767C23.6393 8.11767 26.8565 11.3352 26.8565 15.3046C26.8565 19.2739 23.6393 22.4915 19.6705 22.4915C17.9221 22.4915 16.3189 21.8674 15.073 20.8292C16.1875 19.8596 17.0092 18.5598 17.3849 17.0811H16.7989C16.4653 18.3222 15.7938 19.4261 14.8892 20.2893C13.9847 19.4261 13.3142 18.3222 12.9805 17.0811H12.4227C12.8006 18.5384 13.6115 19.82 14.7092 20.7805C13.4656 21.8058 11.8687 22.4221 10.1277 22.4221C6.15898 22.4221 2.94178 19.22 2.94178 15.2699C2.94178 11.3198 6.15898 8.1177 10.1277 8.1177ZM19.1315 13.1699C18.268 13.1699 17.428 13.9247 17.428 15.3421C17.428 16.2819 17.8817 16.9021 18.7743 16.9021C19.0266 16.9022 19.4287 16.799 19.4287 16.799L19.5618 15.9777C19.5618 15.9777 19.1949 16.1633 18.943 16.1633C18.4125 16.1633 18.1996 15.7553 18.1996 15.3168C18.1996 14.4272 18.6561 13.9377 19.1643 13.9377C19.5454 13.9377 19.8515 14.1533 19.8515 14.1533L19.9733 13.3546C19.9733 13.3546 19.5202 13.1699 19.1314 13.1699H19.1315ZM26.3905 13.2393L25.6396 13.2411L25.4783 14.2293C25.4783 14.2293 25.196 13.8458 24.7546 13.8458C24.0682 13.8458 23.4965 14.6612 23.4965 15.599C23.4965 16.2043 23.8007 16.798 24.4246 16.798C24.8733 16.798 25.1221 16.4896 25.1221 16.4896L25.0893 16.753H25.8187L26.3905 13.2393ZM4.88239 13.2496L4.28428 16.7717H5.00521L5.46085 14.1158L5.52835 16.7717H6.04396L7.00585 14.1158L6.57928 16.7717H7.34521L7.93585 13.2496H6.75085L6.01303 15.4105L5.9746 13.2496H4.88242L4.88239 13.2496ZM12.4143 13.4783C12.398 13.4947 11.9783 15.9145 11.9783 16.2092C11.9783 16.6456 12.2229 16.8405 12.5671 16.8374C12.8137 16.8353 13.0047 16.7733 13.093 16.7474C13.1023 16.7449 13.1202 16.7399 13.1202 16.7399L13.213 16.1099C13.1626 16.1099 13.0882 16.1315 13.0227 16.1315C12.7658 16.1315 12.7373 15.9947 12.7536 15.8933L12.9608 14.608H13.3518L13.4465 13.9114H13.078L13.153 13.4783H12.4143ZM21.1283 13.8327C20.6252 13.8327 20.2396 13.9986 20.2396 13.9986L20.1327 14.6455C20.1327 14.6455 20.4512 14.5133 20.9324 14.5133C21.2057 14.5133 21.4058 14.5446 21.4058 14.7721C21.4058 14.9102 21.3815 14.9615 21.3815 14.9615C21.3815 14.9615 21.1654 14.9427 21.0655 14.9427C20.431 14.9427 19.7643 15.2208 19.7643 16.0574C19.7643 16.7165 20.2019 16.8674 20.473 16.8674C20.9908 16.8674 21.214 16.5234 21.2258 16.5224L21.2015 16.8093H21.8474L22.1362 14.7393C22.1363 13.8609 21.3881 13.8327 21.1283 13.8327V13.8327ZM9.01114 13.8365C8.50612 13.8365 8.11864 14.0024 8.11864 14.0024L8.01178 14.6493C8.01178 14.6493 8.33128 14.5171 8.81428 14.5171C9.08854 14.5171 9.2896 14.5484 9.2896 14.7758C9.2896 14.9139 9.26521 14.9652 9.26521 14.9652C9.26521 14.9652 9.04852 14.9465 8.94835 14.9465C8.31136 14.9465 7.64242 15.2241 7.64242 16.0602C7.64242 16.719 8.08096 16.8702 8.35303 16.8702C8.87266 16.8702 9.09673 16.5262 9.10867 16.5252L9.08428 16.8121H9.73303L10.0227 14.743C10.0227 13.8652 9.2719 13.8364 9.01114 13.8364V13.8365ZM11.3024 13.8365C10.7601 13.8365 10.2093 14.0554 10.2093 14.803C10.2093 15.6502 11.1271 15.5646 11.1271 15.9214C11.1271 16.1596 10.871 16.1793 10.6733 16.1793C10.3313 16.1793 10.0238 16.0611 10.0227 16.0668L9.92428 16.7136C9.94198 16.7191 10.1324 16.8046 10.7474 16.8046C10.9125 16.8046 11.8565 16.8465 11.8565 15.8633C11.8565 14.9441 10.9827 15.1263 10.9827 14.7571C10.9827 14.5732 11.1246 14.5152 11.3849 14.5152C11.4883 14.5152 11.8865 14.548 11.8865 14.548L11.9783 13.8946C11.9783 13.8947 11.7214 13.8365 11.3024 13.8365H11.3024ZM14.6924 13.8365C13.9388 13.8366 13.3808 14.647 13.3808 15.5624C13.3808 16.619 14.0799 16.8702 14.6755 16.8702C15.2253 16.8702 15.4677 16.7474 15.4677 16.7474L15.599 16.0265C15.599 16.0265 15.1807 16.2102 14.803 16.2102C13.9982 16.2102 14.1393 15.6111 14.1393 15.6111H15.6627C15.6627 15.6111 15.7612 15.127 15.7612 14.9296C15.7612 14.437 15.5153 13.8365 14.6924 13.8365H14.6924ZM17.4215 13.8674C17.082 13.8674 16.8299 14.324 16.8299 14.324L16.8974 13.9049H16.1924L15.719 16.798H16.498C16.7187 15.5626 16.759 14.5594 17.2855 14.743C17.3777 14.2648 17.4671 14.0801 17.5677 13.8777C17.5677 13.8777 17.5205 13.8674 17.4215 13.8674H17.4215ZM23.7336 13.8674C23.3942 13.8674 23.1421 14.324 23.1421 14.324L23.2096 13.9049H22.5046L22.0311 16.798H22.8093C23.03 15.5626 23.0713 14.5594 23.5977 14.743C23.69 14.2648 23.7794 14.0801 23.8799 13.8777C23.8799 13.8777 23.8326 13.8674 23.7337 13.8674H23.7336ZM14.6886 14.489C15.1166 14.489 15.0383 14.9721 15.0383 15.0111H14.1955C14.1955 14.9613 14.2753 14.489 14.6887 14.489H14.6886ZM24.8727 14.5452C25.1451 14.5451 25.2852 14.7291 25.2852 15.1621C25.2852 15.5549 25.0871 16.0799 24.6768 16.0799C24.4044 16.0799 24.2765 15.855 24.2765 15.5024C24.2765 14.9258 24.5402 14.5452 24.8727 14.5452H24.8727ZM21.1293 15.5296C21.2404 15.5297 21.2634 15.5405 21.2821 15.5455C21.2794 15.5451 21.2789 15.5456 21.2896 15.5474C21.3037 15.6762 21.2117 16.2805 20.7674 16.2805C20.5383 16.2805 20.4796 16.0983 20.4796 15.9908C20.4796 15.7812 20.5887 15.5296 21.1293 15.5296ZM9.0121 15.5324C9.13831 15.5325 9.15208 15.5466 9.17335 15.5502C9.18745 15.679 9.09517 16.2824 8.64928 16.2824C8.41927 16.2824 8.3596 16.1011 8.3596 15.9936C8.3596 15.7841 8.4694 15.5324 9.0121 15.5324Z" fill="white"/>
</g>
<defs>
<clipPath id="clip0_173_1421">
<rect width="30" height="30" fill="white" transform="translate(0.290527)"/>
</clipPath>
</defs>
</svg>
