<svg width="50" height="50" viewBox="0 0 50 50" fill="none" xmlns="http://www.w3.org/2000/svg">
<path d="M37.6563 3.2373L46.3501 12.2998V46.7623H13.8735V46.8748H46.461V12.4139L37.6563 3.2373Z" fill="#909090"/>
<path d="M37.5486 3.125H13.7627V46.7625H46.3502V12.3016L37.5471 3.125" fill="#F4F4F4"/>
<path d="M13.5234 5.46875H3.53906V16.1359H34.9453V5.46875H13.5234Z" fill="#7A7B7C"/>
<path d="M35.1125 15.9548H3.74219V5.27979H35.1125V15.9548Z" fill="#DD2025"/>
<path d="M14.1438 7.08421H12.1016V14.5842H13.7078V12.0545L14.0625 12.0748C14.4071 12.0689 14.7485 12.0072 15.0734 11.892C15.3583 11.794 15.6203 11.6394 15.8438 11.4373C16.0711 11.2449 16.2503 11.002 16.3672 10.728C16.5239 10.2725 16.5799 9.78842 16.5312 9.30921C16.5215 8.96687 16.4615 8.62783 16.3531 8.30296C16.2545 8.06844 16.1081 7.85702 15.9233 7.68216C15.7385 7.50731 15.5193 7.37284 15.2797 7.28733C15.0725 7.21233 14.8585 7.1579 14.6406 7.12483C14.4757 7.09938 14.3091 7.0858 14.1422 7.08421M13.8469 10.6686H13.7078V8.35608H14.0094C14.1425 8.34648 14.276 8.36691 14.4002 8.41587C14.5243 8.46482 14.6358 8.54104 14.7266 8.63889C14.9146 8.89048 15.015 9.19671 15.0125 9.51077C15.0125 9.89514 15.0125 10.2436 14.6656 10.4889C14.4157 10.6263 14.1313 10.6882 13.8469 10.667M19.5828 7.06389C19.4094 7.06389 19.2406 7.07639 19.1219 7.08108L18.75 7.09046H17.5313V14.5905H18.9656C19.5138 14.6055 20.0596 14.5126 20.5719 14.317C20.9842 14.1535 21.3494 13.8898 21.6344 13.5498C21.9115 13.2068 22.1104 12.8074 22.2172 12.3795C22.3399 11.8949 22.3998 11.3966 22.3953 10.8967C22.4256 10.3063 22.3799 9.7145 22.2594 9.13577C22.145 8.70977 21.9307 8.31716 21.6344 7.99046C21.4019 7.72665 21.1172 7.51385 20.7984 7.36546C20.5247 7.23876 20.2367 7.14539 19.9406 7.08733C19.8229 7.06788 19.7037 7.05899 19.5844 7.06077M19.3 13.2123H19.1438V8.42483H19.1641C19.4862 8.38777 19.8121 8.44589 20.1016 8.59202C20.3135 8.76128 20.4863 8.97452 20.6078 9.21702C20.739 9.47223 20.8146 9.75234 20.8297 10.0389C20.8438 10.3826 20.8297 10.6639 20.8297 10.8967C20.8361 11.1649 20.8188 11.4331 20.7781 11.6983C20.73 11.9705 20.6409 12.2339 20.5141 12.4795C20.3705 12.7079 20.1764 12.9003 19.9469 13.042C19.7541 13.1667 19.5258 13.2249 19.2969 13.2076M27.2344 7.09046H23.4375V14.5905H25.0437V11.6155H27.075V10.2217H25.0437V8.48421H27.2312V7.09046" fill="#464648"/>
<path d="M34.0326 31.6486C34.0326 31.6486 39.0138 30.7455 39.0138 32.447C39.0138 34.1486 35.9279 33.4564 34.0326 31.6486ZM30.3498 31.7783C29.5583 31.9532 28.7871 32.2092 28.0482 32.5424L28.6732 31.1361C29.2982 29.7299 29.9466 27.8127 29.9466 27.8127C30.6924 29.0679 31.5602 30.2465 32.5373 31.3314C31.8004 31.4413 31.0701 31.5915 30.3498 31.7814V31.7783ZM28.3779 21.622C28.3779 20.1392 28.8576 19.7345 29.231 19.7345C29.6045 19.7345 30.0248 19.9142 30.0388 21.2017C29.9172 22.4964 29.6461 23.7726 29.231 25.0049C28.6624 23.9702 28.3682 22.8073 28.3763 21.6267L28.3779 21.622ZM21.1138 38.0533C19.5857 37.1392 24.3185 34.3252 25.1763 34.2345C25.1716 34.2361 22.7138 39.0095 21.1138 38.0533ZM40.4685 32.6486C40.4529 32.4924 40.3123 30.7627 37.2341 30.8361C35.9511 30.8154 34.6687 30.9059 33.4013 31.1064C32.1736 29.8695 31.1164 28.4744 30.2576 26.958C30.7986 25.3946 31.1261 23.7653 31.231 22.1142C31.1857 20.2392 30.7373 19.1642 29.2998 19.1799C27.8623 19.1955 27.6529 20.4533 27.842 22.3252C28.0272 23.5831 28.3765 24.8112 28.881 25.9783C28.881 25.9783 28.2169 28.0455 27.3388 30.1017C26.4607 32.158 25.8607 33.2361 25.8607 33.2361C24.3337 33.7332 22.8962 34.4717 21.6029 35.4236C20.3154 36.622 19.7919 37.5424 20.4701 38.4627C21.0544 39.2564 23.0998 39.4361 24.9279 37.0408C25.8992 35.8036 26.7866 34.5028 27.5841 33.147C27.5841 33.147 30.3716 32.383 31.2388 32.1736C32.106 31.9642 33.1545 31.7986 33.1545 31.7986C33.1545 31.7986 35.6998 34.3595 38.1545 34.2689C40.6091 34.1783 40.4904 32.8017 40.4748 32.6517" fill="#DD2025"/>
<path d="M37.4282 3.24512V12.4217H46.2298L37.4282 3.24512Z" fill="#909090"/>
<path d="M37.5483 3.125V12.3016H46.3499L37.5483 3.125Z" fill="#F4F4F4"/>
<path d="M14.0236 6.96409H11.9814V14.4641H13.5939V11.936L13.9502 11.9563C14.2948 11.9503 14.6362 11.8886 14.9611 11.7735C15.246 11.6755 15.508 11.5208 15.7314 11.3188C15.9571 11.1258 16.1347 10.8829 16.2502 10.6094C16.4069 10.1539 16.4629 9.66987 16.4143 9.19065C16.4045 8.84832 16.3445 8.50928 16.2361 8.1844C16.1375 7.94988 15.9911 7.73846 15.8063 7.56361C15.6215 7.38875 15.4023 7.25429 15.1627 7.16878C14.9546 7.09304 14.7395 7.03809 14.5205 7.00471C14.3555 6.97926 14.189 6.96568 14.0221 6.96409M13.7268 10.5485H13.5877V8.23596H13.8908C14.0239 8.22637 14.1575 8.2468 14.2816 8.29575C14.4057 8.3447 14.5173 8.42092 14.608 8.51878C14.796 8.77036 14.8964 9.07659 14.8939 9.39065C14.8939 9.77503 14.8939 10.1235 14.5471 10.3688C14.2972 10.5062 14.0127 10.5681 13.7283 10.5469M19.4627 6.94378C19.2893 6.94378 19.1205 6.95628 19.0018 6.96096L18.6346 6.97034H17.4158V14.4703H18.8502C19.3984 14.4854 19.9441 14.3925 20.4564 14.1969C20.8688 14.0333 21.234 13.7697 21.5189 13.4297C21.7961 13.0867 21.995 12.6873 22.1018 12.2594C22.2245 11.7748 22.2844 11.2765 22.2799 10.7766C22.3102 10.1862 22.2645 9.59438 22.1439 9.01565C22.0295 8.58966 21.8153 8.19705 21.5189 7.87034C21.2864 7.60653 21.0018 7.39373 20.683 7.24534C20.4092 7.11865 20.1212 7.02527 19.8252 6.96721C19.7075 6.94777 19.5882 6.93888 19.4689 6.94065M19.1846 13.0922H19.0283V8.30471H19.0486C19.3708 8.26765 19.6967 8.32577 19.9861 8.4719C20.1981 8.64116 20.3708 8.8544 20.4924 9.0969C20.6236 9.35211 20.6992 9.63222 20.7143 9.91878C20.7283 10.2625 20.7143 10.5438 20.7143 10.7766C20.7206 11.0448 20.7034 11.313 20.6627 11.5782C20.6145 11.8504 20.5255 12.1138 20.3986 12.3594C20.255 12.5878 20.061 12.7802 19.8314 12.9219C19.6387 13.0466 19.4104 13.1048 19.1814 13.0875M27.1143 6.97034H23.3174V14.4703H24.9236V11.4953H26.9549V10.1016H24.9236V8.36409H27.1111V6.97034" fill="white"/>
</svg>
