<svg width="88" height="88" viewBox="0 0 88 88" fill="none" xmlns="http://www.w3.org/2000/svg">
<path d="M11 14.6666V3.66663H18.3333V14.6666H29.3333V22H18.3333V33H11V22H0V14.6666H11ZM22 36.6666V25.6666H33V14.6666H58.6667L65.3767 22H77C81.0333 22 84.3333 25.3 84.3333 29.3333V73.3333C84.3333 77.3666 81.0333 80.6666 77 80.6666H18.3333C14.3 80.6666 11 77.3666 11 73.3333V36.6666H22ZM47.6667 69.6666C57.7867 69.6666 66 61.4533 66 51.3333C66 41.2133 57.7867 33 47.6667 33C37.5467 33 29.3333 41.2133 29.3333 51.3333C29.3333 61.4533 37.5467 69.6666 47.6667 69.6666ZM35.9333 51.3333C35.9333 57.8233 41.1767 63.0666 47.6667 63.0666C54.1567 63.0666 59.4 57.8233 59.4 51.3333C59.4 44.8433 54.1567 39.6 47.6667 39.6C41.1767 39.6 35.9333 44.8433 35.9333 51.3333Z" fill="white"/>
</svg>
