<svg width="16" height="17" viewBox="0 0 16 17" fill="none" xmlns="http://www.w3.org/2000/svg">
<path d="M1.56098 16.8695C1.13171 16.8695 0.764097 16.7167 0.458146 16.4112C0.152715 16.1061 0 15.7392 0 15.3105V4.39693C0 3.96819 0.152715 3.60103 0.458146 3.29545C0.764097 2.99039 1.13171 2.83786 1.56098 2.83786H8.52683L6.96585 4.39693H1.56098V15.3105H12.4878V9.89267L14.0488 8.3336V15.3105C14.0488 15.7392 13.8961 16.1061 13.5906 16.4112C13.2847 16.7167 12.9171 16.8695 12.4878 16.8695H1.56098ZM10.2829 3.28609L11.3951 4.37745L6.2439 9.52239V10.6332H7.33658L12.5073 5.4688L13.6195 6.56015L8 12.1923H4.68293V8.87927L10.2829 3.28609ZM13.6195 6.56015L10.2829 3.28609L12.2341 1.33725C12.5463 1.02544 12.9205 0.86953 13.3565 0.86953C13.792 0.86953 14.1593 1.02544 14.4585 1.33725L15.5512 2.44809C15.8504 2.74691 16 3.1107 16 3.53944C16 3.96819 15.8504 4.33197 15.5512 4.6308L13.6195 6.56015Z" fill="#FE8744"/>
</svg>
