<svg width="17" height="13" viewBox="0 0 17 13" fill="none" xmlns="http://www.w3.org/2000/svg">
<path d="M11.9335 5.20001H15.8655C15.913 5.20002 15.9595 5.21358 15.9996 5.23907C16.0397 5.26457 16.0717 5.30096 16.0918 5.34398C16.112 5.387 16.1194 5.43487 16.1134 5.48199C16.1073 5.5291 16.0879 5.57351 16.0575 5.61001L14.0915 7.97001C14.068 7.99814 14.0387 8.02078 14.0055 8.03631C13.9723 8.05184 13.9361 8.05989 13.8995 8.05989C13.8629 8.05989 13.8267 8.05184 13.7935 8.03631C13.7603 8.02078 13.731 7.99814 13.7075 7.97001L11.7415 5.61001C11.7111 5.57351 11.6917 5.5291 11.6856 5.48199C11.6796 5.43487 11.687 5.387 11.7072 5.34398C11.7273 5.30096 11.7593 5.26457 11.7994 5.23907C11.8395 5.21358 11.886 5.20002 11.9335 5.20001ZM0.9335 7.20001H4.8655C4.913 7.19999 4.95952 7.18644 4.9996 7.16094C5.03968 7.13544 5.07167 7.09905 5.09181 7.05603C5.11196 7.01301 5.11943 6.96514 5.11335 6.91803C5.10728 6.87091 5.0879 6.82651 5.0575 6.79001L3.0915 4.43001C3.06804 4.40187 3.03868 4.37924 3.0055 4.3637C2.97232 4.34817 2.93613 4.34012 2.8995 4.34012C2.86287 4.34012 2.82668 4.34817 2.7935 4.3637C2.76032 4.37924 2.73096 4.40187 2.7075 4.43001L0.7415 6.79001C0.711098 6.82651 0.691724 6.87091 0.685648 6.91803C0.679571 6.96514 0.687043 7.01301 0.707189 7.05603C0.727335 7.09905 0.759321 7.13544 0.799401 7.16094C0.839481 7.18644 0.885997 7.19999 0.9335 7.20001Z" fill="#68CEFD"/>
<path fill-rule="evenodd" clip-rule="evenodd" d="M8.40137 1.2C6.84937 1.2 5.46137 1.907 4.54437 3.018C4.50343 3.07107 4.45223 3.11537 4.39382 3.14826C4.33541 3.18115 4.27098 3.20196 4.20436 3.20945C4.13775 3.21693 4.07031 3.21095 4.00606 3.19186C3.9418 3.17276 3.88204 3.14094 3.83033 3.09828C3.77862 3.05563 3.73602 3.00301 3.70505 2.94356C3.67408 2.8841 3.65539 2.81903 3.65007 2.75221C3.64476 2.68539 3.65294 2.61818 3.67412 2.55458C3.6953 2.49098 3.72906 2.43229 3.77337 2.382C4.50556 1.49553 5.47696 0.838012 6.57204 0.487656C7.66711 0.137301 8.83978 0.108851 9.95055 0.40569C11.0613 0.702529 12.0635 1.31216 12.8378 2.16209C13.6121 3.01201 14.126 4.06645 14.3184 5.2H13.3014C13.0705 4.07081 12.4567 3.05599 11.5639 2.32715C10.6711 1.5983 9.55393 1.20014 8.40137 1.2ZM3.50137 7.2C3.69069 8.12462 4.13773 8.97682 4.79085 9.65814C5.44398 10.3395 6.27653 10.8221 7.19234 11.0503C8.10814 11.2785 9.06982 11.2429 9.96627 10.9477C10.8627 10.6525 11.6574 10.1097 12.2584 9.382C12.2993 9.32893 12.3505 9.28463 12.4089 9.25174C12.4673 9.21885 12.5318 9.19804 12.5984 9.19056C12.665 9.18307 12.7324 9.18905 12.7967 9.20815C12.8609 9.22724 12.9207 9.25906 12.9724 9.30172C13.0241 9.34438 13.0667 9.39699 13.0977 9.45645C13.1287 9.5159 13.1474 9.58097 13.1527 9.64779C13.158 9.71461 13.1498 9.78182 13.1286 9.84542C13.1074 9.90902 13.0737 9.96771 13.0294 10.018C12.2972 10.9045 11.3258 11.562 10.2307 11.9123C9.13564 12.2627 7.96298 12.2912 6.8522 11.9943C5.74142 11.6975 4.73928 11.0878 3.96496 10.2379C3.19065 9.38799 2.67674 8.33355 2.48438 7.2H3.50137Z" fill="#68CEFD"/>
</svg>
