<svg width="14" height="14" viewBox="0 0 14 14" fill="none" xmlns="http://www.w3.org/2000/svg">
<path d="M13.0722 13.6668C5.96305 13.6768 0.567215 8.21683 0.574715 1.16933C0.574715 0.708496 0.948048 0.333496 1.40805 0.333496H3.60805C4.02055 0.333496 4.37138 0.636829 4.43221 1.04516C4.5773 2.02437 4.86215 2.9777 5.27805 3.876L5.36388 4.061C5.42154 4.18549 5.43394 4.3262 5.39895 4.45886C5.36396 4.59151 5.28377 4.7078 5.17222 4.78766C4.49055 5.27433 4.23055 6.2535 4.76138 7.01683C5.4297 7.97794 6.26383 8.81235 7.22471 9.481C7.98888 10.011 8.96805 9.751 9.45388 9.07016C9.53366 8.95827 9.65004 8.87778 9.78289 8.84263C9.91574 8.80748 10.0567 8.81987 10.1814 8.87766L10.3655 8.96266C11.2639 9.37933 12.2172 9.66433 13.1964 9.80933C13.6047 9.87016 13.908 10.221 13.908 10.6343V12.8335C13.908 12.943 13.8865 13.0514 13.8445 13.1526C13.8026 13.2538 13.7411 13.3457 13.6637 13.423C13.5862 13.5004 13.4942 13.5618 13.393 13.6036C13.2918 13.6455 13.1834 13.6669 13.0739 13.6668H13.0722Z" fill="#343C66"/>
</svg>
