<svg width="21" height="20" viewBox="0 0 21 20" fill="none" xmlns="http://www.w3.org/2000/svg">
<g clip-path="url(#clip0_781_5726)">
<path d="M0.664806 9.88041C0.664341 11.5608 1.10341 13.2016 1.93829 14.6478L0.584961 19.589L5.6417 18.2631C7.04033 19.0245 8.60739 19.4235 10.1998 19.4236H10.204C15.461 19.4236 19.7403 15.1458 19.7426 9.88793C19.7436 7.3401 18.7522 4.94428 16.9512 3.1418C15.1504 1.33948 12.7554 0.346378 10.2036 0.345215C4.94605 0.345215 0.667054 4.62273 0.664883 9.88041" fill="url(#paint0_linear_781_5726)"/>
<path d="M0.324157 9.87721C0.323614 11.6181 0.77842 13.3175 1.64307 14.8155L0.241211 19.9339L5.47927 18.5605C6.92253 19.3474 8.54749 19.7622 10.201 19.7629H10.2052C15.6508 19.7629 20.0838 15.3312 20.0862 9.88512C20.0871 7.24574 19.0601 4.7638 17.1947 2.89674C15.329 1.02992 12.8484 0.00108527 10.2052 0C4.75873 0 0.326405 4.43101 0.324234 9.87721H0.324157ZM3.44354 14.5575L3.24796 14.2471C2.42578 12.9398 1.99183 11.4291 1.99245 9.87783C1.99423 5.35109 5.67827 1.66822 10.2083 1.66822C12.4021 1.66915 14.4638 2.52434 16.0145 4.07597C17.5652 5.62775 18.4184 7.69054 18.4179 9.8845C18.4159 14.4112 14.7318 18.0946 10.2052 18.0946H10.202C8.72811 18.0938 7.28261 17.698 6.02199 16.95L5.72199 16.7721L2.61361 17.5871L3.44354 14.5574V14.5575Z" fill="url(#paint1_linear_781_5726)"/>
<path d="M7.73573 5.74776C7.55077 5.33668 7.35612 5.32838 7.18023 5.32117C7.0362 5.31497 6.87155 5.31544 6.70705 5.31544C6.5424 5.31544 6.27488 5.37738 6.04876 5.62427C5.8224 5.87141 5.18457 6.46862 5.18457 7.68327C5.18457 8.898 6.0693 10.0719 6.19263 10.2368C6.31612 10.4013 7.90062 12.9737 10.4101 13.9633C12.4957 14.7857 12.9201 14.6222 13.3727 14.5809C13.8254 14.5399 14.8335 13.9839 15.0391 13.4074C15.245 12.8309 15.245 12.3368 15.1833 12.2336C15.1215 12.1307 14.9569 12.0689 14.71 11.9455C14.463 11.822 13.2492 11.2247 13.0229 11.1423C12.7966 11.06 12.632 11.0189 12.4674 11.2661C12.3027 11.513 11.8299 12.0689 11.6858 12.2336C11.5419 12.3986 11.3977 12.4192 11.1509 12.2957C10.9039 12.1718 10.1088 11.9114 9.16542 11.0704C8.43147 10.416 7.93597 9.60784 7.79193 9.36063C7.6479 9.11381 7.77651 8.98001 7.90031 8.85699C8.01124 8.74637 8.14728 8.56869 8.27085 8.42458C8.39395 8.2804 8.43504 8.17753 8.51736 8.01288C8.59976 7.84807 8.55852 7.70389 8.4969 7.5804C8.43504 7.45691 7.95527 6.23598 7.73573 5.74784" fill="white"/>
</g>
<defs>
<linearGradient id="paint0_linear_781_5726" x1="10.1638" y1="19.589" x2="10.1638" y2="0.345215" gradientUnits="userSpaceOnUse">
<stop stop-color="#1FAF38"/>
<stop offset="1" stop-color="#60D669"/>
</linearGradient>
<linearGradient id="paint1_linear_781_5726" x1="10.1637" y1="19.9339" x2="10.1637" y2="0" gradientUnits="userSpaceOnUse">
<stop stop-color="#F9F9F9"/>
<stop offset="1" stop-color="white"/>
</linearGradient>
<clipPath id="clip0_781_5726">
<rect width="19.845" height="20" fill="white" transform="translate(0.241211)"/>
</clipPath>
</defs>
</svg>
