<svg width="20" height="20" viewBox="0 0 20 20" fill="none" xmlns="http://www.w3.org/2000/svg">
<path d="M9.48264 0.00291023C7.87764 0.0222852 4.42702 0.286035 2.49702 2.05666C1.06139 3.47916 0.560142 5.58229 0.501392 8.18291C0.452642 10.7742 0.393892 15.6404 5.08452 16.9654V18.9835C5.08452 18.9835 5.05514 19.791 5.58889 19.9567C6.24639 20.1648 6.62077 19.5435 7.24577 18.876L8.41139 17.5579C11.6208 17.8248 14.0789 17.2098 14.362 17.1185C15.0133 16.9104 18.6814 16.4417 19.2808 11.5748C19.8958 6.54854 18.9814 3.38166 17.3308 1.94916H17.3208C16.8226 1.49041 14.8208 0.0316602 10.3483 0.0154102C10.3483 0.0154102 10.0164 -0.00708977 9.48264 0.00228523V0.00291023ZM9.53764 1.41604C9.99327 1.41291 10.2701 1.43229 10.2701 1.43229C14.0558 1.44229 15.8626 2.58166 16.2889 2.96541C17.6789 4.15666 18.3951 7.01166 17.8708 11.2079C17.3726 15.2767 14.3976 15.5342 13.847 15.7098C13.6126 15.7848 11.4476 16.3185 8.72014 16.1429C8.72014 16.1429 6.68889 18.5942 6.05389 19.2254C5.95327 19.336 5.83577 19.3685 5.76077 19.3523C5.65327 19.326 5.62077 19.1929 5.62702 19.0104L5.64639 15.661C1.66827 14.561 1.90264 10.4104 1.94514 8.24228C1.99389 6.07416 2.40077 4.30041 3.61202 3.09916C5.24264 1.62479 8.17264 1.42604 9.53639 1.41604H9.53764ZM9.83764 3.58354C9.8049 3.58321 9.77242 3.58936 9.74207 3.60164C9.71171 3.61392 9.68409 3.63209 9.6608 3.6551C9.6375 3.67811 9.61898 3.7055 9.60632 3.73569C9.59366 3.76589 9.5871 3.79829 9.58702 3.83104C9.58702 3.97104 9.70077 4.08166 9.83764 4.08166C10.4573 4.06988 11.0732 4.18089 11.6498 4.4083C12.2264 4.63571 12.7522 4.97502 13.197 5.40666C14.1051 6.28854 14.5476 7.47354 14.5645 9.02291C14.5645 9.15979 14.6751 9.27354 14.8151 9.27354V9.26354C14.8811 9.2637 14.9445 9.23778 14.9914 9.19142C15.0384 9.14506 15.0651 9.08201 15.0658 9.01604C15.0961 8.28675 14.9778 7.55892 14.7182 6.87676C14.4585 6.19461 14.0628 5.57239 13.5551 5.04791C12.5658 4.08104 11.312 3.58291 9.83764 3.58291V3.58354ZM6.54327 4.15666C6.36636 4.13081 6.18593 4.16632 6.03202 4.25729H6.01889C5.66156 4.46675 5.33965 4.73149 5.06514 5.04166C4.83702 5.30541 4.71327 5.57229 4.68077 5.82916C4.66139 5.98229 4.67452 6.13541 4.72014 6.28166L4.73639 6.29166C4.99327 7.04666 5.32889 7.77291 5.73889 8.45666C6.26703 9.41726 6.91699 10.3056 7.67264 11.0998L7.69514 11.1323L7.73077 11.1585L7.75327 11.1848L7.77952 11.2073C8.57654 11.9652 9.46707 12.6181 10.4295 13.1504C11.5295 13.7492 12.197 14.0323 12.5976 14.1498V14.156C12.7151 14.1917 12.822 14.2079 12.9295 14.2079C13.2709 14.1829 13.5942 14.0443 13.8476 13.8142C14.1564 13.5396 14.4182 13.2164 14.6226 12.8573V12.851C14.8145 12.4898 14.7495 12.1479 14.4726 11.9167C13.9181 11.432 13.3185 11.0015 12.682 10.631C12.2558 10.3998 11.8226 10.5398 11.647 10.7742L11.2726 11.246C11.0808 11.4804 10.732 11.4479 10.732 11.4479L10.722 11.4542C8.12139 10.7898 7.42764 8.15666 7.42764 8.15666C7.42764 8.15666 7.39514 7.79854 7.63577 7.61604L8.10452 7.23854C8.32889 7.05604 8.48514 6.62354 8.24452 6.19666C7.87664 5.55926 7.44708 4.9595 6.96202 4.40604C6.85597 4.27555 6.7072 4.18678 6.54202 4.15541L6.54327 4.15666ZM10.2701 4.89916C9.93827 4.89916 9.93827 5.40041 10.2733 5.40041C10.6859 5.4071 11.0933 5.49506 11.4719 5.65924C11.8506 5.82343 12.1932 6.06063 12.4801 6.35729C12.7419 6.64604 12.9431 6.9844 13.0717 7.35231C13.2003 7.72022 13.2537 8.11021 13.2289 8.49916C13.23 8.56499 13.2569 8.62775 13.3037 8.674C13.3506 8.72026 13.4137 8.74634 13.4795 8.74666L13.4895 8.75979C13.5558 8.75929 13.6193 8.73273 13.6662 8.68584C13.7131 8.63894 13.7397 8.57548 13.7401 8.50916C13.7626 7.51604 13.4539 6.68291 12.8483 6.01541C12.2395 5.34791 11.3901 4.97354 10.3058 4.89916H10.2701ZM10.6808 6.24666C10.3389 6.23666 10.3258 6.74791 10.6645 6.75791C11.4883 6.80041 11.8883 7.21666 11.9408 8.07291C11.9419 8.13791 11.9684 8.19987 12.0147 8.24555C12.061 8.29122 12.1233 8.31697 12.1883 8.31729H12.1983C12.2317 8.31585 12.2645 8.30778 12.2948 8.29353C12.325 8.27928 12.3521 8.25915 12.3745 8.23431C12.3969 8.20946 12.4142 8.18041 12.4252 8.14883C12.4363 8.11726 12.4409 8.0838 12.4389 8.05041C12.3801 6.93416 11.7714 6.30541 10.6908 6.24729H10.6808V6.24666Z" fill="#9747FF"/>
</svg>
