<svg width="21" height="20" viewBox="0 0 21 20" fill="none" xmlns="http://www.w3.org/2000/svg">
<g clip-path="url(#clip0_781_5721)">
<path d="M10.2412 0C7.58965 0 5.04434 1.05422 3.1709 2.92891C1.29553 4.80434 0.24173 7.34778 0.241211 10C0.241211 12.6511 1.2959 15.1964 3.1709 17.0711C5.04434 18.9458 7.58965 20 10.2412 20C12.8928 20 15.4381 18.9458 17.3115 17.0711C19.1865 15.1964 20.2412 12.6511 20.2412 10C20.2412 7.34891 19.1865 4.80359 17.3115 2.92891C15.4381 1.05422 12.8928 0 10.2412 0Z" fill="url(#paint0_linear_781_5721)"/>
<path d="M4.76791 9.89453C7.68354 8.62453 9.62729 7.78719 10.5992 7.38266C13.3773 6.2275 13.9538 6.02688 14.3304 6.02008C14.4132 6.01875 14.5976 6.03922 14.7179 6.13648C14.8179 6.21852 14.846 6.32945 14.8601 6.40734C14.8726 6.48516 14.8898 6.6625 14.8757 6.80094C14.7257 8.38219 14.0742 12.2194 13.7429 13.9905C13.6038 14.7398 13.3273 14.9911 13.0601 15.0156C12.4788 15.0691 12.0382 14.6319 11.4757 14.2633C10.596 13.6862 10.0992 13.3272 9.24447 12.7642C8.25697 12.1136 8.8976 11.7559 9.4601 11.1716C9.60697 11.0186 12.1663 8.69125 12.2148 8.48016C12.221 8.45375 12.2273 8.35531 12.1679 8.30344C12.1101 8.25141 12.0242 8.26922 11.9617 8.28328C11.8726 8.30328 10.4679 9.23266 7.74291 11.0713C7.34447 11.3453 6.98354 11.4789 6.65854 11.4719C6.30229 11.4642 5.61479 11.27 5.10385 11.1041C4.47885 10.9005 3.98041 10.7928 4.02416 10.447C4.04604 10.267 4.29447 10.0828 4.76791 9.89453Z" fill="white"/>
</g>
<defs>
<linearGradient id="paint0_linear_781_5721" x1="10.2412" y1="0" x2="10.2412" y2="20" gradientUnits="userSpaceOnUse">
<stop stop-color="#2AABEE"/>
<stop offset="1" stop-color="#229ED9"/>
</linearGradient>
<clipPath id="clip0_781_5721">
<rect width="20" height="20" fill="white" transform="translate(0.241211)"/>
</clipPath>
</defs>
</svg>
