<svg width="13" height="16" viewBox="0 0 13 16" fill="none" xmlns="http://www.w3.org/2000/svg">
<path d="M6.24105 15.5C5.1885 14.6022 4.21288 13.6179 3.32438 12.5575C1.99105 10.965 0.407716 8.59333 0.407716 6.33333C0.407137 5.17913 0.748972 4.0507 1.38996 3.09085C2.03095 2.131 2.94227 1.38288 4.00861 0.94116C5.07494 0.499443 6.24834 0.383987 7.38031 0.609405C8.51229 0.834823 9.55194 1.39098 10.3677 2.2075C10.9108 2.74821 11.3413 3.39128 11.6343 4.09947C11.9272 4.80767 12.0768 5.56694 12.0744 6.33333C12.0744 8.59333 10.491 10.965 9.15772 12.5575C8.26922 13.6179 7.2936 14.6022 6.24105 15.5ZM6.24105 3.83333C5.57801 3.83333 4.94212 4.09672 4.47328 4.56556C4.00444 5.0344 3.74105 5.67029 3.74105 6.33333C3.74105 6.99637 4.00444 7.63226 4.47328 8.1011C4.94212 8.56994 5.57801 8.83333 6.24105 8.83333C6.90409 8.83333 7.53998 8.56994 8.00882 8.1011C8.47766 7.63226 8.74105 6.99637 8.74105 6.33333C8.74105 5.67029 8.47766 5.0344 8.00882 4.56556C7.53998 4.09672 6.90409 3.83333 6.24105 3.83333Z" fill="#343C66"/>
</svg>
