<svg width="19" height="18" viewBox="0 0 19 18" fill="none" xmlns="http://www.w3.org/2000/svg">
<path fill-rule="evenodd" clip-rule="evenodd" d="M11.4202 3.90526V2.05263H7.68019V3.90526H11.4202ZM2.0702 5.75789V15.9474H17.0302V5.75789H2.0702ZM17.0302 3.90526C18.068 3.90526 18.9002 4.72968 18.9002 5.75789V15.9474C18.9002 16.9756 18.068 17.8 17.0302 17.8H2.0702C1.03235 17.8 0.200195 16.9756 0.200195 15.9474L0.209545 5.75789C0.209545 4.72968 1.03235 3.90526 2.0702 3.90526H5.81019V2.05263C5.81019 1.02442 6.64234 0.199997 7.68019 0.199997H11.4202C12.458 0.199997 13.2902 1.02442 13.2902 2.05263V3.90526H17.0302Z" fill="#343C66"/>
</svg>
