<svg width="18" height="18" viewBox="0 0 18 18" fill="none" xmlns="http://www.w3.org/2000/svg">
<path d="M17.0916 6.25834C18.1332 5.21667 17.6582 4.00001 17.0916 3.40834L14.5916 0.90834C13.5416 -0.133326 12.3332 0.341674 11.7416 0.90834L10.3249 2.33334H8.16657C6.58323 2.33334 5.66657 3.16667 5.1999 4.12501L1.4999 7.82501V11.1583L0.908234 11.7417C-0.133433 12.7917 0.341567 14 0.908234 14.5917L3.40823 17.0917C3.85823 17.5417 4.34157 17.7083 4.7999 17.7083C5.39157 17.7083 5.93323 17.4167 6.25823 17.0917L8.50823 14.8333H11.4999C12.9166 14.8333 13.6332 13.95 13.8916 13.0833C14.8332 12.8333 15.3499 12.1167 15.5582 11.4167C16.8499 11.0833 17.3332 9.85834 17.3332 9.00001V6.50001H16.8416L17.0916 6.25834ZM15.6666 9.00001C15.6666 9.37501 15.5082 9.83334 14.8332 9.83334H13.9999V10.6667C13.9999 11.0417 13.8416 11.5 13.1666 11.5H12.3332V12.3333C12.3332 12.7083 12.1749 13.1667 11.4999 13.1667H7.8249L5.09157 15.9C4.83323 16.1417 4.68323 16 4.59157 15.9083L2.0999 13.425C1.85823 13.1667 1.9999 13.0167 2.09157 12.925L3.16657 11.8417V8.50834L4.83323 6.84167V8.16667C4.83323 9.17501 5.4999 10.6667 7.33323 10.6667C9.16657 10.6667 9.83323 9.17501 9.83323 8.16667H15.6666V9.00001ZM15.9082 5.07501L14.4916 6.50001H8.16657V8.16667C8.16657 8.54167 8.00823 9.00001 7.33323 9.00001C6.65823 9.00001 6.4999 8.54167 6.4999 8.16667V5.66667C6.4999 5.28334 6.64157 4.00001 8.16657 4.00001H11.0082L12.9082 2.10001C13.1666 1.85834 13.3166 2.00001 13.4082 2.09167L15.8999 4.57501C16.1416 4.83334 15.9999 4.98334 15.9082 5.07501Z" fill="#343C66"/>
</svg>
