<svg width="17" height="19" viewBox="0 0 17 19" fill="none" xmlns="http://www.w3.org/2000/svg">
<path d="M9.4585 0.875V7.58333H16.1668M2.75016 4.70833H1.79183C1.53766 4.70833 1.29391 4.8093 1.11419 4.98902C0.934463 5.16875 0.833496 5.4125 0.833496 5.66667V17.1667C0.833496 17.4208 0.934463 17.6646 1.11419 17.8443C1.29391 18.024 1.53766 18.125 1.79183 18.125H10.4168C10.671 18.125 10.9148 18.024 11.0945 17.8443C11.2742 17.6646 11.3752 17.4208 11.3752 17.1667V16.2083M4.66683 1.83333V13.3333C4.66683 13.5875 4.7678 13.8313 4.94752 14.011C5.12724 14.1907 5.371 14.2917 5.62516 14.2917H15.2085C15.4627 14.2917 15.7064 14.1907 15.8861 14.011C16.0659 13.8313 16.1668 13.5875 16.1668 13.3333V6.99779C16.1669 6.75791 16.0769 6.52675 15.9148 6.34996L11.1806 1.1855C11.0908 1.08763 10.9817 1.00949 10.8601 0.956034C10.7385 0.902582 10.6071 0.874987 10.4743 0.875H5.62516C5.371 0.875 5.12724 0.975967 4.94752 1.15569C4.7678 1.33541 4.66683 1.57917 4.66683 1.83333V1.83333Z" stroke="#343C66" stroke-width="1.5" stroke-linejoin="round"/>
</svg>
