<svg width="25" height="25" viewBox="0 0 25 25" fill="none" xmlns="http://www.w3.org/2000/svg">
<g clip-path="url(#clip0_344_2221)">
<path d="M12.5 0C9.18555 0 6.00391 1.31777 3.66211 3.66113C1.3179 6.00542 0.000649355 9.18473 0 12.5C0 15.8139 1.31836 18.9955 3.66211 21.3389C6.00391 23.6822 9.18555 25 12.5 25C15.8145 25 18.9961 23.6822 21.3379 21.3389C23.6816 18.9955 25 15.8139 25 12.5C25 9.18613 23.6816 6.00449 21.3379 3.66113C18.9961 1.31777 15.8145 0 12.5 0Z" fill="url(#paint0_linear_344_2221)"/>
<path d="M5.65813 12.368C9.30266 10.7805 11.7323 9.7338 12.9472 9.22814C16.4198 7.78419 17.1406 7.53341 17.6113 7.52492C17.7148 7.52326 17.9452 7.54884 18.0956 7.67042C18.2206 7.77296 18.2558 7.91163 18.2734 8.009C18.289 8.10626 18.3105 8.32794 18.2929 8.50099C18.1054 10.4776 17.2909 15.274 16.8769 17.4879C16.7031 18.4246 16.3573 18.7387 16.0234 18.7693C15.2968 18.8361 14.746 18.2897 14.0429 17.8289C12.9433 17.1076 12.3222 16.6588 11.2538 15.9551C10.0195 15.1418 10.8202 14.6947 11.5234 13.9643C11.707 13.7731 14.9062 10.8639 14.9667 10.6C14.9745 10.567 14.9823 10.444 14.9081 10.3791C14.8359 10.3141 14.7284 10.3363 14.6503 10.3539C14.539 10.3789 12.7831 11.5406 9.37688 13.8389C8.87883 14.1815 8.42766 14.3485 8.02141 14.3397C7.5761 14.3301 6.71672 14.0873 6.07805 13.8799C5.2968 13.6254 4.67375 13.4908 4.72844 13.0586C4.75579 12.8336 5.06633 12.6033 5.65813 12.368Z" fill="white"/>
</g>
<defs>
<linearGradient id="paint0_linear_344_2221" x1="12.5" y1="0" x2="12.5" y2="25" gradientUnits="userSpaceOnUse">
<stop stop-color="#2AABEE"/>
<stop offset="1" stop-color="#229ED9"/>
</linearGradient>
<clipPath id="clip0_344_2221">
<rect width="25" height="25" fill="white"/>
</clipPath>
</defs>
</svg>
