<svg width="25" height="25" viewBox="0 0 25 25" fill="none" xmlns="http://www.w3.org/2000/svg">
<g clip-path="url(#clip0_344_2204)">
<path d="M12.8018 0.00363778C10.7955 0.0278565 6.48226 0.357544 4.06976 2.57083C2.27523 4.34895 1.64866 6.97786 1.57523 10.2286C1.51429 13.4677 1.44085 19.5505 7.30413 21.2068V23.7294C7.30413 23.7294 7.26742 24.7388 7.9346 24.9458C8.75648 25.206 9.22445 24.4294 10.0057 23.595L11.4627 21.9474C15.4744 22.281 18.5471 21.5122 18.901 21.3982C19.7151 21.138 24.3002 20.5521 25.0494 14.4685C25.8182 8.18567 24.6752 4.22708 22.6119 2.43645H22.5994C21.9768 1.86301 19.4744 0.0395753 13.8838 0.0192628C13.8838 0.0192628 13.469 -0.00886222 12.8018 0.00285653V0.00363778ZM12.8705 1.77004C13.4401 1.76614 13.7862 1.79036 13.7862 1.79036C18.5182 1.80286 20.7768 3.22708 21.3096 3.70676C23.0471 5.19583 23.9424 8.76458 23.2869 14.0099C22.6643 19.0958 18.9455 19.4177 18.2573 19.6372C17.9643 19.731 15.258 20.3982 11.8487 20.1786C11.8487 20.1786 9.3096 23.2427 8.51585 24.0318C8.39007 24.17 8.2432 24.2107 8.14945 24.1904C8.01507 24.1575 7.97445 23.9911 7.98226 23.763L8.00648 19.5763C3.03382 18.2013 3.32679 13.013 3.37991 10.3029C3.44085 7.5927 3.94945 5.37551 5.46351 3.87395C7.50179 2.03098 11.1643 1.78254 12.869 1.77004H12.8705ZM13.2455 4.47942C13.2046 4.47901 13.164 4.4867 13.1261 4.50205C13.0881 4.51741 13.0536 4.54012 13.0245 4.56887C12.9954 4.59763 12.9722 4.63187 12.9564 4.66962C12.9406 4.70736 12.9324 4.74787 12.9323 4.78879C12.9323 4.96379 13.0744 5.10208 13.2455 5.10208C14.0202 5.08734 14.79 5.22611 15.5107 5.51038C16.2315 5.79464 16.8888 6.21878 17.4448 6.75833C18.5799 7.86067 19.133 9.34192 19.1541 11.2786C19.1541 11.4497 19.2924 11.5919 19.4674 11.5919V11.5794C19.5499 11.5796 19.6291 11.5472 19.6878 11.4893C19.7465 11.4313 19.7799 11.3525 19.7807 11.27C19.8186 10.3584 19.6708 9.44865 19.3462 8.59595C19.0216 7.74326 18.527 6.96548 17.8924 6.30989C16.6557 5.10129 15.0885 4.47864 13.2455 4.47864V4.47942ZM9.12757 5.19583C8.90644 5.16351 8.6809 5.2079 8.48851 5.32161H8.4721C8.02543 5.58343 7.62305 5.91436 7.27991 6.30208C6.99476 6.63176 6.84007 6.96536 6.79945 7.28645C6.77523 7.47786 6.79163 7.66926 6.84866 7.85208L6.86898 7.86458C7.19007 8.80833 7.6096 9.71614 8.1221 10.5708C8.78228 11.7716 9.59472 12.8821 10.5393 13.8747L10.5674 13.9154L10.6119 13.9482L10.6401 13.981L10.6729 14.0091C11.6692 14.9564 12.7823 15.7727 13.9854 16.438C15.3604 17.1865 16.1948 17.5404 16.6955 17.6872V17.695C16.8424 17.7396 16.976 17.7599 17.1104 17.7599C17.5372 17.7286 17.9412 17.5553 18.258 17.2677C18.644 16.9245 18.9712 16.5204 19.2268 16.0716V16.0638C19.4666 15.6122 19.3854 15.1849 19.0393 14.8958C18.3462 14.29 17.5967 13.7518 16.801 13.2888C16.2682 12.9997 15.7268 13.1747 15.5073 13.4677L15.0393 14.0575C14.7994 14.3505 14.3635 14.3099 14.3635 14.3099L14.351 14.3177C11.1002 13.4872 10.233 10.1958 10.233 10.1958C10.233 10.1958 10.1924 9.74817 10.4932 9.52004L11.0791 9.04817C11.3596 8.82004 11.5549 8.27942 11.2541 7.74583C10.7943 6.94907 10.2573 6.19938 9.65101 5.50754C9.51845 5.34444 9.33249 5.23347 9.12601 5.19426L9.12757 5.19583ZM13.7862 6.12395C13.3713 6.12395 13.3713 6.75051 13.7901 6.75051C14.3059 6.75888 14.8151 6.86882 15.2884 7.07405C15.7617 7.27929 16.19 7.57579 16.5487 7.94661C16.8759 8.30755 17.1273 8.7305 17.2881 9.19039C17.4488 9.65028 17.5157 10.1378 17.4846 10.624C17.486 10.7062 17.5196 10.7847 17.5782 10.8425C17.6367 10.9003 17.7156 10.9329 17.7979 10.9333L17.8104 10.9497C17.8933 10.9491 17.9726 10.9159 18.0312 10.8573C18.0898 10.7987 18.1231 10.7193 18.1237 10.6365C18.1518 9.39504 17.7659 8.35364 17.0088 7.51926C16.2479 6.68489 15.1862 6.21692 13.8307 6.12395H13.7862ZM14.2994 7.80833C13.8721 7.79583 13.8557 8.43489 14.2791 8.44739C15.3088 8.50051 15.8088 9.02083 15.8744 10.0911C15.8759 10.1724 15.909 10.2498 15.9669 10.3069C16.0247 10.364 16.1026 10.3962 16.1838 10.3966H16.1963C16.2381 10.3948 16.2791 10.3847 16.3169 10.3669C16.3548 10.3491 16.3887 10.3239 16.4167 10.2929C16.4447 10.2618 16.4662 10.2255 16.48 10.186C16.4938 10.1466 16.4996 10.1047 16.4971 10.063C16.4237 8.6677 15.6627 7.88176 14.3119 7.80911H14.2994V7.80833Z" fill="#9747FF"/>
</g>
<defs>
<clipPath id="clip0_344_2204">
<rect width="25" height="25" fill="white"/>
</clipPath>
</defs>
</svg>
