<svg width="31" height="30" viewBox="0 0 31 30" fill="none" xmlns="http://www.w3.org/2000/svg">
<g clip-path="url(#clip0_173_1423)">
<path d="M1.49053 5.58008C0.827917 5.58008 0.290527 6.11732 0.290527 6.78008V23.2201C0.290527 23.8828 0.828187 24.4201 1.49053 24.4201H29.0905C29.7531 24.4201 30.2905 23.8828 30.2905 23.2201V6.78008C30.2905 6.11735 29.7529 5.58008 29.0905 5.58008H1.49053ZM18.208 11.1948C18.9382 11.1948 19.5233 11.356 19.8965 11.506L19.6415 13.1101L19.4727 13.0248C19.1251 12.8748 18.6786 12.7305 18.0627 12.7407C17.3254 12.7407 16.9846 13.0696 16.9846 13.3773C16.9803 13.724 17.3828 13.9527 18.0411 14.2951C19.1276 14.8234 19.6298 15.4639 19.6227 16.306C19.6081 17.8425 18.323 18.8354 16.3433 18.8354C15.4988 18.8261 14.6851 18.6473 14.2452 18.4407L14.5096 16.7832L14.7524 16.9013C15.3709 17.1777 15.7714 17.2895 16.5252 17.2895C17.0665 17.2895 17.6475 17.0628 17.6521 16.5666C17.6556 16.2426 17.4092 16.0116 16.6761 15.6488C15.9618 15.2947 15.0147 14.7015 15.0252 13.6379C15.0364 12.1991 16.3471 11.1948 18.208 11.1948ZM2.94364 11.4301H5.98396C6.39337 11.4456 6.72391 11.5774 6.83803 12.0216L7.49335 15.4041C7.49344 15.4044 7.49323 15.4057 7.49335 15.406L7.69021 16.4195L9.53614 11.4301H11.533L8.56489 18.7332L6.56989 18.7351L4.98178 12.8419C5.92672 13.3425 6.7312 13.9218 7.1971 14.7188C7.07698 14.4666 6.9187 14.1819 6.71617 13.9013C6.48031 13.5746 5.97094 13.1527 5.75803 12.9732C5.01613 12.3478 4.00858 11.8427 2.92021 11.5754L2.94364 11.4301ZM12.3271 11.4385H14.2799L13.0583 18.7304H11.1055L12.3271 11.4385ZM23.3568 11.4385H24.8362L26.3849 18.7304H24.6093C24.6093 18.7304 24.4331 17.8927 24.3758 17.6373C24.0968 17.6373 22.1448 17.6345 21.9252 17.6345C21.8509 17.8319 21.5221 18.7304 21.5221 18.7304H19.513L22.3546 12.0441C22.5558 11.569 22.8987 11.4385 23.3568 11.4385ZM23.5021 13.3998C23.406 13.671 23.2387 14.109 23.2499 14.0898C23.2499 14.0898 22.6488 15.693 22.4915 16.1091L24.0711 16.1082C23.9244 15.4129 23.7775 14.7176 23.6305 14.0223L23.5021 13.3998V13.3998Z" fill="white"/>
</g>
<defs>
<clipPath id="clip0_173_1423">
<rect width="30" height="30" fill="white" transform="translate(0.290527)"/>
</clipPath>
</defs>
</svg>
