<svg width="25" height="25" viewBox="0 0 25 25" fill="none" xmlns="http://www.w3.org/2000/svg">
<g clip-path="url(#clip0_344_2234)">
<path d="M0.529494 12.3504C0.528912 14.4509 1.07775 16.5018 2.12135 18.3096L0.429688 24.4861L6.75062 22.8288C8.4989 23.7805 10.4577 24.2792 12.4483 24.2794H12.4535C19.0247 24.2794 24.3739 18.9322 24.3767 12.3598C24.3779 9.175 23.1388 6.18023 20.8874 3.92713C18.6365 1.67423 15.6428 0.43285 12.453 0.431396C5.88105 0.431396 0.532304 5.7783 0.529591 12.3504" fill="url(#paint0_linear_344_2234)"/>
<path d="M0.103682 12.3465C0.103004 14.5226 0.671512 16.6469 1.75233 18.5194L0 24.9173L6.54758 23.2006C8.35165 24.1842 10.3828 24.7028 12.4497 24.7036H12.455C19.262 24.7036 24.8033 19.1641 24.8062 12.3564C24.8074 9.05717 23.5236 5.95475 21.1919 3.62093C18.8598 1.2874 15.759 0.00135659 12.455 0C5.6469 0 0.106492 5.53876 0.103779 12.3465H0.103682ZM4.00291 18.1969L3.75843 17.8088C2.73072 16.1747 2.18828 14.2863 2.18905 12.3473C2.19128 6.68886 6.79632 2.08527 12.4589 2.08527C15.2012 2.08643 17.7783 3.15543 19.7167 5.09496C21.6549 7.03469 22.7215 9.61318 22.7208 12.3556C22.7183 18.0141 18.1132 22.6182 12.455 22.6182H12.451C10.6086 22.6172 8.80174 22.1225 7.22597 21.1875L6.85097 20.9651L2.9655 21.9838L4.00291 18.1968V18.1969Z" fill="url(#paint1_linear_344_2234)"/>
<path d="M9.36815 7.18489C9.13695 6.67103 8.89364 6.66066 8.67377 6.65165C8.49373 6.6439 8.28792 6.64448 8.0823 6.64448C7.87649 6.64448 7.54209 6.7219 7.25943 7.03053C6.97649 7.33944 6.1792 8.08595 6.1792 9.60427C6.1792 11.1227 7.28511 12.59 7.43928 12.7961C7.59364 13.0018 9.57426 16.2173 12.7111 17.4544C15.3181 18.4824 15.8486 18.2779 16.4144 18.2264C16.9803 18.175 18.2403 17.48 18.4974 16.7594C18.7547 16.0389 18.7547 15.4212 18.6776 15.2922C18.6004 15.1636 18.3946 15.0863 18.086 14.9321C17.7773 14.7777 16.26 14.0311 15.9772 13.9281C15.6942 13.8252 15.4885 13.7738 15.2827 14.0829C15.0769 14.3914 14.4859 15.0863 14.3057 15.2922C14.1258 15.4985 13.9457 15.5241 13.6371 15.3698C13.3283 15.2149 12.3344 14.8894 11.1553 13.8382C10.2378 13.0202 9.61844 12.01 9.4384 11.701C9.25837 11.3924 9.41912 11.2252 9.57387 11.0714C9.71253 10.9331 9.88259 10.7111 10.037 10.5309C10.1909 10.3507 10.2423 10.2221 10.3452 10.0163C10.4482 9.81027 10.3966 9.63004 10.3196 9.47568C10.2423 9.32132 9.64257 7.79516 9.36815 7.18498" fill="white"/>
</g>
<defs>
<linearGradient id="paint0_linear_344_2234" x1="12.4032" y1="24.4861" x2="12.4032" y2="0.431396" gradientUnits="userSpaceOnUse">
<stop stop-color="#1FAF38"/>
<stop offset="1" stop-color="#60D669"/>
</linearGradient>
<linearGradient id="paint1_linear_344_2234" x1="12.4031" y1="24.9173" x2="12.4031" y2="0" gradientUnits="userSpaceOnUse">
<stop stop-color="#F9F9F9"/>
<stop offset="1" stop-color="white"/>
</linearGradient>
<clipPath id="clip0_344_2234">
<rect width="24.8062" height="25" fill="white"/>
</clipPath>
</defs>
</svg>
