<svg width="50" height="50" viewBox="0 0 50 50" fill="none" xmlns="http://www.w3.org/2000/svg">
<path d="M30.5951 23.9844L13.2998 20.9375V43.4516C13.3 43.6961 13.3484 43.9383 13.4422 44.1642C13.536 44.3901 13.6733 44.5953 13.8464 44.7681C14.0195 44.9409 14.225 45.0779 14.451 45.1713C14.677 45.2647 14.9193 45.3127 15.1639 45.3125H45.0076C45.2525 45.3131 45.495 45.2654 45.7214 45.1722C45.9478 45.079 46.1537 44.942 46.3271 44.7692C46.5005 44.5964 46.6381 44.391 46.7321 44.1649C46.8261 43.9388 46.8746 43.6964 46.8748 43.4516V35.1563L30.5951 23.9844Z" fill="#185C37"/>
<path d="M30.5951 4.6875H15.1639C14.9193 4.6873 14.677 4.73527 14.451 4.82868C14.225 4.92209 14.0195 5.05911 13.8464 5.23191C13.6733 5.40471 13.536 5.60992 13.4422 5.83581C13.3484 6.0617 13.3 6.30385 13.2998 6.54844V14.8438L30.5951 25L39.7529 28.0469L46.8748 25V14.8438L30.5951 4.6875Z" fill="#21A366"/>
<path d="M13.2998 14.8438H30.5951V25H13.2998V14.8438Z" fill="#107C41"/>
<path opacity="0.1" d="M25.6779 12.8125H13.2998V38.2031H25.6779C26.1712 38.2007 26.6436 38.004 26.9928 37.6556C27.342 37.3073 27.5399 36.8354 27.5436 36.3422V14.6734C27.5399 14.1802 27.342 13.7083 26.9928 13.36C26.6436 13.0117 26.1712 12.815 25.6779 12.8125Z" fill="black"/>
<path opacity="0.2" d="M24.6607 13.8281H13.2998V39.2188H24.6607C25.154 39.2163 25.6264 39.0196 25.9756 38.6713C26.3248 38.3229 26.5227 37.851 26.5264 37.3578V15.6891C26.5227 15.1958 26.3248 14.7239 25.9756 14.3756C25.6264 14.0273 25.154 13.8306 24.6607 13.8281Z" fill="black"/>
<path opacity="0.2" d="M24.6607 13.8281H13.2998V37.1875H24.6607C25.154 37.185 25.6264 36.9883 25.9756 36.64C26.3248 36.2917 26.5227 35.8198 26.5264 35.3266V15.6891C26.5227 15.1958 26.3248 14.7239 25.9756 14.3756C25.6264 14.0273 25.154 13.8306 24.6607 13.8281Z" fill="black"/>
<path opacity="0.2" d="M23.6436 13.8281H13.2998V37.1875H23.6436C24.1368 37.185 24.6092 36.9883 24.9584 36.64C25.3076 36.2917 25.5055 35.8198 25.5092 35.3266V15.6891C25.5055 15.1958 25.3076 14.7239 24.9584 14.3756C24.6092 14.0273 24.1368 13.8306 23.6436 13.8281Z" fill="black"/>
<path d="M4.99063 13.8281H23.6437C24.1379 13.8277 24.6119 14.0235 24.9617 14.3724C25.3116 14.7214 25.5085 15.195 25.5094 15.6891V34.3109C25.5085 34.805 25.3116 35.2786 24.9617 35.6276C24.6119 35.9765 24.1379 36.1723 23.6437 36.1719H4.99063C4.74591 36.1723 4.50351 36.1245 4.27728 36.0311C4.05105 35.9378 3.84543 35.8008 3.67217 35.628C3.49891 35.4552 3.36141 35.2499 3.26752 35.0239C3.17363 34.7979 3.1252 34.5557 3.125 34.3109V15.6891C3.1252 15.4443 3.17363 15.2021 3.26752 14.9761C3.36141 14.7501 3.49891 14.5448 3.67217 14.372C3.84543 14.1992 4.05105 14.0622 4.27728 13.9689C4.50351 13.8755 4.74591 13.8277 4.99063 13.8281Z" fill="url(#paint0_linear_702_5405)"/>
<path d="M8.90625 31.0514L12.8297 24.9826L9.23594 18.9482H12.1219L14.0828 22.8123C14.2641 23.1779 14.3953 23.4498 14.4547 23.6311H14.4812C14.6094 23.3373 14.7453 23.0545 14.8875 22.7779L16.9844 18.9545H19.6406L15.9547 24.9545L19.7344 31.0561H16.9078L14.6422 26.8201C14.537 26.638 14.4476 26.4472 14.375 26.2498H14.3375C14.2714 26.4421 14.1834 26.6262 14.075 26.7982L11.7422 31.0514H8.90625Z" fill="white"/>
<path d="M45.0093 4.6875H30.5952V14.8438H46.8749V6.54844C46.8747 6.30372 46.8263 6.06144 46.7324 5.83545C46.6385 5.60946 46.501 5.40418 46.3277 5.23136C46.1545 5.05853 45.9489 4.92155 45.7226 4.82823C45.4964 4.73491 45.254 4.68709 45.0093 4.6875Z" fill="#33C481"/>
<path d="M30.5952 25H46.8749V35.1562H30.5952V25Z" fill="#107C41"/>
<defs>
<linearGradient id="paint0_linear_702_5405" x1="7.02187" y1="12.3656" x2="21.6125" y2="37.6344" gradientUnits="userSpaceOnUse">
<stop stop-color="#18884F"/>
<stop offset="0.5" stop-color="#117E43"/>
<stop offset="1" stop-color="#0B6631"/>
</linearGradient>
</defs>
</svg>
